{"glyphs":{"0":{"ha":663,"x_min":49,"x_max":614,"o":"m 333 -18 q 186 19 251 -18 q 85 123 121 57 q 49 272 49 189 q 85 418 49 354 q 186 518 121 482 q 335 554 251 554 q 479 517 415 554 q 578 415 543 481 q 614 268 614 350 q 578 121 614 186 q 478 19 542 56 q 333 -18 414 -18 m 349 1 q 474 68 432 1 q 517 251 517 135 q 461 463 517 390 q 321 535 406 535 q 191 465 238 535 q 144 283 144 396 q 200 81 144 160 q 349 1 256 1 z "},"1":{"ha":461,"x_min":63,"x_max":431,"o":"m 76 0 q 72 8 72 0 q 76 17 72 17 q 163 24 135 17 q 202 51 192 32 q 213 113 213 71 l 213 371 q 206 445 213 424 q 176 467 199 467 q 75 432 151 467 l 74 432 q 65 438 68 432 q 68 447 63 444 l 278 549 q 282 550 279 550 q 289 547 286 550 q 292 539 292 543 l 292 113 q 301 50 292 69 q 339 24 311 31 q 428 17 367 17 q 431 8 431 17 q 428 0 431 0 q 354 1 381 0 l 251 3 l 151 1 q 76 0 124 0 z "},"2":{"ha":558,"x_min":46,"x_max":518,"o":"m 51 21 q 240 183 174 119 q 336 297 307 247 q 365 396 365 347 q 331 488 365 453 q 243 524 297 524 q 85 353 133 524 q 79 350 85 350 q 71 352 75 350 q 68 356 67 354 l 122 567 q 128 569 122 569 q 135 567 132 569 q 138 564 139 565 q 136 549 136 558 q 157 526 136 526 q 200 536 168 526 q 300 554 257 554 q 412 516 371 554 q 453 417 453 478 q 422 319 453 368 q 330 216 390 271 q 161 78 269 161 q 158 71 156 74 q 167 68 161 68 q 379 72 319 68 q 465 94 439 76 q 503 158 492 113 q 511 162 504 163 q 518 157 518 161 l 497 15 q 494 5 497 10 q 485 0 490 0 l 61 0 q 50 8 54 0 q 51 21 46 15 z "},"3":{"ha":540,"x_min":44,"x_max":485,"o":"m 297 182 q 437 117 389 172 q 485 -12 485 61 q 440 -152 485 -81 q 305 -285 396 -224 q 81 -382 214 -346 q 73 -376 76 -383 q 75 -367 69 -368 q 313 -221 242 -315 q 385 -28 385 -126 q 346 99 385 47 q 228 150 307 150 q 161 142 189 150 q 153 149 156 140 q 156 158 151 157 q 309 236 264 186 q 354 372 354 286 q 324 483 354 443 q 233 524 294 524 q 129 483 172 524 q 61 358 86 443 q 56 357 61 357 q 46 363 44 357 l 97 565 q 103 568 97 568 q 111 566 107 568 q 114 563 115 564 q 111 547 111 551 q 135 524 111 524 q 176 533 147 524 q 279 554 233 554 q 400 508 357 554 q 443 396 443 461 q 404 269 443 328 q 297 182 365 210 z "},"4":{"ha":626,"x_min":26,"x_max":581,"o":"m 574 61 q 578 52 576 61 q 581 32 581 43 q 578 11 581 21 q 574 1 576 1 q 457 7 532 4 l 457 -212 q 446 -232 457 -228 l 388 -261 q 379 -264 379 -264 q 375 -253 375 -264 l 375 8 q 40 11 288 11 q 30 17 33 11 q 31 28 26 22 l 436 550 q 444 553 439 553 q 453 551 449 553 q 457 544 457 549 l 457 58 q 574 61 490 58 m 108 53 q 375 56 228 53 l 375 413 l 101 63 q 101 56 99 58 q 108 53 103 53 z "},"5":{"ha":568,"x_min":79,"x_max":496,"o":"m 165 451 q 144 432 147 451 l 117 272 q 398 201 308 271 q 488 13 488 132 q 447 -131 488 -67 q 322 -256 407 -196 q 94 -382 236 -317 l 93 -382 q 84 -376 88 -382 q 86 -367 81 -369 q 326 -195 257 -282 q 396 -11 396 -108 q 318 168 396 104 q 94 232 240 232 q 83 237 88 232 q 81 249 79 242 l 125 496 q 129 508 126 506 q 143 511 132 510 q 378 540 318 532 q 455 558 438 549 q 479 588 472 567 q 488 591 481 592 q 494 585 496 590 l 467 482 q 453 463 461 467 q 428 458 446 458 l 165 451 z "},"6":{"ha":646,"x_min":65,"x_max":597,"o":"m 415 393 q 553 343 508 393 q 597 221 597 293 q 560 101 597 156 q 459 14 522 46 q 319 -18 396 -18 q 133 63 201 -18 q 65 289 65 143 q 124 543 65 418 q 294 767 183 668 q 556 918 406 865 q 564 913 561 919 q 563 903 567 906 q 339 747 431 843 q 201 537 247 650 q 154 313 154 424 q 178 158 154 228 q 249 49 203 89 q 358 8 296 8 q 467 56 426 8 q 508 185 508 103 q 473 307 508 260 q 367 354 438 354 q 299 339 331 354 q 229 289 268 324 l 226 288 q 217 292 222 288 q 214 299 213 297 q 415 393 292 393 z "},"7":{"ha":596,"x_min":31,"x_max":546,"o":"m 226 -303 q 215 -323 222 -315 q 197 -337 207 -331 l 126 -382 q 119 -379 124 -383 q 117 -372 115 -375 l 488 456 q 481 465 492 465 q 194 460 274 465 q 88 437 114 454 q 49 372 63 419 q 42 368 49 368 q 34 370 38 368 q 32 375 31 372 l 81 574 q 90 576 82 576 q 97 572 99 575 q 96 558 96 567 q 109 540 96 544 q 163 536 122 536 l 531 536 q 541 530 536 536 q 543 518 546 524 l 226 -303 z "},"8":{"ha":679,"x_min":65,"x_max":631,"o":"m 413 478 q 526 409 482 440 q 601 332 571 378 q 631 225 631 286 q 590 101 631 157 q 483 14 550 46 q 336 -18 415 -18 q 195 13 257 -18 q 99 97 133 44 q 65 207 65 149 q 120 362 65 289 q 256 476 175 435 q 172 546 201 510 q 143 631 143 582 q 176 722 143 685 q 260 778 210 760 q 360 797 310 797 q 458 776 415 797 q 523 721 500 754 q 546 651 546 688 q 511 562 546 607 q 413 478 476 517 m 331 775 q 251 747 283 775 q 219 672 219 719 q 264 574 219 614 q 397 486 308 533 q 449 554 432 519 q 467 629 467 589 q 428 735 467 694 q 331 775 390 775 m 375 7 q 501 54 451 7 q 550 181 550 101 q 519 291 550 244 q 446 366 489 338 q 328 435 403 394 l 275 464 q 187 371 218 428 q 156 244 156 314 q 183 128 156 182 q 261 40 211 74 q 375 7 311 7 z "},"9":{"ha":646,"x_min":49,"x_max":582,"o":"m 246 151 q 97 208 146 151 q 49 339 49 265 q 82 450 49 401 q 173 526 115 499 q 301 554 231 554 q 506 465 431 554 q 582 229 582 376 q 523 -20 582 103 q 352 -240 464 -143 q 90 -382 240 -336 q 83 -376 86 -383 q 85 -367 79 -369 q 307 -219 215 -314 q 445 -14 399 -125 q 492 203 492 97 q 470 351 492 276 q 401 478 449 426 q 279 529 353 529 q 176 485 214 529 q 139 365 139 442 q 178 239 139 289 q 290 189 217 189 q 353 201 325 189 q 417 242 382 213 q 421 243 418 243 q 429 239 425 243 q 432 232 433 235 q 246 151 363 151 z "}," ":{"ha":325,"x_min":0,"x_max":0,"o":""},"A":{"ha":975,"x_min":-6,"x_max":976,"o":"m 969 17 q 976 8 976 17 q 969 0 976 0 q 889 3 942 0 q 810 6 833 6 q 732 3 779 6 q 663 0 685 0 q 657 8 657 0 q 663 17 657 17 q 738 26 714 17 q 761 60 761 36 q 743 119 761 79 l 582 460 l 321 460 l 201 176 q 182 99 182 129 q 318 17 182 17 q 325 8 325 17 q 318 0 325 0 q 247 3 294 0 q 154 6 194 6 q 71 3 118 6 q 1 0 29 0 q -6 8 -6 0 q 1 17 -6 17 q 67 31 40 17 q 119 83 94 46 q 172 189 143 119 l 465 881 q 474 884 467 883 q 483 881 482 885 l 811 190 q 869 83 844 119 q 916 31 893 46 q 969 17 939 17 m 568 489 l 444 751 l 333 489 l 568 489 z "},"Á":{"ha":975,"x_min":-6,"x_max":976,"o":"m 969 17 q 976 8 976 17 q 969 0 976 0 q 889 3 942 0 q 810 6 833 6 q 732 3 779 6 q 663 0 685 0 q 657 8 657 0 q 663 17 657 17 q 738 26 714 17 q 761 60 761 36 q 743 119 761 79 l 582 460 l 321 460 l 201 176 q 182 99 182 129 q 318 17 182 17 q 325 8 325 17 q 318 0 325 0 q 247 3 294 0 q 154 6 194 6 q 71 3 118 6 q 1 0 29 0 q -6 8 -6 0 q 1 17 -6 17 q 67 31 40 17 q 119 83 94 46 q 172 189 143 119 l 465 881 q 474 884 467 883 q 483 881 482 885 l 811 190 q 869 83 844 119 q 916 31 893 46 q 969 17 939 17 m 568 489 l 444 751 l 333 489 l 568 489 m 336 942 q 329 948 331 942 q 332 957 328 954 q 483 1044 383 982 q 558 1089 533 1075 q 591 1084 564 1093 q 638 1064 618 1075 q 647 1050 658 1053 q 490 1003 561 1029 q 339 943 418 978 l 336 942 z "},"Ă":{"ha":975,"x_min":-6,"x_max":976,"o":"m 969 17 q 976 8 976 17 q 969 0 976 0 q 889 3 942 0 q 810 6 833 6 q 732 3 779 6 q 663 0 685 0 q 657 8 657 0 q 663 17 657 17 q 738 26 714 17 q 761 60 761 36 q 743 119 761 79 l 582 460 l 321 460 l 201 176 q 182 99 182 129 q 318 17 182 17 q 325 8 325 17 q 318 0 325 0 q 247 3 294 0 q 154 6 194 6 q 71 3 118 6 q 1 0 29 0 q -6 8 -6 0 q 1 17 -6 17 q 67 31 40 17 q 119 83 94 46 q 172 189 143 119 l 465 881 q 474 884 467 883 q 483 881 482 885 l 811 190 q 869 83 844 119 q 916 31 893 46 q 969 17 939 17 m 568 489 l 444 751 l 333 489 l 568 489 m 474 958 q 377 997 414 958 q 331 1107 340 1035 q 337 1113 329 1113 q 346 1110 344 1114 q 392 1045 356 1072 q 474 1018 429 1018 q 553 1045 517 1018 q 600 1110 590 1072 q 609 1113 601 1114 q 615 1107 617 1113 q 569 997 604 1035 q 474 958 533 958 z "},"Ắ":{"ha":975,"x_min":-6,"x_max":976,"o":"m 969 17 q 976 8 976 17 q 969 0 976 0 q 889 3 942 0 q 810 6 833 6 q 732 3 779 6 q 663 0 685 0 q 657 8 657 0 q 663 17 657 17 q 738 26 714 17 q 761 60 761 36 q 743 119 761 79 l 582 460 l 321 460 l 201 176 q 182 99 182 129 q 318 17 182 17 q 325 8 325 17 q 318 0 325 0 q 247 3 294 0 q 154 6 194 6 q 71 3 118 6 q 1 0 29 0 q -6 8 -6 0 q 1 17 -6 17 q 67 31 40 17 q 119 83 94 46 q 172 189 143 119 l 465 881 q 474 884 467 883 q 483 881 482 885 l 811 190 q 869 83 844 119 q 916 31 893 46 q 969 17 939 17 m 568 489 l 444 751 l 333 489 l 568 489 m 474 913 q 377 951 414 913 q 331 1061 340 989 q 337 1067 329 1067 q 346 1064 344 1068 q 392 999 356 1026 q 474 972 429 972 q 553 999 517 972 q 600 1064 590 1026 q 609 1067 601 1068 q 615 1061 617 1067 q 569 951 604 989 q 474 913 533 913 m 394 1042 q 388 1047 390 1042 q 389 1054 386 1051 q 494 1189 449 1124 q 526 1185 499 1194 q 574 1165 553 1176 q 585 1150 594 1153 q 399 1043 494 1114 l 394 1042 z "},"Ặ":{"ha":975,"x_min":-6,"x_max":976,"o":"m 969 17 q 976 8 976 17 q 969 0 976 0 q 889 3 942 0 q 810 6 833 6 q 732 3 779 6 q 663 0 685 0 q 657 8 657 0 q 663 17 657 17 q 738 26 714 17 q 761 60 761 36 q 743 119 761 79 l 582 460 l 321 460 l 201 176 q 182 99 182 129 q 318 17 182 17 q 325 8 325 17 q 318 0 325 0 q 247 3 294 0 q 154 6 194 6 q 71 3 118 6 q 1 0 29 0 q -6 8 -6 0 q 1 17 -6 17 q 67 31 40 17 q 119 83 94 46 q 172 189 143 119 l 465 881 q 474 884 467 883 q 483 881 482 885 l 811 190 q 869 83 844 119 q 916 31 893 46 q 969 17 939 17 m 568 489 l 444 751 l 333 489 l 568 489 m 489 -265 q 444 -249 460 -265 q 428 -204 428 -233 q 444 -162 428 -178 q 489 -147 460 -147 q 532 -162 517 -147 q 547 -204 547 -178 q 532 -249 547 -233 q 489 -265 517 -265 m 474 958 q 377 997 414 958 q 331 1107 340 1035 q 337 1113 329 1113 q 346 1110 344 1114 q 392 1045 356 1072 q 474 1018 429 1018 q 553 1045 517 1018 q 600 1110 590 1072 q 609 1113 601 1114 q 615 1107 617 1113 q 569 997 604 1035 q 474 958 533 958 z "},"Ằ":{"ha":975,"x_min":-6,"x_max":976,"o":"m 969 17 q 976 8 976 17 q 969 0 976 0 q 889 3 942 0 q 810 6 833 6 q 732 3 779 6 q 663 0 685 0 q 657 8 657 0 q 663 17 657 17 q 738 26 714 17 q 761 60 761 36 q 743 119 761 79 l 582 460 l 321 460 l 201 176 q 182 99 182 129 q 318 17 182 17 q 325 8 325 17 q 318 0 325 0 q 247 3 294 0 q 154 6 194 6 q 71 3 118 6 q 1 0 29 0 q -6 8 -6 0 q 1 17 -6 17 q 67 31 40 17 q 119 83 94 46 q 172 189 143 119 l 465 881 q 474 884 467 883 q 483 881 482 885 l 811 190 q 869 83 844 119 q 916 31 893 46 q 969 17 939 17 m 568 489 l 444 751 l 333 489 l 568 489 m 474 913 q 377 951 414 913 q 331 1061 340 989 q 337 1067 329 1067 q 346 1064 344 1068 q 392 999 356 1026 q 474 972 429 972 q 553 999 517 972 q 600 1064 590 1026 q 609 1067 601 1068 q 615 1061 617 1067 q 569 951 604 989 q 474 913 533 913 m 544 1043 q 361 1150 453 1110 q 371 1165 350 1153 q 419 1185 392 1176 q 450 1189 446 1194 q 556 1056 503 1111 q 557 1051 557 1054 q 553 1044 557 1047 q 544 1043 550 1042 z "},"Ẳ":{"ha":975,"x_min":-6,"x_max":976,"o":"m 969 17 q 976 8 976 17 q 969 0 976 0 q 889 3 942 0 q 810 6 833 6 q 732 3 779 6 q 663 0 685 0 q 657 8 657 0 q 663 17 657 17 q 738 26 714 17 q 761 60 761 36 q 743 119 761 79 l 582 460 l 321 460 l 201 176 q 182 99 182 129 q 318 17 182 17 q 325 8 325 17 q 318 0 325 0 q 247 3 294 0 q 154 6 194 6 q 71 3 118 6 q 1 0 29 0 q -6 8 -6 0 q 1 17 -6 17 q 67 31 40 17 q 119 83 94 46 q 172 189 143 119 l 465 881 q 474 884 467 883 q 483 881 482 885 l 811 190 q 869 83 844 119 q 916 31 893 46 q 969 17 939 17 m 568 489 l 444 751 l 333 489 l 568 489 m 474 913 q 377 951 414 913 q 331 1061 340 989 q 337 1067 329 1067 q 346 1064 344 1068 q 392 999 356 1026 q 474 972 429 972 q 553 999 517 972 q 600 1064 590 1026 q 609 1067 601 1068 q 615 1061 617 1067 q 569 951 604 989 q 474 913 533 913 m 456 1019 q 453 1038 453 1026 q 472 1089 453 1056 q 488 1118 483 1106 q 493 1143 493 1131 q 478 1175 493 1164 q 444 1186 463 1186 q 413 1179 429 1186 l 411 1179 q 403 1184 407 1179 q 403 1190 399 1189 q 447 1210 424 1203 q 486 1217 469 1217 q 535 1199 517 1217 q 553 1157 553 1181 q 542 1122 553 1138 q 508 1085 531 1107 q 476 1050 486 1064 q 471 1019 467 1036 q 465 1017 472 1017 q 456 1019 457 1017 z "},"Ẵ":{"ha":975,"x_min":-6,"x_max":976,"o":"m 969 17 q 976 8 976 17 q 969 0 976 0 q 889 3 942 0 q 810 6 833 6 q 732 3 779 6 q 663 0 685 0 q 657 8 657 0 q 663 17 657 17 q 738 26 714 17 q 761 60 761 36 q 743 119 761 79 l 582 460 l 321 460 l 201 176 q 182 99 182 129 q 318 17 182 17 q 325 8 325 17 q 318 0 325 0 q 247 3 294 0 q 154 6 194 6 q 71 3 118 6 q 1 0 29 0 q -6 8 -6 0 q 1 17 -6 17 q 67 31 40 17 q 119 83 94 46 q 172 189 143 119 l 465 881 q 474 884 467 883 q 483 881 482 885 l 811 190 q 869 83 844 119 q 916 31 893 46 q 969 17 939 17 m 568 489 l 444 751 l 333 489 l 568 489 m 476 931 q 380 969 417 931 q 333 1079 343 1007 q 340 1085 332 1085 q 349 1082 347 1086 q 395 1017 358 1044 q 476 990 432 990 q 556 1017 519 990 q 603 1082 593 1044 q 612 1085 604 1086 q 618 1079 619 1085 q 572 969 607 1007 q 476 931 536 931 m 581 1160 q 617 1169 604 1160 q 649 1197 631 1178 l 650 1197 q 658 1194 654 1197 q 658 1188 661 1190 q 599 1119 622 1136 q 549 1101 576 1101 q 497 1108 524 1101 q 464 1117 469 1115 q 367 1135 407 1135 q 330 1126 342 1135 q 299 1097 318 1118 l 297 1097 q 290 1101 293 1097 q 289 1107 286 1104 q 343 1167 313 1140 q 407 1194 374 1194 q 476 1179 431 1194 q 516 1169 483 1178 q 581 1160 549 1160 z "},"Ǎ":{"ha":975,"x_min":-6,"x_max":976,"o":"m 969 17 q 976 8 976 17 q 969 0 976 0 q 889 3 942 0 q 810 6 833 6 q 732 3 779 6 q 663 0 685 0 q 657 8 657 0 q 663 17 657 17 q 738 26 714 17 q 761 60 761 36 q 743 119 761 79 l 582 460 l 321 460 l 201 176 q 182 99 182 129 q 318 17 182 17 q 325 8 325 17 q 318 0 325 0 q 247 3 294 0 q 154 6 194 6 q 71 3 118 6 q 1 0 29 0 q -6 8 -6 0 q 1 17 -6 17 q 67 31 40 17 q 119 83 94 46 q 172 189 143 119 l 465 881 q 474 884 467 883 q 483 881 482 885 l 811 190 q 869 83 844 119 q 916 31 893 46 q 969 17 939 17 m 568 489 l 444 751 l 333 489 l 568 489 m 314 1089 q 313 1090 313 1089 q 313 1090 313 1090 q 316 1097 313 1093 q 322 1099 319 1100 l 474 1019 l 624 1099 l 625 1099 q 631 1095 629 1099 q 631 1089 633 1092 l 489 954 q 474 949 483 949 q 457 954 463 949 l 314 1089 z "},"Â":{"ha":975,"x_min":-6,"x_max":976,"o":"m 969 17 q 976 8 976 17 q 969 0 976 0 q 889 3 942 0 q 810 6 833 6 q 732 3 779 6 q 663 0 685 0 q 657 8 657 0 q 663 17 657 17 q 738 26 714 17 q 761 60 761 36 q 743 119 761 79 l 582 460 l 321 460 l 201 176 q 182 99 182 129 q 318 17 182 17 q 325 8 325 17 q 318 0 325 0 q 247 3 294 0 q 154 6 194 6 q 71 3 118 6 q 1 0 29 0 q -6 8 -6 0 q 1 17 -6 17 q 67 31 40 17 q 119 83 94 46 q 172 189 143 119 l 465 881 q 474 884 467 883 q 483 881 482 885 l 811 190 q 869 83 844 119 q 916 31 893 46 q 969 17 939 17 m 568 489 l 444 751 l 333 489 l 568 489 m 457 1044 q 472 1051 464 1051 q 489 1044 482 1051 l 631 910 q 632 907 632 910 q 628 901 632 904 q 624 900 625 899 l 474 979 l 322 900 q 315 903 319 899 q 314 910 311 908 l 457 1044 z "},"Ấ":{"ha":975,"x_min":-6,"x_max":976,"o":"m 969 17 q 976 8 976 17 q 969 0 976 0 q 889 3 942 0 q 810 6 833 6 q 732 3 779 6 q 663 0 685 0 q 657 8 657 0 q 663 17 657 17 q 738 26 714 17 q 761 60 761 36 q 743 119 761 79 l 582 460 l 321 460 l 201 176 q 182 99 182 129 q 318 17 182 17 q 325 8 325 17 q 318 0 325 0 q 247 3 294 0 q 154 6 194 6 q 71 3 118 6 q 1 0 29 0 q -6 8 -6 0 q 1 17 -6 17 q 67 31 40 17 q 119 83 94 46 q 172 189 143 119 l 465 881 q 474 884 467 883 q 483 881 482 885 l 811 190 q 869 83 844 119 q 916 31 893 46 q 969 17 939 17 m 568 489 l 444 751 l 333 489 l 568 489 m 457 1044 q 472 1051 464 1051 q 489 1044 482 1051 l 631 910 q 632 907 632 910 q 628 901 632 904 q 624 900 625 899 l 474 979 l 322 900 q 315 903 319 899 q 314 910 311 908 l 457 1044 m 563 1004 q 556 1009 558 1004 q 557 1017 554 1014 q 663 1151 617 1086 q 694 1148 667 1157 q 742 1127 721 1139 q 753 1113 763 1115 q 567 1006 663 1076 l 563 1004 z "},"Ậ":{"ha":975,"x_min":-6,"x_max":976,"o":"m 969 17 q 976 8 976 17 q 969 0 976 0 q 889 3 942 0 q 810 6 833 6 q 732 3 779 6 q 663 0 685 0 q 657 8 657 0 q 663 17 657 17 q 738 26 714 17 q 761 60 761 36 q 743 119 761 79 l 582 460 l 321 460 l 201 176 q 182 99 182 129 q 318 17 182 17 q 325 8 325 17 q 318 0 325 0 q 247 3 294 0 q 154 6 194 6 q 71 3 118 6 q 1 0 29 0 q -6 8 -6 0 q 1 17 -6 17 q 67 31 40 17 q 119 83 94 46 q 172 189 143 119 l 465 881 q 474 884 467 883 q 483 881 482 885 l 811 190 q 869 83 844 119 q 916 31 893 46 q 969 17 939 17 m 568 489 l 444 751 l 333 489 l 568 489 m 489 -265 q 444 -249 460 -265 q 428 -204 428 -233 q 444 -162 428 -178 q 489 -147 460 -147 q 532 -162 517 -147 q 547 -204 547 -178 q 532 -249 547 -233 q 489 -265 517 -265 m 457 1044 q 472 1051 464 1051 q 489 1044 482 1051 l 631 910 q 632 907 632 910 q 628 901 632 904 q 624 900 625 899 l 474 979 l 322 900 q 315 903 319 899 q 314 910 311 908 l 457 1044 z "},"Ầ":{"ha":975,"x_min":-6,"x_max":976,"o":"m 969 17 q 976 8 976 17 q 969 0 976 0 q 889 3 942 0 q 810 6 833 6 q 732 3 779 6 q 663 0 685 0 q 657 8 657 0 q 663 17 657 17 q 738 26 714 17 q 761 60 761 36 q 743 119 761 79 l 582 460 l 321 460 l 201 176 q 182 99 182 129 q 318 17 182 17 q 325 8 325 17 q 318 0 325 0 q 247 3 294 0 q 154 6 194 6 q 71 3 118 6 q 1 0 29 0 q -6 8 -6 0 q 1 17 -6 17 q 67 31 40 17 q 119 83 94 46 q 172 189 143 119 l 465 881 q 474 884 467 883 q 483 881 482 885 l 811 190 q 869 83 844 119 q 916 31 893 46 q 969 17 939 17 m 568 489 l 444 751 l 333 489 l 568 489 m 457 1044 q 472 1051 464 1051 q 489 1044 482 1051 l 631 910 q 632 907 632 910 q 628 901 632 904 q 624 900 625 899 l 474 979 l 322 900 q 315 903 319 899 q 314 910 311 908 l 457 1044 m 706 975 q 522 1082 614 1042 q 532 1097 511 1085 q 580 1117 553 1108 q 611 1121 607 1126 q 717 988 664 1043 q 718 983 718 986 q 715 976 718 979 q 706 975 711 974 z "},"Ẩ":{"ha":975,"x_min":-6,"x_max":976,"o":"m 969 17 q 976 8 976 17 q 969 0 976 0 q 889 3 942 0 q 810 6 833 6 q 732 3 779 6 q 663 0 685 0 q 657 8 657 0 q 663 17 657 17 q 738 26 714 17 q 761 60 761 36 q 743 119 761 79 l 582 460 l 321 460 l 201 176 q 182 99 182 129 q 318 17 182 17 q 325 8 325 17 q 318 0 325 0 q 247 3 294 0 q 154 6 194 6 q 71 3 118 6 q 1 0 29 0 q -6 8 -6 0 q 1 17 -6 17 q 67 31 40 17 q 119 83 94 46 q 172 189 143 119 l 465 881 q 474 884 467 883 q 483 881 482 885 l 811 190 q 869 83 844 119 q 916 31 893 46 q 969 17 939 17 m 568 489 l 444 751 l 333 489 l 568 489 m 457 1044 q 472 1051 464 1051 q 489 1044 482 1051 l 631 910 q 632 907 632 910 q 628 901 632 904 q 624 900 625 899 l 474 979 l 322 900 q 315 903 319 899 q 314 910 311 908 l 457 1044 m 586 1004 q 583 1022 583 1011 q 603 1074 583 1040 q 619 1103 614 1090 q 624 1128 624 1115 q 608 1160 624 1149 q 575 1171 593 1171 q 543 1164 560 1171 l 542 1164 q 533 1169 538 1164 q 533 1175 529 1174 q 577 1194 554 1188 q 617 1201 600 1201 q 665 1183 647 1201 q 683 1142 683 1165 q 672 1107 683 1122 q 639 1069 661 1092 q 607 1035 617 1049 q 601 1004 597 1021 q 595 1001 603 1001 q 586 1004 588 1001 z "},"Ẫ":{"ha":975,"x_min":-6,"x_max":976,"o":"m 969 17 q 976 8 976 17 q 969 0 976 0 q 889 3 942 0 q 810 6 833 6 q 732 3 779 6 q 663 0 685 0 q 657 8 657 0 q 663 17 657 17 q 738 26 714 17 q 761 60 761 36 q 743 119 761 79 l 582 460 l 321 460 l 201 176 q 182 99 182 129 q 318 17 182 17 q 325 8 325 17 q 318 0 325 0 q 247 3 294 0 q 154 6 194 6 q 71 3 118 6 q 1 0 29 0 q -6 8 -6 0 q 1 17 -6 17 q 67 31 40 17 q 119 83 94 46 q 172 189 143 119 l 465 881 q 474 884 467 883 q 483 881 482 885 l 811 190 q 869 83 844 119 q 916 31 893 46 q 969 17 939 17 m 568 489 l 444 751 l 333 489 l 568 489 m 457 1044 q 472 1051 464 1051 q 489 1044 482 1051 l 631 910 q 632 907 632 910 q 628 901 632 904 q 624 900 625 899 l 474 979 l 322 900 q 315 903 319 899 q 314 910 311 908 l 457 1044 m 589 1126 q 626 1135 613 1126 q 657 1164 639 1144 l 658 1164 q 666 1160 663 1164 q 667 1154 669 1157 q 608 1085 631 1103 q 557 1068 585 1068 q 505 1075 532 1068 q 472 1083 478 1082 q 375 1101 415 1101 q 338 1093 350 1101 q 307 1064 326 1085 l 306 1064 q 298 1067 301 1064 q 297 1074 294 1071 q 351 1134 321 1107 q 415 1161 382 1161 q 485 1146 439 1161 q 524 1135 492 1144 q 589 1126 557 1126 z "},"Ä":{"ha":975,"x_min":-6,"x_max":976,"o":"m 969 17 q 976 8 976 17 q 969 0 976 0 q 889 3 942 0 q 810 6 833 6 q 732 3 779 6 q 663 0 685 0 q 657 8 657 0 q 663 17 657 17 q 738 26 714 17 q 761 60 761 36 q 743 119 761 79 l 582 460 l 321 460 l 201 176 q 182 99 182 129 q 318 17 182 17 q 325 8 325 17 q 318 0 325 0 q 247 3 294 0 q 154 6 194 6 q 71 3 118 6 q 1 0 29 0 q -6 8 -6 0 q 1 17 -6 17 q 67 31 40 17 q 119 83 94 46 q 172 189 143 119 l 465 881 q 474 884 467 883 q 483 881 482 885 l 811 190 q 869 83 844 119 q 916 31 893 46 q 969 17 939 17 m 568 489 l 444 751 l 333 489 l 568 489 m 353 994 q 309 1010 325 994 q 293 1053 293 1025 q 309 1094 293 1079 q 353 1110 325 1110 q 394 1094 379 1110 q 410 1053 410 1079 q 394 1010 410 1025 q 353 994 379 994 m 596 994 q 552 1010 568 994 q 536 1053 536 1026 q 552 1094 536 1079 q 596 1108 568 1108 q 638 1094 622 1108 q 653 1053 653 1079 q 638 1010 653 1025 q 596 994 622 994 z "},"Ạ":{"ha":975,"x_min":-6,"x_max":976,"o":"m 969 17 q 976 8 976 17 q 969 0 976 0 q 889 3 942 0 q 810 6 833 6 q 732 3 779 6 q 663 0 685 0 q 657 8 657 0 q 663 17 657 17 q 738 26 714 17 q 761 60 761 36 q 743 119 761 79 l 582 460 l 321 460 l 201 176 q 182 99 182 129 q 318 17 182 17 q 325 8 325 17 q 318 0 325 0 q 247 3 294 0 q 154 6 194 6 q 71 3 118 6 q 1 0 29 0 q -6 8 -6 0 q 1 17 -6 17 q 67 31 40 17 q 119 83 94 46 q 172 189 143 119 l 465 881 q 474 884 467 883 q 483 881 482 885 l 811 190 q 869 83 844 119 q 916 31 893 46 q 969 17 939 17 m 568 489 l 444 751 l 333 489 l 568 489 m 489 -265 q 444 -249 460 -265 q 428 -204 428 -233 q 444 -162 428 -178 q 489 -147 460 -147 q 532 -162 517 -147 q 547 -204 547 -178 q 532 -249 547 -233 q 489 -265 517 -265 z "},"À":{"ha":975,"x_min":-6,"x_max":976,"o":"m 969 17 q 976 8 976 17 q 969 0 976 0 q 889 3 942 0 q 810 6 833 6 q 732 3 779 6 q 663 0 685 0 q 657 8 657 0 q 663 17 657 17 q 738 26 714 17 q 761 60 761 36 q 743 119 761 79 l 582 460 l 321 460 l 201 176 q 182 99 182 129 q 318 17 182 17 q 325 8 325 17 q 318 0 325 0 q 247 3 294 0 q 154 6 194 6 q 71 3 118 6 q 1 0 29 0 q -6 8 -6 0 q 1 17 -6 17 q 67 31 40 17 q 119 83 94 46 q 172 189 143 119 l 465 881 q 474 884 467 883 q 483 881 482 885 l 811 190 q 869 83 844 119 q 916 31 893 46 q 969 17 939 17 m 568 489 l 444 751 l 333 489 l 568 489 m 611 943 q 460 1003 532 978 q 303 1050 389 1029 q 312 1064 292 1053 q 359 1084 332 1075 q 392 1089 386 1093 q 438 1061 422 1069 q 618 957 554 989 q 621 951 621 954 q 618 944 621 947 q 611 943 615 942 z "},"Ả":{"ha":975,"x_min":-6,"x_max":976,"o":"m 969 17 q 976 8 976 17 q 969 0 976 0 q 889 3 942 0 q 810 6 833 6 q 732 3 779 6 q 663 0 685 0 q 657 8 657 0 q 663 17 657 17 q 738 26 714 17 q 761 60 761 36 q 743 119 761 79 l 582 460 l 321 460 l 201 176 q 182 99 182 129 q 318 17 182 17 q 325 8 325 17 q 318 0 325 0 q 247 3 294 0 q 154 6 194 6 q 71 3 118 6 q 1 0 29 0 q -6 8 -6 0 q 1 17 -6 17 q 67 31 40 17 q 119 83 94 46 q 172 189 143 119 l 465 881 q 474 884 467 883 q 483 881 482 885 l 811 190 q 869 83 844 119 q 916 31 893 46 q 969 17 939 17 m 568 489 l 444 751 l 333 489 l 568 489 m 478 904 q 471 901 479 901 q 461 904 463 901 q 457 933 457 919 q 465 973 457 954 q 488 1014 472 992 q 508 1053 501 1039 q 514 1083 514 1067 q 497 1124 514 1110 q 456 1139 481 1139 q 417 1129 436 1139 l 415 1129 q 407 1134 411 1129 q 407 1142 403 1139 q 497 1169 450 1169 q 563 1149 539 1169 q 586 1097 586 1129 q 572 1053 586 1072 q 529 1004 558 1033 q 489 957 501 974 q 476 918 476 940 q 478 904 476 908 z "},"Ā":{"ha":975,"x_min":-6,"x_max":976,"o":"m 969 17 q 976 8 976 17 q 969 0 976 0 q 889 3 942 0 q 810 6 833 6 q 732 3 779 6 q 663 0 685 0 q 657 8 657 0 q 663 17 657 17 q 738 26 714 17 q 761 60 761 36 q 743 119 761 79 l 582 460 l 321 460 l 201 176 q 182 99 182 129 q 318 17 182 17 q 325 8 325 17 q 318 0 325 0 q 247 3 294 0 q 154 6 194 6 q 71 3 118 6 q 1 0 29 0 q -6 8 -6 0 q 1 17 -6 17 q 67 31 40 17 q 119 83 94 46 q 172 189 143 119 l 465 881 q 474 884 467 883 q 483 881 482 885 l 811 190 q 869 83 844 119 q 916 31 893 46 q 969 17 939 17 m 568 489 l 444 751 l 333 489 l 568 489 m 299 1003 q 290 1022 290 1003 q 299 1042 290 1042 l 647 1042 q 657 1022 657 1042 q 647 1003 657 1003 l 299 1003 z "},"Ą":{"ha":978,"x_min":-6,"x_max":976,"o":"m 969 13 q 976 5 976 13 q 969 -3 976 -3 q 894 0 939 -3 l 838 1 q 710 -49 763 1 q 658 -179 658 -100 q 697 -294 658 -247 q 811 -340 736 -340 q 888 -322 854 -340 l 890 -321 q 897 -326 894 -321 q 897 -333 900 -331 q 751 -382 832 -382 q 625 -342 671 -382 q 579 -232 579 -301 q 606 -135 579 -175 q 682 -49 632 -96 q 738 13 719 -12 q 756 68 756 38 q 743 117 756 90 l 579 460 l 321 460 l 201 176 q 182 99 182 129 q 318 17 182 17 q 325 8 325 17 q 318 0 325 0 q 247 3 294 0 q 154 6 194 6 q 71 3 118 6 q 1 0 29 0 q -6 8 -6 0 q 1 17 -6 17 q 67 31 40 17 q 119 83 94 46 q 172 189 143 119 l 465 881 q 474 884 467 883 q 483 881 482 885 l 811 188 q 892 50 857 88 q 969 13 926 13 m 565 489 l 442 749 l 333 489 l 565 489 z "},"Å":{"ha":975,"x_min":-6,"x_max":976,"o":"m 969 17 q 976 8 976 17 q 969 0 976 0 q 889 3 942 0 q 810 6 833 6 q 732 3 779 6 q 663 0 685 0 q 657 8 657 0 q 663 17 657 17 q 738 26 714 17 q 761 60 761 36 q 743 119 761 79 l 582 460 l 321 460 l 201 176 q 182 99 182 129 q 318 17 182 17 q 325 8 325 17 q 318 0 325 0 q 247 3 294 0 q 154 6 194 6 q 71 3 118 6 q 1 0 29 0 q -6 8 -6 0 q 1 17 -6 17 q 67 31 40 17 q 119 83 94 46 q 172 189 143 119 l 465 881 q 474 884 467 883 q 483 881 482 885 l 811 190 q 869 83 844 119 q 916 31 893 46 q 969 17 939 17 m 568 489 l 444 751 l 333 489 l 568 489 m 467 922 q 378 956 411 922 q 344 1033 344 989 q 387 1112 344 1083 q 481 1140 429 1140 q 566 1108 531 1140 q 601 1029 601 1076 q 560 951 601 981 q 467 922 519 922 m 488 938 q 526 953 514 938 q 539 1006 539 969 q 514 1090 539 1054 q 453 1126 489 1126 q 418 1110 429 1126 q 407 1061 407 1094 q 429 976 407 1014 q 488 938 451 938 z "},"Ǻ":{"ha":975,"x_min":-6,"x_max":976,"o":"m 969 17 q 976 8 976 17 q 969 0 976 0 q 889 3 942 0 q 810 6 833 6 q 732 3 779 6 q 663 0 685 0 q 657 8 657 0 q 663 17 657 17 q 738 26 714 17 q 761 60 761 36 q 743 119 761 79 l 582 460 l 321 460 l 201 176 q 182 99 182 129 q 318 17 182 17 q 325 8 325 17 q 318 0 325 0 q 247 3 294 0 q 154 6 194 6 q 71 3 118 6 q 1 0 29 0 q -6 8 -6 0 q 1 17 -6 17 q 67 31 40 17 q 119 83 94 46 q 172 189 143 119 l 465 881 q 474 884 467 883 q 483 881 482 885 l 811 190 q 869 83 844 119 q 916 31 893 46 q 969 17 939 17 m 568 489 l 444 751 l 333 489 l 568 489 m 346 1129 q 338 1135 340 1129 q 340 1144 336 1142 q 474 1211 413 1179 l 529 1240 q 560 1233 535 1243 q 603 1211 585 1224 q 613 1197 622 1199 q 347 1129 486 1174 l 346 1129 m 464 938 q 378 965 410 938 q 346 1032 346 993 q 387 1099 346 1074 q 478 1124 428 1124 q 564 1096 528 1124 q 600 1029 600 1068 q 558 963 600 988 q 464 938 517 938 m 486 953 q 524 965 513 953 q 536 1004 536 978 q 511 1078 536 1047 q 451 1108 486 1108 q 404 1060 404 1108 q 426 985 404 1018 q 486 953 449 953 z "},"Ã":{"ha":975,"x_min":-6,"x_max":976,"o":"m 969 17 q 976 8 976 17 q 969 0 976 0 q 889 3 942 0 q 810 6 833 6 q 732 3 779 6 q 663 0 685 0 q 657 8 657 0 q 663 17 657 17 q 738 26 714 17 q 761 60 761 36 q 743 119 761 79 l 582 460 l 321 460 l 201 176 q 182 99 182 129 q 318 17 182 17 q 325 8 325 17 q 318 0 325 0 q 247 3 294 0 q 154 6 194 6 q 71 3 118 6 q 1 0 29 0 q -6 8 -6 0 q 1 17 -6 17 q 67 31 40 17 q 119 83 94 46 q 172 189 143 119 l 465 881 q 474 884 467 883 q 483 881 482 885 l 811 190 q 869 83 844 119 q 916 31 893 46 q 969 17 939 17 m 568 489 l 444 751 l 333 489 l 568 489 m 582 1031 q 619 1040 606 1031 q 650 1068 633 1050 l 651 1068 q 659 1065 656 1068 q 661 1058 663 1061 q 601 990 624 1007 q 550 972 578 972 q 498 979 525 972 q 465 988 471 986 q 368 1006 408 1006 q 331 997 343 1006 q 300 968 319 989 l 299 968 q 292 972 296 968 q 290 978 289 975 q 345 1038 314 1011 q 408 1065 376 1065 q 478 1050 432 1065 q 517 1040 485 1049 q 582 1031 550 1031 z "},"Æ":{"ha":1215,"x_min":-4,"x_max":1146,"o":"m 1129 207 q 1135 210 1129 210 q 1142 208 1139 210 q 1146 204 1146 207 q 1132 21 1132 107 q 1128 5 1132 10 q 1111 0 1124 0 l 544 0 q 540 8 540 0 q 544 17 540 17 q 622 24 597 17 q 654 51 646 31 q 663 113 663 71 l 663 438 l 424 438 l 244 175 q 203 76 203 115 q 310 17 203 17 q 317 8 317 17 q 310 0 317 0 q 236 3 283 0 q 140 6 181 6 q 65 3 107 6 q 3 0 26 0 q -4 8 -4 0 q 3 17 -4 17 q 100 60 46 17 q 208 183 154 104 l 631 797 q 647 832 647 821 q 624 848 647 844 q 540 851 601 851 q 538 860 538 851 q 540 868 538 868 l 1088 868 q 1100 856 1100 868 l 1103 683 q 1095 681 1103 681 q 1088 683 1088 681 q 1042 794 1085 749 q 938 839 1000 839 l 863 839 q 791 832 814 839 q 759 808 768 825 q 750 754 750 790 l 750 465 l 907 465 q 1003 488 974 465 q 1032 564 1032 511 q 1040 567 1032 567 q 1047 564 1047 567 l 1046 451 l 1047 389 q 1050 324 1050 347 q 1042 319 1050 319 q 1033 324 1033 319 q 1003 411 1033 385 q 903 438 974 438 l 750 438 l 750 118 q 759 62 750 81 q 791 36 768 43 q 860 29 814 29 l 961 29 q 1068 79 1021 29 q 1129 207 1115 129 m 663 465 l 663 788 l 443 465 l 663 465 z "},"Ǽ":{"ha":1215,"x_min":-4,"x_max":1146,"o":"m 1129 207 q 1135 210 1129 210 q 1142 208 1139 210 q 1146 204 1146 207 q 1132 21 1132 107 q 1128 5 1132 10 q 1111 0 1124 0 l 544 0 q 540 8 540 0 q 544 17 540 17 q 622 24 597 17 q 654 51 646 31 q 663 113 663 71 l 663 438 l 424 438 l 244 175 q 203 76 203 115 q 310 17 203 17 q 317 8 317 17 q 310 0 317 0 q 236 3 283 0 q 140 6 181 6 q 65 3 107 6 q 3 0 26 0 q -4 8 -4 0 q 3 17 -4 17 q 100 60 46 17 q 208 183 154 104 l 631 797 q 647 832 647 821 q 624 848 647 844 q 540 851 601 851 q 538 860 538 851 q 540 868 538 868 l 1088 868 q 1100 856 1100 868 l 1103 683 q 1095 681 1103 681 q 1088 683 1088 681 q 1042 794 1085 749 q 938 839 1000 839 l 863 839 q 791 832 814 839 q 759 808 768 825 q 750 754 750 790 l 750 465 l 907 465 q 1003 488 974 465 q 1032 564 1032 511 q 1040 567 1032 567 q 1047 564 1047 567 l 1046 451 l 1047 389 q 1050 324 1050 347 q 1042 319 1050 319 q 1033 324 1033 319 q 1003 411 1033 385 q 903 438 974 438 l 750 438 l 750 118 q 759 62 750 81 q 791 36 768 43 q 860 29 814 29 l 961 29 q 1068 79 1021 29 q 1129 207 1115 129 m 663 465 l 663 788 l 443 465 l 663 465 m 667 942 q 660 948 661 942 q 663 957 658 954 q 814 1044 714 982 q 889 1089 864 1075 q 922 1084 894 1093 q 969 1064 949 1075 q 978 1050 989 1053 q 820 1003 892 1029 q 669 943 749 978 l 667 942 z "},"Ǣ":{"ha":1215,"x_min":-4,"x_max":1146,"o":"m 1129 207 q 1135 210 1129 210 q 1142 208 1139 210 q 1146 204 1146 207 q 1132 21 1132 107 q 1128 5 1132 10 q 1111 0 1124 0 l 544 0 q 540 8 540 0 q 544 17 540 17 q 622 24 597 17 q 654 51 646 31 q 663 113 663 71 l 663 438 l 424 438 l 244 175 q 203 76 203 115 q 310 17 203 17 q 317 8 317 17 q 310 0 317 0 q 236 3 283 0 q 140 6 181 6 q 65 3 107 6 q 3 0 26 0 q -4 8 -4 0 q 3 17 -4 17 q 100 60 46 17 q 208 183 154 104 l 631 797 q 647 832 647 821 q 624 848 647 844 q 540 851 601 851 q 538 860 538 851 q 540 868 538 868 l 1088 868 q 1100 856 1100 868 l 1103 683 q 1095 681 1103 681 q 1088 683 1088 681 q 1042 794 1085 749 q 938 839 1000 839 l 863 839 q 791 832 814 839 q 759 808 768 825 q 750 754 750 790 l 750 465 l 907 465 q 1003 488 974 465 q 1032 564 1032 511 q 1040 567 1032 567 q 1047 564 1047 567 l 1046 451 l 1047 389 q 1050 324 1050 347 q 1042 319 1050 319 q 1033 324 1033 319 q 1003 411 1033 385 q 903 438 974 438 l 750 438 l 750 118 q 759 62 750 81 q 791 36 768 43 q 860 29 814 29 l 961 29 q 1068 79 1021 29 q 1129 207 1115 129 m 663 465 l 663 788 l 443 465 l 663 465 m 629 1003 q 621 1022 621 1003 q 629 1042 621 1042 l 978 1042 q 988 1022 988 1042 q 978 1003 988 1003 l 629 1003 z "},"B":{"ha":775,"x_min":57,"x_max":706,"o":"m 461 489 q 639 416 572 481 q 706 256 706 351 q 669 122 706 182 q 570 28 633 63 q 429 -6 507 -6 q 331 -1 383 -6 q 285 1 311 0 q 225 3 258 3 l 131 1 q 61 0 106 0 q 57 8 57 0 q 61 17 57 17 q 138 24 113 17 q 172 51 163 31 q 181 113 181 71 l 181 756 q 172 817 181 797 q 138 844 163 836 q 63 851 114 851 q 58 860 58 851 q 63 868 58 868 l 131 867 q 225 864 189 864 q 272 865 250 864 q 310 868 293 867 q 389 872 351 872 q 563 822 506 872 q 621 689 621 771 q 578 570 621 622 q 461 489 535 518 m 358 851 q 305 845 322 851 q 279 819 288 839 q 271 753 271 799 l 271 489 l 333 488 q 483 540 435 488 q 531 678 531 592 q 489 804 531 757 q 358 851 447 851 m 408 19 q 608 222 608 19 q 547 392 608 328 q 376 458 485 457 q 271 457 343 460 l 271 113 q 281 57 271 76 q 321 28 292 38 q 408 19 350 19 z "},"C":{"ha":929,"x_min":68,"x_max":869,"o":"m 576 883 q 711 871 643 883 q 819 835 779 858 q 835 823 832 828 q 839 803 838 818 l 856 646 q 849 642 856 643 q 840 644 842 640 q 726 802 810 751 q 522 853 643 853 q 338 806 417 853 q 215 675 258 760 q 172 479 172 590 q 226 240 172 350 q 370 67 279 131 q 567 3 461 3 q 740 58 667 3 q 853 226 814 113 q 860 229 853 229 q 869 225 869 229 l 849 68 q 843 46 846 51 q 828 36 840 40 q 564 -17 703 -17 q 285 51 397 -17 q 121 222 174 118 q 68 442 68 326 q 139 670 68 569 q 327 827 210 771 q 576 883 444 883 z "},"Ć":{"ha":929,"x_min":68,"x_max":869,"o":"m 576 883 q 711 871 643 883 q 819 835 779 858 q 835 823 832 828 q 839 803 838 818 l 856 646 q 849 642 856 643 q 840 644 842 640 q 726 802 810 751 q 522 853 643 853 q 338 806 417 853 q 215 675 258 760 q 172 479 172 590 q 226 240 172 350 q 370 67 279 131 q 567 3 461 3 q 740 58 667 3 q 853 226 814 113 q 860 229 853 229 q 869 225 869 229 l 849 68 q 843 46 846 51 q 828 36 840 40 q 564 -17 703 -17 q 285 51 397 -17 q 121 222 174 118 q 68 442 68 326 q 139 670 68 569 q 327 827 210 771 q 576 883 444 883 m 389 942 q 382 948 383 942 q 385 957 381 954 q 536 1044 436 982 q 611 1089 586 1075 q 644 1084 617 1093 q 691 1064 671 1075 q 700 1050 711 1053 q 542 1003 614 1029 q 392 943 471 978 l 389 942 z "},"Č":{"ha":929,"x_min":68,"x_max":869,"o":"m 576 883 q 711 871 643 883 q 819 835 779 858 q 835 823 832 828 q 839 803 838 818 l 856 646 q 849 642 856 643 q 840 644 842 640 q 726 802 810 751 q 522 853 643 853 q 338 806 417 853 q 215 675 258 760 q 172 479 172 590 q 226 240 172 350 q 370 67 279 131 q 567 3 461 3 q 740 58 667 3 q 853 226 814 113 q 860 229 853 229 q 869 225 869 229 l 849 68 q 843 46 846 51 q 828 36 840 40 q 564 -17 703 -17 q 285 51 397 -17 q 121 222 174 118 q 68 442 68 326 q 139 670 68 569 q 327 827 210 771 q 576 883 444 883 m 367 1089 q 365 1090 365 1089 q 365 1090 365 1090 q 369 1097 365 1093 q 375 1099 372 1100 l 526 1019 l 676 1099 l 678 1099 q 684 1095 682 1099 q 683 1089 686 1092 l 542 954 q 526 949 536 949 q 510 954 515 949 l 367 1089 z "},"Ç":{"ha":929,"x_min":68,"x_max":869,"o":"m 853 226 q 860 229 853 229 q 869 225 869 229 l 849 68 q 843 46 846 51 q 828 36 840 40 q 564 -17 703 -17 l 538 -17 q 522 -81 522 -62 q 534 -109 522 -99 q 582 -142 546 -119 q 638 -187 618 -162 q 658 -249 658 -211 q 622 -341 658 -300 q 514 -382 585 -382 q 450 -368 475 -382 q 425 -328 425 -354 q 438 -299 425 -311 q 467 -287 450 -287 q 490 -295 482 -287 q 507 -318 499 -303 q 527 -345 517 -336 q 558 -354 538 -354 q 592 -341 579 -354 q 604 -303 604 -328 q 578 -237 604 -267 q 486 -172 553 -208 q 467 -154 467 -162 q 474 -131 467 -149 q 517 -15 492 -85 q 265 63 365 -6 q 116 233 164 132 q 68 442 68 333 q 139 670 68 569 q 327 827 210 771 q 576 883 444 883 q 711 871 643 883 q 819 835 779 858 q 835 823 832 828 q 839 803 838 818 l 856 646 q 849 642 856 643 q 840 644 842 640 q 726 802 810 751 q 522 853 643 853 q 338 806 417 853 q 215 675 258 760 q 172 479 172 590 q 226 240 172 350 q 370 67 279 131 q 567 3 461 3 q 740 58 667 3 q 853 226 814 113 z "},"Ĉ":{"ha":929,"x_min":68,"x_max":869,"o":"m 576 883 q 711 871 643 883 q 819 835 779 858 q 835 823 832 828 q 839 803 838 818 l 856 646 q 849 642 856 643 q 840 644 842 640 q 726 802 810 751 q 522 853 643 853 q 338 806 417 853 q 215 675 258 760 q 172 479 172 590 q 226 240 172 350 q 370 67 279 131 q 567 3 461 3 q 740 58 667 3 q 853 226 814 113 q 860 229 853 229 q 869 225 869 229 l 849 68 q 843 46 846 51 q 828 36 840 40 q 564 -17 703 -17 q 285 51 397 -17 q 121 222 174 118 q 68 442 68 326 q 139 670 68 569 q 327 827 210 771 q 576 883 444 883 m 511 1097 q 528 1104 518 1104 q 543 1097 536 1104 l 685 963 q 685 956 689 961 q 678 953 681 950 l 528 1032 l 376 953 q 369 956 374 951 q 368 963 365 961 l 511 1097 z "},"Ċ":{"ha":929,"x_min":68,"x_max":869,"o":"m 576 883 q 711 871 643 883 q 819 835 779 858 q 835 823 832 828 q 839 803 838 818 l 856 646 q 849 642 856 643 q 840 644 842 640 q 726 802 810 751 q 522 853 643 853 q 338 806 417 853 q 215 675 258 760 q 172 479 172 590 q 226 240 172 350 q 370 67 279 131 q 567 3 461 3 q 740 58 667 3 q 853 226 814 113 q 860 229 853 229 q 869 225 869 229 l 849 68 q 843 46 846 51 q 828 36 840 40 q 564 -17 703 -17 q 285 51 397 -17 q 121 222 174 118 q 68 442 68 326 q 139 670 68 569 q 327 827 210 771 q 576 883 444 883 m 528 990 q 483 1006 499 990 q 467 1051 467 1022 q 483 1093 467 1078 q 528 1108 499 1108 q 571 1093 556 1108 q 586 1051 586 1078 q 571 1006 586 1022 q 528 990 556 990 z "},"D":{"ha":960,"x_min":46,"x_max":892,"o":"m 421 -6 q 326 -1 379 -6 q 277 1 306 0 q 213 3 249 3 l 118 1 q 49 0 93 0 q 46 8 46 0 q 49 17 46 17 q 126 24 101 17 q 160 51 151 31 q 169 113 169 71 l 169 756 q 160 817 169 797 q 127 844 151 836 q 50 851 103 851 q 47 860 47 851 q 50 868 47 868 l 119 867 q 213 864 178 864 q 317 868 265 864 q 401 871 378 871 q 658 815 546 871 q 831 664 769 760 q 892 449 892 568 q 828 210 892 314 q 657 51 765 107 q 421 -6 549 -6 m 407 15 q 603 62 518 15 q 738 199 689 108 q 786 418 786 290 q 740 638 786 539 q 610 793 694 736 q 414 850 526 850 q 321 843 353 850 q 274 815 289 836 q 258 753 258 794 l 258 128 q 289 41 258 67 q 407 15 319 15 z "},"Ð":{"ha":960,"x_min":46,"x_max":892,"o":"m 401 871 q 658 815 546 871 q 831 664 769 760 q 892 449 892 568 q 828 210 892 314 q 657 51 765 107 q 421 -6 549 -6 q 326 -1 379 -6 q 277 1 306 0 q 213 3 249 3 l 118 1 q 49 0 93 0 q 46 8 46 0 q 49 17 46 17 q 126 24 101 17 q 160 51 151 31 q 169 113 169 71 l 169 418 l 74 418 q 68 432 68 418 q 74 446 68 446 l 169 446 l 169 756 q 160 817 169 797 q 127 844 151 836 q 50 851 103 851 q 47 860 47 851 q 50 868 47 868 l 119 867 q 213 864 178 864 q 317 868 265 864 q 401 871 378 871 m 407 15 q 603 62 518 15 q 738 199 689 108 q 786 418 786 290 q 740 638 786 539 q 610 793 694 736 q 414 850 526 850 q 321 843 353 850 q 274 815 289 836 q 258 753 258 794 l 258 446 l 447 446 q 452 442 450 446 q 454 432 454 438 q 452 422 454 426 q 447 418 450 418 l 258 418 l 258 128 q 289 41 258 67 q 407 15 319 15 z "},"Ď":{"ha":960,"x_min":46,"x_max":892,"o":"m 421 -6 q 326 -1 379 -6 q 277 1 306 0 q 213 3 249 3 l 118 1 q 49 0 93 0 q 46 8 46 0 q 49 17 46 17 q 126 24 101 17 q 160 51 151 31 q 169 113 169 71 l 169 756 q 160 817 169 797 q 127 844 151 836 q 50 851 103 851 q 47 860 47 851 q 50 868 47 868 l 119 867 q 213 864 178 864 q 317 868 265 864 q 401 871 378 871 q 658 815 546 871 q 831 664 769 760 q 892 449 892 568 q 828 210 892 314 q 657 51 765 107 q 421 -6 549 -6 m 407 15 q 603 62 518 15 q 738 199 689 108 q 786 418 786 290 q 740 638 786 539 q 610 793 694 736 q 414 850 526 850 q 321 843 353 850 q 274 815 289 836 q 258 753 258 794 l 258 128 q 289 41 258 67 q 407 15 319 15 m 282 1089 q 281 1090 281 1089 q 281 1090 281 1090 q 284 1097 281 1093 q 290 1099 288 1100 l 442 1019 l 592 1099 l 593 1099 q 599 1095 597 1099 q 599 1089 601 1092 l 457 954 q 442 949 451 949 q 425 954 431 949 l 282 1089 z "},"Đ":{"ha":960,"x_min":46,"x_max":892,"o":"m 401 871 q 658 815 546 871 q 831 664 769 760 q 892 449 892 568 q 828 210 892 314 q 657 51 765 107 q 421 -6 549 -6 q 326 -1 379 -6 q 277 1 306 0 q 213 3 249 3 l 118 1 q 49 0 93 0 q 46 8 46 0 q 49 17 46 17 q 126 24 101 17 q 160 51 151 31 q 169 113 169 71 l 169 418 l 74 418 q 68 432 68 418 q 74 446 68 446 l 169 446 l 169 756 q 160 817 169 797 q 127 844 151 836 q 50 851 103 851 q 47 860 47 851 q 50 868 47 868 l 119 867 q 213 864 178 864 q 317 868 265 864 q 401 871 378 871 m 407 15 q 603 62 518 15 q 738 199 689 108 q 786 418 786 290 q 740 638 786 539 q 610 793 694 736 q 414 850 526 850 q 321 843 353 850 q 274 815 289 836 q 258 753 258 794 l 258 446 l 447 446 q 452 442 450 446 q 454 432 454 438 q 452 422 454 426 q 447 418 450 418 l 258 418 l 258 128 q 289 41 258 67 q 407 15 319 15 z "},"Ḍ":{"ha":960,"x_min":46,"x_max":892,"o":"m 421 -6 q 326 -1 379 -6 q 277 1 306 0 q 213 3 249 3 l 118 1 q 49 0 93 0 q 46 8 46 0 q 49 17 46 17 q 126 24 101 17 q 160 51 151 31 q 169 113 169 71 l 169 756 q 160 817 169 797 q 127 844 151 836 q 50 851 103 851 q 47 860 47 851 q 50 868 47 868 l 119 867 q 213 864 178 864 q 317 868 265 864 q 401 871 378 871 q 658 815 546 871 q 831 664 769 760 q 892 449 892 568 q 828 210 892 314 q 657 51 765 107 q 421 -6 549 -6 m 407 15 q 603 62 518 15 q 738 199 689 108 q 786 418 786 290 q 740 638 786 539 q 610 793 694 736 q 414 850 526 850 q 321 843 353 850 q 274 815 289 836 q 258 753 258 794 l 258 128 q 289 41 258 67 q 407 15 319 15 m 451 -265 q 406 -249 422 -265 q 390 -204 390 -233 q 406 -162 390 -178 q 451 -147 422 -147 q 494 -162 479 -147 q 510 -204 510 -178 q 494 -249 510 -233 q 451 -265 479 -265 z "},"Ḏ":{"ha":960,"x_min":46,"x_max":892,"o":"m 421 -6 q 326 -1 379 -6 q 277 1 306 0 q 213 3 249 3 l 118 1 q 49 0 93 0 q 46 8 46 0 q 49 17 46 17 q 126 24 101 17 q 160 51 151 31 q 169 113 169 71 l 169 756 q 160 817 169 797 q 127 844 151 836 q 50 851 103 851 q 47 860 47 851 q 50 868 47 868 l 119 867 q 213 864 178 864 q 317 868 265 864 q 401 871 378 871 q 658 815 546 871 q 831 664 769 760 q 892 449 892 568 q 828 210 892 314 q 657 51 765 107 q 421 -6 549 -6 m 407 15 q 603 62 518 15 q 738 199 689 108 q 786 418 786 290 q 740 638 786 539 q 610 793 694 736 q 414 850 526 850 q 321 843 353 850 q 274 815 289 836 q 258 753 258 794 l 258 128 q 289 41 258 67 q 407 15 319 15 m 275 -157 q 267 -137 267 -157 q 275 -118 267 -118 l 624 -118 q 631 -124 628 -118 q 633 -137 633 -131 q 631 -151 633 -144 q 624 -157 628 -157 l 275 -157 z "},"E":{"ha":746,"x_min":57,"x_max":676,"o":"m 660 207 q 667 210 660 210 q 673 208 669 210 q 676 204 676 206 q 664 21 664 117 q 659 5 664 10 q 643 0 654 0 l 61 0 q 57 8 57 0 q 61 17 57 17 q 138 24 114 17 q 171 51 163 31 q 179 113 179 71 l 179 756 q 171 817 179 797 q 138 844 163 836 q 61 851 114 851 q 57 860 57 851 q 61 868 57 868 l 618 868 q 631 856 631 868 l 635 683 q 626 681 635 681 q 618 683 618 681 q 572 798 613 757 q 465 839 532 839 l 381 839 q 310 832 333 839 q 278 806 286 825 q 269 749 269 788 l 269 465 l 439 465 q 534 488 506 465 q 563 564 563 511 q 571 567 563 567 q 579 564 579 567 l 578 451 q 579 389 578 410 l 581 324 q 572 319 581 319 q 564 324 564 319 q 534 411 564 385 q 435 438 504 438 l 269 438 l 269 118 q 278 62 269 81 q 309 36 286 43 q 378 29 332 29 l 489 29 q 599 76 554 29 q 660 207 644 124 z "},"É":{"ha":746,"x_min":57,"x_max":676,"o":"m 660 207 q 667 210 660 210 q 673 208 669 210 q 676 204 676 206 q 664 21 664 117 q 659 5 664 10 q 643 0 654 0 l 61 0 q 57 8 57 0 q 61 17 57 17 q 138 24 114 17 q 171 51 163 31 q 179 113 179 71 l 179 756 q 171 817 179 797 q 138 844 163 836 q 61 851 114 851 q 57 860 57 851 q 61 868 57 868 l 618 868 q 631 856 631 868 l 635 683 q 626 681 635 681 q 618 683 618 681 q 572 798 613 757 q 465 839 532 839 l 381 839 q 310 832 333 839 q 278 806 286 825 q 269 749 269 788 l 269 465 l 439 465 q 534 488 506 465 q 563 564 563 511 q 571 567 563 567 q 579 564 579 567 l 578 451 q 579 389 578 410 l 581 324 q 572 319 581 319 q 564 324 564 319 q 534 411 564 385 q 435 438 504 438 l 269 438 l 269 118 q 278 62 269 81 q 309 36 286 43 q 378 29 332 29 l 489 29 q 599 76 554 29 q 660 207 644 124 m 268 942 q 261 948 263 942 q 264 957 260 954 q 415 1044 315 982 q 490 1089 465 1075 q 523 1084 496 1093 q 570 1064 550 1075 q 579 1050 590 1053 q 422 1003 493 1029 q 271 943 350 978 l 268 942 z "},"Ĕ":{"ha":746,"x_min":57,"x_max":676,"o":"m 660 207 q 667 210 660 210 q 673 208 669 210 q 676 204 676 206 q 664 21 664 117 q 659 5 664 10 q 643 0 654 0 l 61 0 q 57 8 57 0 q 61 17 57 17 q 138 24 114 17 q 171 51 163 31 q 179 113 179 71 l 179 756 q 171 817 179 797 q 138 844 163 836 q 61 851 114 851 q 57 860 57 851 q 61 868 57 868 l 618 868 q 631 856 631 868 l 635 683 q 626 681 635 681 q 618 683 618 681 q 572 798 613 757 q 465 839 532 839 l 381 839 q 310 832 333 839 q 278 806 286 825 q 269 749 269 788 l 269 465 l 439 465 q 534 488 506 465 q 563 564 563 511 q 571 567 563 567 q 579 564 579 567 l 578 451 q 579 389 578 410 l 581 324 q 572 319 581 319 q 564 324 564 319 q 534 411 564 385 q 435 438 504 438 l 269 438 l 269 118 q 278 62 269 81 q 309 36 286 43 q 378 29 332 29 l 489 29 q 599 76 554 29 q 660 207 644 124 m 406 958 q 309 997 346 958 q 263 1107 272 1035 q 269 1113 261 1113 q 278 1110 276 1114 q 324 1045 288 1072 q 406 1018 361 1018 q 485 1045 449 1018 q 532 1110 522 1072 q 541 1113 533 1114 q 547 1107 549 1113 q 501 997 536 1035 q 406 958 465 958 z "},"Ě":{"ha":746,"x_min":57,"x_max":676,"o":"m 660 207 q 667 210 660 210 q 673 208 669 210 q 676 204 676 206 q 664 21 664 117 q 659 5 664 10 q 643 0 654 0 l 61 0 q 57 8 57 0 q 61 17 57 17 q 138 24 114 17 q 171 51 163 31 q 179 113 179 71 l 179 756 q 171 817 179 797 q 138 844 163 836 q 61 851 114 851 q 57 860 57 851 q 61 868 57 868 l 618 868 q 631 856 631 868 l 635 683 q 626 681 635 681 q 618 683 618 681 q 572 798 613 757 q 465 839 532 839 l 381 839 q 310 832 333 839 q 278 806 286 825 q 269 749 269 788 l 269 465 l 439 465 q 534 488 506 465 q 563 564 563 511 q 571 567 563 567 q 579 564 579 567 l 578 451 q 579 389 578 410 l 581 324 q 572 319 581 319 q 564 324 564 319 q 534 411 564 385 q 435 438 504 438 l 269 438 l 269 118 q 278 62 269 81 q 309 36 286 43 q 378 29 332 29 l 489 29 q 599 76 554 29 q 660 207 644 124 m 246 1089 q 244 1090 244 1089 q 244 1090 244 1090 q 248 1097 244 1093 q 254 1099 251 1100 l 406 1019 l 556 1099 l 557 1099 q 563 1095 561 1099 q 563 1089 565 1092 l 421 954 q 406 949 415 949 q 389 954 394 949 l 246 1089 z "},"Ê":{"ha":746,"x_min":57,"x_max":676,"o":"m 660 207 q 667 210 660 210 q 673 208 669 210 q 676 204 676 206 q 664 21 664 117 q 659 5 664 10 q 643 0 654 0 l 61 0 q 57 8 57 0 q 61 17 57 17 q 138 24 114 17 q 171 51 163 31 q 179 113 179 71 l 179 756 q 171 817 179 797 q 138 844 163 836 q 61 851 114 851 q 57 860 57 851 q 61 868 57 868 l 618 868 q 631 856 631 868 l 635 683 q 626 681 635 681 q 618 683 618 681 q 572 798 613 757 q 465 839 532 839 l 381 839 q 310 832 333 839 q 278 806 286 825 q 269 749 269 788 l 269 465 l 439 465 q 534 488 506 465 q 563 564 563 511 q 571 567 563 567 q 579 564 579 567 l 578 451 q 579 389 578 410 l 581 324 q 572 319 581 319 q 564 324 564 319 q 534 411 564 385 q 435 438 504 438 l 269 438 l 269 118 q 278 62 269 81 q 309 36 286 43 q 378 29 332 29 l 489 29 q 599 76 554 29 q 660 207 644 124 m 390 1097 q 407 1104 397 1104 q 422 1097 415 1104 l 564 963 q 564 956 568 961 q 557 953 560 950 l 407 1032 l 256 953 q 249 956 253 951 q 247 963 244 961 l 390 1097 z "},"Ế":{"ha":746,"x_min":57,"x_max":688,"o":"m 660 207 q 667 210 660 210 q 673 208 669 210 q 676 204 676 206 q 664 21 664 117 q 659 5 664 10 q 643 0 654 0 l 61 0 q 57 8 57 0 q 61 17 57 17 q 138 24 114 17 q 171 51 163 31 q 179 113 179 71 l 179 756 q 171 817 179 797 q 138 844 163 836 q 61 851 114 851 q 57 860 57 851 q 61 868 57 868 l 618 868 q 631 856 631 868 l 635 683 q 626 681 635 681 q 618 683 618 681 q 572 798 613 757 q 465 839 532 839 l 381 839 q 310 832 333 839 q 278 806 286 825 q 269 749 269 788 l 269 465 l 439 465 q 534 488 506 465 q 563 564 563 511 q 571 567 563 567 q 579 564 579 567 l 578 451 q 579 389 578 410 l 581 324 q 572 319 581 319 q 564 324 564 319 q 534 411 564 385 q 435 438 504 438 l 269 438 l 269 118 q 278 62 269 81 q 309 36 286 43 q 378 29 332 29 l 489 29 q 599 76 554 29 q 660 207 644 124 m 389 1044 q 404 1051 396 1051 q 421 1044 414 1051 l 563 910 q 564 907 564 910 q 560 901 564 904 q 556 900 557 899 l 406 979 l 254 900 q 247 903 251 899 q 246 910 243 908 l 389 1044 m 494 1004 q 488 1009 490 1004 q 489 1017 486 1014 q 594 1151 549 1086 q 626 1148 599 1157 q 674 1127 653 1139 q 685 1113 694 1115 q 499 1006 594 1076 l 494 1004 z "},"Ệ":{"ha":746,"x_min":57,"x_max":676,"o":"m 660 207 q 667 210 660 210 q 673 208 669 210 q 676 204 676 206 q 664 21 664 117 q 659 5 664 10 q 643 0 654 0 l 61 0 q 57 8 57 0 q 61 17 57 17 q 138 24 114 17 q 171 51 163 31 q 179 113 179 71 l 179 756 q 171 817 179 797 q 138 844 163 836 q 61 851 114 851 q 57 860 57 851 q 61 868 57 868 l 618 868 q 631 856 631 868 l 635 683 q 626 681 635 681 q 618 683 618 681 q 572 798 613 757 q 465 839 532 839 l 381 839 q 310 832 333 839 q 278 806 286 825 q 269 749 269 788 l 269 465 l 439 465 q 534 488 506 465 q 563 564 563 511 q 571 567 563 567 q 579 564 579 567 l 578 451 q 579 389 578 410 l 581 324 q 572 319 581 319 q 564 324 564 319 q 534 411 564 385 q 435 438 504 438 l 269 438 l 269 118 q 278 62 269 81 q 309 36 286 43 q 378 29 332 29 l 489 29 q 599 76 554 29 q 660 207 644 124 m 400 -265 q 355 -249 371 -265 q 339 -204 339 -233 q 355 -162 339 -178 q 400 -147 371 -147 q 443 -162 428 -147 q 458 -204 458 -178 q 443 -249 458 -233 q 400 -265 428 -265 m 389 1044 q 404 1051 396 1051 q 421 1044 414 1051 l 563 910 q 564 907 564 910 q 560 901 564 904 q 556 900 557 899 l 406 979 l 254 900 q 247 903 251 899 q 246 910 243 908 l 389 1044 z "},"Ề":{"ha":746,"x_min":57,"x_max":676,"o":"m 660 207 q 667 210 660 210 q 673 208 669 210 q 676 204 676 206 q 664 21 664 117 q 659 5 664 10 q 643 0 654 0 l 61 0 q 57 8 57 0 q 61 17 57 17 q 138 24 114 17 q 171 51 163 31 q 179 113 179 71 l 179 756 q 171 817 179 797 q 138 844 163 836 q 61 851 114 851 q 57 860 57 851 q 61 868 57 868 l 618 868 q 631 856 631 868 l 635 683 q 626 681 635 681 q 618 683 618 681 q 572 798 613 757 q 465 839 532 839 l 381 839 q 310 832 333 839 q 278 806 286 825 q 269 749 269 788 l 269 465 l 439 465 q 534 488 506 465 q 563 564 563 511 q 571 567 563 567 q 579 564 579 567 l 578 451 q 579 389 578 410 l 581 324 q 572 319 581 319 q 564 324 564 319 q 534 411 564 385 q 435 438 504 438 l 269 438 l 269 118 q 278 62 269 81 q 309 36 286 43 q 378 29 332 29 l 489 29 q 599 76 554 29 q 660 207 644 124 m 389 1044 q 404 1051 396 1051 q 421 1044 414 1051 l 563 910 q 564 907 564 910 q 560 901 564 904 q 556 900 557 899 l 406 979 l 254 900 q 247 903 251 899 q 246 910 243 908 l 389 1044 m 638 975 q 454 1082 546 1042 q 464 1097 443 1085 q 512 1117 485 1108 q 543 1121 539 1126 q 649 988 596 1043 q 650 983 650 986 q 647 976 650 979 q 638 975 643 974 z "},"Ể":{"ha":746,"x_min":57,"x_max":676,"o":"m 660 207 q 667 210 660 210 q 673 208 669 210 q 676 204 676 206 q 664 21 664 117 q 659 5 664 10 q 643 0 654 0 l 61 0 q 57 8 57 0 q 61 17 57 17 q 138 24 114 17 q 171 51 163 31 q 179 113 179 71 l 179 756 q 171 817 179 797 q 138 844 163 836 q 61 851 114 851 q 57 860 57 851 q 61 868 57 868 l 618 868 q 631 856 631 868 l 635 683 q 626 681 635 681 q 618 683 618 681 q 572 798 613 757 q 465 839 532 839 l 381 839 q 310 832 333 839 q 278 806 286 825 q 269 749 269 788 l 269 465 l 439 465 q 534 488 506 465 q 563 564 563 511 q 571 567 563 567 q 579 564 579 567 l 578 451 q 579 389 578 410 l 581 324 q 572 319 581 319 q 564 324 564 319 q 534 411 564 385 q 435 438 504 438 l 269 438 l 269 118 q 278 62 269 81 q 309 36 286 43 q 378 29 332 29 l 489 29 q 599 76 554 29 q 660 207 644 124 m 389 1044 q 404 1051 396 1051 q 421 1044 414 1051 l 563 910 q 564 907 564 910 q 560 901 564 904 q 556 900 557 899 l 406 979 l 254 900 q 247 903 251 899 q 246 910 243 908 l 389 1044 m 518 1004 q 515 1022 515 1011 q 535 1074 515 1040 q 551 1103 546 1090 q 556 1128 556 1115 q 540 1160 556 1149 q 507 1171 525 1171 q 475 1164 492 1171 l 474 1164 q 465 1169 469 1164 q 465 1175 461 1174 q 509 1194 486 1188 q 549 1201 532 1201 q 597 1183 579 1201 q 615 1142 615 1165 q 604 1107 615 1122 q 571 1069 593 1092 q 539 1035 549 1049 q 533 1004 529 1021 q 527 1001 535 1001 q 518 1004 519 1001 z "},"Ễ":{"ha":746,"x_min":57,"x_max":676,"o":"m 660 207 q 667 210 660 210 q 673 208 669 210 q 676 204 676 206 q 664 21 664 117 q 659 5 664 10 q 643 0 654 0 l 61 0 q 57 8 57 0 q 61 17 57 17 q 138 24 114 17 q 171 51 163 31 q 179 113 179 71 l 179 756 q 171 817 179 797 q 138 844 163 836 q 61 851 114 851 q 57 860 57 851 q 61 868 57 868 l 618 868 q 631 856 631 868 l 635 683 q 626 681 635 681 q 618 683 618 681 q 572 798 613 757 q 465 839 532 839 l 381 839 q 310 832 333 839 q 278 806 286 825 q 269 749 269 788 l 269 465 l 439 465 q 534 488 506 465 q 563 564 563 511 q 571 567 563 567 q 579 564 579 567 l 578 451 q 579 389 578 410 l 581 324 q 572 319 581 319 q 564 324 564 319 q 534 411 564 385 q 435 438 504 438 l 269 438 l 269 118 q 278 62 269 81 q 309 36 286 43 q 378 29 332 29 l 489 29 q 599 76 554 29 q 660 207 644 124 m 389 1044 q 404 1051 396 1051 q 421 1044 414 1051 l 563 910 q 564 907 564 910 q 560 901 564 904 q 556 900 557 899 l 406 979 l 254 900 q 247 903 251 899 q 246 910 243 908 l 389 1044 m 521 1126 q 558 1135 544 1126 q 589 1164 571 1144 l 590 1164 q 598 1160 594 1164 q 599 1154 601 1157 q 540 1085 563 1103 q 489 1068 517 1068 q 437 1075 464 1068 q 404 1083 410 1082 q 307 1101 347 1101 q 270 1093 282 1101 q 239 1064 258 1085 l 238 1064 q 230 1067 233 1064 q 229 1074 226 1071 q 283 1134 253 1107 q 347 1161 314 1161 q 417 1146 371 1161 q 456 1135 424 1144 q 521 1126 489 1126 z "},"Ë":{"ha":746,"x_min":57,"x_max":676,"o":"m 660 207 q 667 210 660 210 q 673 208 669 210 q 676 204 676 206 q 664 21 664 117 q 659 5 664 10 q 643 0 654 0 l 61 0 q 57 8 57 0 q 61 17 57 17 q 138 24 114 17 q 171 51 163 31 q 179 113 179 71 l 179 756 q 171 817 179 797 q 138 844 163 836 q 61 851 114 851 q 57 860 57 851 q 61 868 57 868 l 618 868 q 631 856 631 868 l 635 683 q 626 681 635 681 q 618 683 618 681 q 572 798 613 757 q 465 839 532 839 l 381 839 q 310 832 333 839 q 278 806 286 825 q 269 749 269 788 l 269 465 l 439 465 q 534 488 506 465 q 563 564 563 511 q 571 567 563 567 q 579 564 579 567 l 578 451 q 579 389 578 410 l 581 324 q 572 319 581 319 q 564 324 564 319 q 534 411 564 385 q 435 438 504 438 l 269 438 l 269 118 q 278 62 269 81 q 309 36 286 43 q 378 29 332 29 l 489 29 q 599 76 554 29 q 660 207 644 124 m 285 994 q 241 1010 257 994 q 225 1053 225 1025 q 241 1094 225 1079 q 285 1110 257 1110 q 326 1094 311 1110 q 342 1053 342 1079 q 326 1010 342 1025 q 285 994 311 994 m 528 994 q 484 1010 500 994 q 468 1053 468 1026 q 484 1094 468 1079 q 528 1108 500 1108 q 569 1094 554 1108 q 585 1053 585 1079 q 569 1010 585 1025 q 528 994 554 994 z "},"Ė":{"ha":746,"x_min":57,"x_max":676,"o":"m 660 207 q 667 210 660 210 q 673 208 669 210 q 676 204 676 206 q 664 21 664 117 q 659 5 664 10 q 643 0 654 0 l 61 0 q 57 8 57 0 q 61 17 57 17 q 138 24 114 17 q 171 51 163 31 q 179 113 179 71 l 179 756 q 171 817 179 797 q 138 844 163 836 q 61 851 114 851 q 57 860 57 851 q 61 868 57 868 l 618 868 q 631 856 631 868 l 635 683 q 626 681 635 681 q 618 683 618 681 q 572 798 613 757 q 465 839 532 839 l 381 839 q 310 832 333 839 q 278 806 286 825 q 269 749 269 788 l 269 465 l 439 465 q 534 488 506 465 q 563 564 563 511 q 571 567 563 567 q 579 564 579 567 l 578 451 q 579 389 578 410 l 581 324 q 572 319 581 319 q 564 324 564 319 q 534 411 564 385 q 435 438 504 438 l 269 438 l 269 118 q 278 62 269 81 q 309 36 286 43 q 378 29 332 29 l 489 29 q 599 76 554 29 q 660 207 644 124 m 407 990 q 362 1006 378 990 q 346 1051 346 1022 q 362 1093 346 1078 q 407 1108 378 1108 q 450 1093 435 1108 q 465 1051 465 1078 q 450 1006 465 1022 q 407 990 435 990 z "},"Ẹ":{"ha":746,"x_min":57,"x_max":676,"o":"m 660 207 q 667 210 660 210 q 673 208 669 210 q 676 204 676 206 q 664 21 664 117 q 659 5 664 10 q 643 0 654 0 l 61 0 q 57 8 57 0 q 61 17 57 17 q 138 24 114 17 q 171 51 163 31 q 179 113 179 71 l 179 756 q 171 817 179 797 q 138 844 163 836 q 61 851 114 851 q 57 860 57 851 q 61 868 57 868 l 618 868 q 631 856 631 868 l 635 683 q 626 681 635 681 q 618 683 618 681 q 572 798 613 757 q 465 839 532 839 l 381 839 q 310 832 333 839 q 278 806 286 825 q 269 749 269 788 l 269 465 l 439 465 q 534 488 506 465 q 563 564 563 511 q 571 567 563 567 q 579 564 579 567 l 578 451 q 579 389 578 410 l 581 324 q 572 319 581 319 q 564 324 564 319 q 534 411 564 385 q 435 438 504 438 l 269 438 l 269 118 q 278 62 269 81 q 309 36 286 43 q 378 29 332 29 l 489 29 q 599 76 554 29 q 660 207 644 124 m 400 -265 q 355 -249 371 -265 q 339 -204 339 -233 q 355 -162 339 -178 q 400 -147 371 -147 q 443 -162 428 -147 q 458 -204 458 -178 q 443 -249 458 -233 q 400 -265 428 -265 z "},"È":{"ha":746,"x_min":57,"x_max":676,"o":"m 660 207 q 667 210 660 210 q 673 208 669 210 q 676 204 676 206 q 664 21 664 117 q 659 5 664 10 q 643 0 654 0 l 61 0 q 57 8 57 0 q 61 17 57 17 q 138 24 114 17 q 171 51 163 31 q 179 113 179 71 l 179 756 q 171 817 179 797 q 138 844 163 836 q 61 851 114 851 q 57 860 57 851 q 61 868 57 868 l 618 868 q 631 856 631 868 l 635 683 q 626 681 635 681 q 618 683 618 681 q 572 798 613 757 q 465 839 532 839 l 381 839 q 310 832 333 839 q 278 806 286 825 q 269 749 269 788 l 269 465 l 439 465 q 534 488 506 465 q 563 564 563 511 q 571 567 563 567 q 579 564 579 567 l 578 451 q 579 389 578 410 l 581 324 q 572 319 581 319 q 564 324 564 319 q 534 411 564 385 q 435 438 504 438 l 269 438 l 269 118 q 278 62 269 81 q 309 36 286 43 q 378 29 332 29 l 489 29 q 599 76 554 29 q 660 207 644 124 m 543 943 q 392 1003 464 978 q 235 1050 321 1029 q 244 1064 224 1053 q 291 1084 264 1075 q 324 1089 318 1093 q 369 1061 354 1069 q 550 957 486 989 q 553 951 553 954 q 550 944 553 947 q 543 943 547 942 z "},"Ẻ":{"ha":746,"x_min":57,"x_max":676,"o":"m 660 207 q 667 210 660 210 q 673 208 669 210 q 676 204 676 206 q 664 21 664 117 q 659 5 664 10 q 643 0 654 0 l 61 0 q 57 8 57 0 q 61 17 57 17 q 138 24 114 17 q 171 51 163 31 q 179 113 179 71 l 179 756 q 171 817 179 797 q 138 844 163 836 q 61 851 114 851 q 57 860 57 851 q 61 868 57 868 l 618 868 q 631 856 631 868 l 635 683 q 626 681 635 681 q 618 683 618 681 q 572 798 613 757 q 465 839 532 839 l 381 839 q 310 832 333 839 q 278 806 286 825 q 269 749 269 788 l 269 465 l 439 465 q 534 488 506 465 q 563 564 563 511 q 571 567 563 567 q 579 564 579 567 l 578 451 q 579 389 578 410 l 581 324 q 572 319 581 319 q 564 324 564 319 q 534 411 564 385 q 435 438 504 438 l 269 438 l 269 118 q 278 62 269 81 q 309 36 286 43 q 378 29 332 29 l 489 29 q 599 76 554 29 q 660 207 644 124 m 410 904 q 403 901 411 901 q 393 904 394 901 q 389 933 389 919 q 397 973 389 954 q 419 1014 404 992 q 440 1053 433 1039 q 446 1083 446 1067 q 429 1124 446 1110 q 388 1139 413 1139 q 349 1129 368 1139 l 347 1129 q 339 1134 343 1129 q 339 1142 335 1139 q 429 1169 382 1169 q 494 1149 471 1169 q 518 1097 518 1129 q 504 1053 518 1072 q 461 1004 490 1033 q 421 957 433 974 q 408 918 408 940 q 410 904 408 908 z "},"Ē":{"ha":746,"x_min":57,"x_max":676,"o":"m 660 207 q 667 210 660 210 q 673 208 669 210 q 676 204 676 206 q 664 21 664 117 q 659 5 664 10 q 643 0 654 0 l 61 0 q 57 8 57 0 q 61 17 57 17 q 138 24 114 17 q 171 51 163 31 q 179 113 179 71 l 179 756 q 171 817 179 797 q 138 844 163 836 q 61 851 114 851 q 57 860 57 851 q 61 868 57 868 l 618 868 q 631 856 631 868 l 635 683 q 626 681 635 681 q 618 683 618 681 q 572 798 613 757 q 465 839 532 839 l 381 839 q 310 832 333 839 q 278 806 286 825 q 269 749 269 788 l 269 465 l 439 465 q 534 488 506 465 q 563 564 563 511 q 571 567 563 567 q 579 564 579 567 l 578 451 q 579 389 578 410 l 581 324 q 572 319 581 319 q 564 324 564 319 q 534 411 564 385 q 435 438 504 438 l 269 438 l 269 118 q 278 62 269 81 q 309 36 286 43 q 378 29 332 29 l 489 29 q 599 76 554 29 q 660 207 644 124 m 231 1003 q 222 1022 222 1003 q 231 1042 222 1042 l 579 1042 q 589 1022 589 1042 q 579 1003 589 1003 l 231 1003 z "},"Ę":{"ha":746,"x_min":57,"x_max":701,"o":"m 660 207 q 667 210 660 210 q 673 208 669 210 q 676 204 676 206 q 664 21 664 117 q 659 5 664 10 q 643 0 654 0 l 61 0 q 57 8 57 0 q 61 17 57 17 q 138 24 114 17 q 171 51 163 31 q 179 113 179 71 l 179 756 q 171 817 179 797 q 138 844 163 836 q 61 851 114 851 q 57 860 57 851 q 61 868 57 868 l 618 868 q 631 856 631 868 l 635 683 q 626 681 635 681 q 618 683 618 681 q 572 798 613 757 q 465 839 532 839 l 381 839 q 310 832 333 839 q 278 806 286 825 q 269 749 269 788 l 269 465 l 439 465 q 534 488 506 465 q 563 564 563 511 q 571 567 563 567 q 579 564 579 567 l 578 451 q 579 389 578 410 l 581 324 q 572 319 581 319 q 564 324 564 319 q 534 411 564 385 q 435 438 504 438 l 269 438 l 269 118 q 278 62 269 81 q 309 36 286 43 q 378 29 332 29 l 489 29 q 599 76 554 29 q 660 207 644 124 m 578 1 q 496 -97 521 -50 q 471 -199 471 -144 q 504 -302 471 -264 q 600 -340 538 -340 q 650 -332 629 -340 q 690 -308 671 -324 l 693 -308 q 701 -312 697 -308 q 700 -319 704 -317 q 550 -382 629 -382 q 434 -344 475 -382 q 393 -244 393 -307 q 561 8 393 -122 l 578 1 z "},"Ẽ":{"ha":746,"x_min":57,"x_max":676,"o":"m 660 207 q 667 210 660 210 q 673 208 669 210 q 676 204 676 206 q 664 21 664 117 q 659 5 664 10 q 643 0 654 0 l 61 0 q 57 8 57 0 q 61 17 57 17 q 138 24 114 17 q 171 51 163 31 q 179 113 179 71 l 179 756 q 171 817 179 797 q 138 844 163 836 q 61 851 114 851 q 57 860 57 851 q 61 868 57 868 l 618 868 q 631 856 631 868 l 635 683 q 626 681 635 681 q 618 683 618 681 q 572 798 613 757 q 465 839 532 839 l 381 839 q 310 832 333 839 q 278 806 286 825 q 269 749 269 788 l 269 465 l 439 465 q 534 488 506 465 q 563 564 563 511 q 571 567 563 567 q 579 564 579 567 l 578 451 q 579 389 578 410 l 581 324 q 572 319 581 319 q 564 324 564 319 q 534 411 564 385 q 435 438 504 438 l 269 438 l 269 118 q 278 62 269 81 q 309 36 286 43 q 378 29 332 29 l 489 29 q 599 76 554 29 q 660 207 644 124 m 514 1031 q 551 1040 538 1031 q 582 1068 565 1050 l 583 1068 q 591 1065 588 1068 q 593 1058 594 1061 q 533 990 556 1007 q 482 972 510 972 q 430 979 457 972 q 397 988 403 986 q 300 1006 340 1006 q 263 997 275 1006 q 232 968 251 989 l 231 968 q 224 972 228 968 q 222 978 221 975 q 277 1038 246 1011 q 340 1065 308 1065 q 410 1050 364 1065 q 449 1040 417 1049 q 514 1031 482 1031 z "},"F":{"ha":708,"x_min":56,"x_max":635,"o":"m 635 683 q 626 681 635 681 q 618 683 618 681 q 572 798 613 757 q 465 839 532 839 l 381 839 q 311 832 335 839 q 278 807 288 825 q 269 754 269 789 l 269 450 l 410 450 q 515 473 483 450 q 547 547 547 496 q 555 551 547 551 q 563 547 563 551 l 561 435 q 563 374 561 394 l 564 307 q 556 303 564 303 q 549 307 549 303 q 515 394 549 368 q 406 421 482 421 l 269 421 l 269 118 q 281 53 269 74 q 328 25 293 33 q 438 17 363 17 q 440 8 440 17 q 438 0 440 0 q 349 1 381 0 l 224 3 l 129 1 q 58 0 104 0 q 56 8 56 0 q 58 17 56 17 q 136 24 111 17 q 170 51 161 31 q 179 113 179 71 l 179 756 q 171 817 179 797 q 138 844 163 836 q 61 851 114 851 q 57 860 57 851 q 61 868 57 868 l 618 868 q 631 856 631 868 l 635 683 z "},"G":{"ha":993,"x_min":68,"x_max":942,"o":"m 563 -17 q 299 42 411 -17 q 128 201 188 100 q 68 425 68 301 q 137 663 68 558 q 326 826 206 768 q 597 883 446 883 q 726 870 664 883 q 828 833 789 857 q 840 823 838 828 q 844 812 843 818 q 844 803 844 806 l 861 646 q 853 642 861 643 q 844 644 846 640 q 734 799 814 744 q 538 853 654 853 q 267 751 363 853 q 171 474 171 650 q 226 233 171 339 q 378 67 281 126 q 596 7 475 7 q 706 19 667 7 q 763 68 744 32 q 781 175 781 104 q 772 276 781 247 q 731 314 763 304 q 624 324 700 324 q 615 335 615 324 q 617 342 615 339 q 622 346 619 346 q 797 339 731 339 q 935 343 863 339 q 941 333 940 343 q 935 324 942 324 q 886 315 900 325 q 868 272 872 304 q 864 161 864 240 q 869 72 864 99 q 874 39 874 46 q 871 28 874 31 q 858 22 868 25 q 563 -17 693 -17 z "},"Ğ":{"ha":993,"x_min":68,"x_max":942,"o":"m 563 -17 q 299 42 411 -17 q 128 201 188 100 q 68 425 68 301 q 137 663 68 558 q 326 826 206 768 q 597 883 446 883 q 726 870 664 883 q 828 833 789 857 q 840 823 838 828 q 844 812 843 818 q 844 803 844 806 l 861 646 q 853 642 861 643 q 844 644 846 640 q 734 799 814 744 q 538 853 654 853 q 267 751 363 853 q 171 474 171 650 q 226 233 171 339 q 378 67 281 126 q 596 7 475 7 q 706 19 667 7 q 763 68 744 32 q 781 175 781 104 q 772 276 781 247 q 731 314 763 304 q 624 324 700 324 q 615 335 615 324 q 617 342 615 339 q 622 346 619 346 q 797 339 731 339 q 935 343 863 339 q 941 333 940 343 q 935 324 942 324 q 886 315 900 325 q 868 272 872 304 q 864 161 864 240 q 869 72 864 99 q 874 39 874 46 q 871 28 874 31 q 858 22 868 25 q 563 -17 693 -17 m 547 958 q 451 997 488 958 q 404 1107 414 1035 q 410 1113 403 1113 q 419 1110 418 1114 q 466 1045 429 1072 q 547 1018 503 1018 q 627 1045 590 1018 q 674 1110 664 1072 q 683 1113 675 1114 q 689 1107 690 1113 q 642 997 678 1035 q 547 958 607 958 z "},"Ǧ":{"ha":993,"x_min":68,"x_max":942,"o":"m 563 -17 q 299 42 411 -17 q 128 201 188 100 q 68 425 68 301 q 137 663 68 558 q 326 826 206 768 q 597 883 446 883 q 726 870 664 883 q 828 833 789 857 q 840 823 838 828 q 844 812 843 818 q 844 803 844 806 l 861 646 q 853 642 861 643 q 844 644 846 640 q 734 799 814 744 q 538 853 654 853 q 267 751 363 853 q 171 474 171 650 q 226 233 171 339 q 378 67 281 126 q 596 7 475 7 q 706 19 667 7 q 763 68 744 32 q 781 175 781 104 q 772 276 781 247 q 731 314 763 304 q 624 324 700 324 q 615 335 615 324 q 617 342 615 339 q 622 346 619 346 q 797 339 731 339 q 935 343 863 339 q 941 333 940 343 q 935 324 942 324 q 886 315 900 325 q 868 272 872 304 q 864 161 864 240 q 869 72 864 99 q 874 39 874 46 q 871 28 874 31 q 858 22 868 25 q 563 -17 693 -17 m 388 1089 q 386 1090 386 1089 q 386 1090 386 1090 q 390 1097 386 1093 q 396 1099 393 1100 l 547 1019 l 697 1099 l 699 1099 q 705 1095 703 1099 q 704 1089 707 1092 l 563 954 q 547 949 557 949 q 531 954 536 949 l 388 1089 z "},"Ĝ":{"ha":993,"x_min":68,"x_max":942,"o":"m 563 -17 q 299 42 411 -17 q 128 201 188 100 q 68 425 68 301 q 137 663 68 558 q 326 826 206 768 q 597 883 446 883 q 726 870 664 883 q 828 833 789 857 q 840 823 838 828 q 844 812 843 818 q 844 803 844 806 l 861 646 q 853 642 861 643 q 844 644 846 640 q 734 799 814 744 q 538 853 654 853 q 267 751 363 853 q 171 474 171 650 q 226 233 171 339 q 378 67 281 126 q 596 7 475 7 q 706 19 667 7 q 763 68 744 32 q 781 175 781 104 q 772 276 781 247 q 731 314 763 304 q 624 324 700 324 q 615 335 615 324 q 617 342 615 339 q 622 346 619 346 q 797 339 731 339 q 935 343 863 339 q 941 333 940 343 q 935 324 942 324 q 886 315 900 325 q 868 272 872 304 q 864 161 864 240 q 869 72 864 99 q 874 39 874 46 q 871 28 874 31 q 858 22 868 25 q 563 -17 693 -17 m 532 1097 q 549 1104 539 1104 q 564 1097 557 1104 l 706 963 q 706 956 710 961 q 699 953 701 950 l 549 1032 l 397 953 q 390 956 394 951 q 389 963 386 961 l 532 1097 z "},"Ģ":{"ha":993,"x_min":68,"x_max":942,"o":"m 563 -17 q 299 42 411 -17 q 128 201 188 100 q 68 425 68 301 q 137 663 68 558 q 326 826 206 768 q 597 883 446 883 q 726 870 664 883 q 828 833 789 857 q 840 823 838 828 q 844 812 843 818 q 844 803 844 806 l 861 646 q 853 642 861 643 q 844 644 846 640 q 734 799 814 744 q 538 853 654 853 q 267 751 363 853 q 171 474 171 650 q 226 233 171 339 q 378 67 281 126 q 596 7 475 7 q 706 19 667 7 q 763 68 744 32 q 781 175 781 104 q 772 276 781 247 q 731 314 763 304 q 624 324 700 324 q 615 335 615 324 q 617 342 615 339 q 622 346 619 346 q 797 339 731 339 q 935 343 863 339 q 941 333 940 343 q 935 324 942 324 q 886 315 900 325 q 868 272 872 304 q 864 161 864 240 q 869 72 864 99 q 874 39 874 46 q 871 28 874 31 q 858 22 868 25 q 563 -17 693 -17 m 572 -118 q 630 -144 610 -118 q 650 -219 650 -171 q 628 -305 650 -265 q 565 -382 607 -344 q 561 -383 564 -383 q 554 -378 557 -383 q 554 -371 551 -374 q 615 -247 615 -315 q 607 -207 615 -219 q 565 -228 596 -228 q 526 -213 540 -228 q 511 -174 511 -199 q 572 -118 511 -118 z "},"Ġ":{"ha":993,"x_min":68,"x_max":942,"o":"m 563 -17 q 299 42 411 -17 q 128 201 188 100 q 68 425 68 301 q 137 663 68 558 q 326 826 206 768 q 597 883 446 883 q 726 870 664 883 q 828 833 789 857 q 840 823 838 828 q 844 812 843 818 q 844 803 844 806 l 861 646 q 853 642 861 643 q 844 644 846 640 q 734 799 814 744 q 538 853 654 853 q 267 751 363 853 q 171 474 171 650 q 226 233 171 339 q 378 67 281 126 q 596 7 475 7 q 706 19 667 7 q 763 68 744 32 q 781 175 781 104 q 772 276 781 247 q 731 314 763 304 q 624 324 700 324 q 615 335 615 324 q 617 342 615 339 q 622 346 619 346 q 797 339 731 339 q 935 343 863 339 q 941 333 940 343 q 935 324 942 324 q 886 315 900 325 q 868 272 872 304 q 864 161 864 240 q 869 72 864 99 q 874 39 874 46 q 871 28 874 31 q 858 22 868 25 q 563 -17 693 -17 m 549 990 q 503 1006 519 990 q 488 1051 488 1022 q 503 1093 488 1078 q 549 1108 519 1108 q 592 1093 576 1108 q 607 1051 607 1078 q 592 1006 607 1022 q 549 990 576 990 z "},"Ḡ":{"ha":993,"x_min":68,"x_max":942,"o":"m 563 -17 q 299 42 411 -17 q 128 201 188 100 q 68 425 68 301 q 137 663 68 558 q 326 826 206 768 q 597 883 446 883 q 726 870 664 883 q 828 833 789 857 q 840 823 838 828 q 844 812 843 818 q 844 803 844 806 l 861 646 q 853 642 861 643 q 844 644 846 640 q 734 799 814 744 q 538 853 654 853 q 267 751 363 853 q 171 474 171 650 q 226 233 171 339 q 378 67 281 126 q 596 7 475 7 q 706 19 667 7 q 763 68 744 32 q 781 175 781 104 q 772 276 781 247 q 731 314 763 304 q 624 324 700 324 q 615 335 615 324 q 617 342 615 339 q 622 346 619 346 q 797 339 731 339 q 935 343 863 339 q 941 333 940 343 q 935 324 942 324 q 886 315 900 325 q 868 272 872 304 q 864 161 864 240 q 869 72 864 99 q 874 39 874 46 q 871 28 874 31 q 858 22 868 25 q 563 -17 693 -17 m 372 1003 q 364 1022 364 1003 q 372 1042 364 1042 l 721 1042 q 728 1035 725 1042 q 731 1022 731 1029 q 728 1009 731 1015 q 721 1003 725 1003 l 372 1003 z "},"H":{"ha":1054,"x_min":46,"x_max":1007,"o":"m 1004 17 q 1007 8 1007 17 q 1004 0 1007 0 q 935 1 960 0 l 838 3 l 738 1 q 671 0 713 0 q 667 8 667 0 q 671 17 667 17 q 750 24 725 17 q 784 51 775 31 q 793 113 793 71 l 793 438 l 260 438 l 260 113 q 269 51 260 71 q 303 24 278 31 q 382 17 328 17 q 386 8 386 17 q 382 0 386 0 q 314 1 339 0 l 214 3 l 118 1 q 49 0 92 0 q 46 8 46 0 q 49 17 46 17 q 127 24 101 17 q 162 51 153 31 q 171 113 171 71 l 171 756 q 162 817 171 797 q 128 844 153 836 q 50 851 103 851 q 47 860 47 851 q 50 868 47 868 l 119 867 q 214 864 178 864 q 315 867 254 864 l 382 868 q 386 860 386 868 q 382 851 386 851 q 303 843 329 851 q 269 815 278 835 q 260 753 260 794 l 260 465 l 793 465 l 793 753 q 784 815 793 794 q 750 843 775 835 q 671 851 725 851 q 667 860 667 851 q 671 868 667 868 l 738 867 q 838 864 799 864 q 935 867 874 864 l 1004 868 q 1007 860 1007 868 q 1004 851 1007 851 q 926 844 951 851 q 891 817 900 836 q 882 756 882 797 l 882 113 q 891 51 882 71 q 926 24 900 31 q 1004 17 951 17 z "},"Ħ":{"ha":1054,"x_min":46,"x_max":1007,"o":"m 1004 17 q 1007 8 1007 17 q 1004 0 1007 0 q 935 1 960 0 l 838 3 l 738 1 q 671 0 713 0 q 667 8 667 0 q 671 17 667 17 q 750 24 725 17 q 784 51 775 31 q 793 113 793 71 l 793 307 l 260 307 l 260 113 q 269 51 260 71 q 303 24 278 31 q 382 17 328 17 q 386 8 386 17 q 382 0 386 0 q 314 1 339 0 l 214 3 l 118 1 q 49 0 92 0 q 46 8 46 0 q 49 17 46 17 q 127 24 101 17 q 162 51 153 31 q 171 113 171 71 l 171 756 q 162 817 171 797 q 128 844 153 836 q 50 851 103 851 q 47 860 47 851 q 50 868 47 868 l 119 867 q 214 864 178 864 q 315 867 254 864 l 382 868 q 386 860 386 868 q 382 851 386 851 q 303 843 329 851 q 269 815 278 835 q 260 753 260 794 l 260 596 l 793 596 l 793 753 q 784 815 793 794 q 750 843 775 835 q 671 851 725 851 q 667 860 667 851 q 671 868 667 868 l 738 867 q 838 864 799 864 q 935 867 874 864 l 1004 868 q 1007 860 1007 868 q 1004 851 1007 851 q 926 844 951 851 q 891 817 900 836 q 882 756 882 797 l 882 113 q 891 51 882 71 q 926 24 900 31 q 1004 17 951 17 m 793 336 l 793 567 l 260 567 l 260 336 l 793 336 z "},"Ḫ":{"ha":1054,"x_min":46,"x_max":1007,"o":"m 1004 17 q 1007 8 1007 17 q 1004 0 1007 0 q 935 1 960 0 l 838 3 l 738 1 q 671 0 713 0 q 667 8 667 0 q 671 17 667 17 q 750 24 725 17 q 784 51 775 31 q 793 113 793 71 l 793 438 l 260 438 l 260 113 q 269 51 260 71 q 303 24 278 31 q 382 17 328 17 q 386 8 386 17 q 382 0 386 0 q 314 1 339 0 l 214 3 l 118 1 q 49 0 92 0 q 46 8 46 0 q 49 17 46 17 q 127 24 101 17 q 162 51 153 31 q 171 113 171 71 l 171 756 q 162 817 171 797 q 128 844 153 836 q 50 851 103 851 q 47 860 47 851 q 50 868 47 868 l 119 867 q 214 864 178 864 q 315 867 254 864 l 382 868 q 386 860 386 868 q 382 851 386 851 q 303 843 329 851 q 269 815 278 835 q 260 753 260 794 l 260 465 l 793 465 l 793 753 q 784 815 793 794 q 750 843 775 835 q 671 851 725 851 q 667 860 667 851 q 671 868 667 868 l 738 867 q 838 864 799 864 q 935 867 874 864 l 1004 868 q 1007 860 1007 868 q 1004 851 1007 851 q 926 844 951 851 q 891 817 900 836 q 882 756 882 797 l 882 113 q 891 51 882 71 q 926 24 900 31 q 1004 17 951 17 m 385 -108 q 392 -103 385 -104 q 400 -106 400 -103 q 436 -208 400 -167 q 528 -249 472 -249 q 617 -207 581 -249 q 654 -106 654 -165 q 660 -103 654 -103 q 666 -105 663 -103 q 669 -108 669 -107 q 633 -265 669 -211 q 528 -319 597 -319 q 422 -265 458 -319 q 385 -108 385 -211 z "},"Ĥ":{"ha":1054,"x_min":46,"x_max":1007,"o":"m 1004 17 q 1007 8 1007 17 q 1004 0 1007 0 q 935 1 960 0 l 838 3 l 738 1 q 671 0 713 0 q 667 8 667 0 q 671 17 667 17 q 750 24 725 17 q 784 51 775 31 q 793 113 793 71 l 793 438 l 260 438 l 260 113 q 269 51 260 71 q 303 24 278 31 q 382 17 328 17 q 386 8 386 17 q 382 0 386 0 q 314 1 339 0 l 214 3 l 118 1 q 49 0 92 0 q 46 8 46 0 q 49 17 46 17 q 127 24 101 17 q 162 51 153 31 q 171 113 171 71 l 171 756 q 162 817 171 797 q 128 844 153 836 q 50 851 103 851 q 47 860 47 851 q 50 868 47 868 l 119 867 q 214 864 178 864 q 315 867 254 864 l 382 868 q 386 860 386 868 q 382 851 386 851 q 303 843 329 851 q 269 815 278 835 q 260 753 260 794 l 260 465 l 793 465 l 793 753 q 784 815 793 794 q 750 843 775 835 q 671 851 725 851 q 667 860 667 851 q 671 868 667 868 l 738 867 q 838 864 799 864 q 935 867 874 864 l 1004 868 q 1007 860 1007 868 q 1004 851 1007 851 q 926 844 951 851 q 891 817 900 836 q 882 756 882 797 l 882 113 q 891 51 882 71 q 926 24 900 31 q 1004 17 951 17 m 513 1097 q 529 1104 519 1104 q 544 1097 538 1104 l 686 963 q 686 956 690 961 q 679 953 682 950 l 529 1032 l 378 953 q 371 956 375 951 q 369 963 367 961 l 513 1097 z "},"Ḥ":{"ha":1054,"x_min":46,"x_max":1007,"o":"m 1004 17 q 1007 8 1007 17 q 1004 0 1007 0 q 935 1 960 0 l 838 3 l 738 1 q 671 0 713 0 q 667 8 667 0 q 671 17 667 17 q 750 24 725 17 q 784 51 775 31 q 793 113 793 71 l 793 438 l 260 438 l 260 113 q 269 51 260 71 q 303 24 278 31 q 382 17 328 17 q 386 8 386 17 q 382 0 386 0 q 314 1 339 0 l 214 3 l 118 1 q 49 0 92 0 q 46 8 46 0 q 49 17 46 17 q 127 24 101 17 q 162 51 153 31 q 171 113 171 71 l 171 756 q 162 817 171 797 q 128 844 153 836 q 50 851 103 851 q 47 860 47 851 q 50 868 47 868 l 119 867 q 214 864 178 864 q 315 867 254 864 l 382 868 q 386 860 386 868 q 382 851 386 851 q 303 843 329 851 q 269 815 278 835 q 260 753 260 794 l 260 465 l 793 465 l 793 753 q 784 815 793 794 q 750 843 775 835 q 671 851 725 851 q 667 860 667 851 q 671 868 667 868 l 738 867 q 838 864 799 864 q 935 867 874 864 l 1004 868 q 1007 860 1007 868 q 1004 851 1007 851 q 926 844 951 851 q 891 817 900 836 q 882 756 882 797 l 882 113 q 891 51 882 71 q 926 24 900 31 q 1004 17 951 17 m 529 -265 q 484 -249 500 -265 q 468 -204 468 -233 q 484 -162 468 -178 q 529 -147 500 -147 q 572 -162 557 -147 q 588 -204 588 -178 q 572 -249 588 -233 q 529 -265 557 -265 z "},"I":{"ha":461,"x_min":61,"x_max":399,"o":"m 276 113 q 285 50 276 69 q 317 24 293 31 q 394 17 342 17 q 399 8 399 17 q 394 0 399 0 q 328 1 353 0 l 229 3 l 135 1 q 65 0 110 0 q 61 8 61 0 q 65 17 61 17 q 142 24 118 17 q 176 51 167 31 q 185 113 185 71 l 185 756 q 176 817 185 797 q 142 844 167 836 q 65 851 118 851 q 61 860 61 851 q 65 868 61 868 l 135 867 q 229 864 193 864 q 329 867 271 864 l 394 868 q 399 860 399 868 q 394 851 399 851 q 318 843 343 851 q 285 815 293 835 q 276 753 276 794 l 276 113 z "},"Ĳ":{"ha":958,"x_min":56,"x_max":915,"o":"m 269 486 q 278 424 269 443 q 310 397 286 404 q 389 390 335 390 q 392 382 392 390 q 389 374 392 374 q 321 375 346 374 l 222 376 l 128 375 q 58 374 103 374 q 56 382 56 374 q 58 390 56 390 q 136 397 111 390 q 170 424 161 404 q 179 486 179 444 l 179 756 q 170 817 179 797 q 136 844 161 836 q 58 851 111 851 q 56 860 56 851 q 58 868 56 868 l 128 867 q 222 864 186 864 q 322 867 261 864 l 389 868 q 392 860 392 868 q 389 851 392 851 q 312 843 336 851 q 278 815 288 835 q 269 753 269 794 l 269 486 m 911 868 q 915 860 915 868 q 911 851 915 851 q 846 843 867 851 q 817 815 825 835 q 810 753 810 794 l 810 358 q 767 154 810 239 q 649 26 725 69 q 475 -18 574 -18 q 318 13 389 -18 q 206 92 247 44 q 165 186 165 140 q 178 224 165 210 q 213 239 190 239 q 255 219 243 239 q 278 157 267 200 q 303 79 289 110 q 358 26 318 49 q 469 4 397 4 q 657 76 596 4 q 718 278 718 147 l 718 756 q 708 817 718 797 q 669 844 697 836 q 582 851 642 851 q 578 860 578 851 q 582 868 578 868 l 661 867 q 763 864 725 864 q 851 867 799 864 l 911 868 z "},"Í":{"ha":461,"x_min":61,"x_max":408,"o":"m 276 113 q 285 50 276 69 q 317 24 293 31 q 394 17 342 17 q 399 8 399 17 q 394 0 399 0 q 328 1 353 0 l 229 3 l 135 1 q 65 0 110 0 q 61 8 61 0 q 65 17 61 17 q 142 24 118 17 q 176 51 167 31 q 185 113 185 71 l 185 756 q 176 817 185 797 q 142 844 167 836 q 65 851 118 851 q 61 860 61 851 q 65 868 61 868 l 135 867 q 229 864 193 864 q 329 867 271 864 l 394 868 q 399 860 399 868 q 394 851 399 851 q 318 843 343 851 q 285 815 293 835 q 276 753 276 794 l 276 113 m 93 942 q 86 948 88 942 q 89 957 85 954 q 240 1044 140 982 q 315 1089 290 1075 q 348 1084 321 1093 q 395 1064 375 1075 q 404 1050 415 1053 q 247 1003 318 1029 q 96 943 175 978 l 93 942 z "},"Ĭ":{"ha":461,"x_min":61,"x_max":399,"o":"m 276 113 q 285 50 276 69 q 317 24 293 31 q 394 17 342 17 q 399 8 399 17 q 394 0 399 0 q 328 1 353 0 l 229 3 l 135 1 q 65 0 110 0 q 61 8 61 0 q 65 17 61 17 q 142 24 118 17 q 176 51 167 31 q 185 113 185 71 l 185 756 q 176 817 185 797 q 142 844 167 836 q 65 851 118 851 q 61 860 61 851 q 65 868 61 868 l 135 867 q 229 864 193 864 q 329 867 271 864 l 394 868 q 399 860 399 868 q 394 851 399 851 q 318 843 343 851 q 285 815 293 835 q 276 753 276 794 l 276 113 m 231 958 q 134 997 171 958 q 88 1107 97 1035 q 94 1113 86 1113 q 103 1110 101 1114 q 149 1045 113 1072 q 231 1018 186 1018 q 310 1045 274 1018 q 357 1110 347 1072 q 366 1113 358 1114 q 372 1107 374 1113 q 326 997 361 1035 q 231 958 290 958 z "},"Ǐ":{"ha":461,"x_min":61,"x_max":399,"o":"m 276 113 q 285 50 276 69 q 317 24 293 31 q 394 17 342 17 q 399 8 399 17 q 394 0 399 0 q 328 1 353 0 l 229 3 l 135 1 q 65 0 110 0 q 61 8 61 0 q 65 17 61 17 q 142 24 118 17 q 176 51 167 31 q 185 113 185 71 l 185 756 q 176 817 185 797 q 142 844 167 836 q 65 851 118 851 q 61 860 61 851 q 65 868 61 868 l 135 867 q 229 864 193 864 q 329 867 271 864 l 394 868 q 399 860 399 868 q 394 851 399 851 q 318 843 343 851 q 285 815 293 835 q 276 753 276 794 l 276 113 m 71 1089 q 69 1090 69 1089 q 69 1090 69 1090 q 73 1097 69 1093 q 79 1099 76 1100 l 231 1019 l 381 1099 l 382 1099 q 388 1095 386 1099 q 388 1089 390 1092 l 246 954 q 231 949 240 949 q 214 954 219 949 l 71 1089 z "},"Î":{"ha":461,"x_min":61,"x_max":399,"o":"m 276 113 q 285 50 276 69 q 317 24 293 31 q 394 17 342 17 q 399 8 399 17 q 394 0 399 0 q 328 1 353 0 l 229 3 l 135 1 q 65 0 110 0 q 61 8 61 0 q 65 17 61 17 q 142 24 118 17 q 176 51 167 31 q 185 113 185 71 l 185 756 q 176 817 185 797 q 142 844 167 836 q 65 851 118 851 q 61 860 61 851 q 65 868 61 868 l 135 867 q 229 864 193 864 q 329 867 271 864 l 394 868 q 399 860 399 868 q 394 851 399 851 q 318 843 343 851 q 285 815 293 835 q 276 753 276 794 l 276 113 m 215 1097 q 232 1104 222 1104 q 247 1097 240 1104 l 389 963 q 389 956 393 961 q 382 953 385 950 l 232 1032 l 81 953 q 74 956 78 951 q 72 963 69 961 l 215 1097 z "},"Ï":{"ha":461,"x_min":61,"x_max":399,"o":"m 276 113 q 285 50 276 69 q 317 24 293 31 q 394 17 342 17 q 399 8 399 17 q 394 0 399 0 q 328 1 353 0 l 229 3 l 135 1 q 65 0 110 0 q 61 8 61 0 q 65 17 61 17 q 142 24 118 17 q 176 51 167 31 q 185 113 185 71 l 185 756 q 176 817 185 797 q 142 844 167 836 q 65 851 118 851 q 61 860 61 851 q 65 868 61 868 l 135 867 q 229 864 193 864 q 329 867 271 864 l 394 868 q 399 860 399 868 q 394 851 399 851 q 318 843 343 851 q 285 815 293 835 q 276 753 276 794 l 276 113 m 132 994 q 88 1010 104 994 q 72 1053 72 1026 q 88 1094 72 1079 q 132 1110 104 1110 q 174 1094 158 1110 q 189 1053 189 1079 q 174 1010 189 1025 q 132 994 158 994 m 331 994 q 287 1010 303 994 q 271 1053 271 1025 q 287 1094 271 1079 q 331 1108 303 1108 q 372 1094 357 1108 q 388 1053 388 1079 q 372 1010 388 1025 q 331 994 357 994 z "},"İ":{"ha":461,"x_min":61,"x_max":399,"o":"m 276 113 q 285 50 276 69 q 317 24 293 31 q 394 17 342 17 q 399 8 399 17 q 394 0 399 0 q 328 1 353 0 l 229 3 l 135 1 q 65 0 110 0 q 61 8 61 0 q 65 17 61 17 q 142 24 118 17 q 176 51 167 31 q 185 113 185 71 l 185 756 q 176 817 185 797 q 142 844 167 836 q 65 851 118 851 q 61 860 61 851 q 65 868 61 868 l 135 867 q 229 864 193 864 q 329 867 271 864 l 394 868 q 399 860 399 868 q 394 851 399 851 q 318 843 343 851 q 285 815 293 835 q 276 753 276 794 l 276 113 m 232 990 q 187 1006 203 990 q 171 1051 171 1022 q 187 1093 171 1078 q 232 1108 203 1108 q 275 1093 260 1108 q 290 1051 290 1078 q 275 1006 290 1022 q 232 990 260 990 z "},"Ị":{"ha":461,"x_min":61,"x_max":399,"o":"m 276 113 q 285 50 276 69 q 317 24 293 31 q 394 17 342 17 q 399 8 399 17 q 394 0 399 0 q 328 1 353 0 l 229 3 l 135 1 q 65 0 110 0 q 61 8 61 0 q 65 17 61 17 q 142 24 118 17 q 176 51 167 31 q 185 113 185 71 l 185 756 q 176 817 185 797 q 142 844 167 836 q 65 851 118 851 q 61 860 61 851 q 65 868 61 868 l 135 867 q 229 864 193 864 q 329 867 271 864 l 394 868 q 399 860 399 868 q 394 851 399 851 q 318 843 343 851 q 285 815 293 835 q 276 753 276 794 l 276 113 m 232 -265 q 187 -249 203 -265 q 171 -204 171 -233 q 187 -162 171 -178 q 232 -147 203 -147 q 275 -162 260 -147 q 290 -204 290 -178 q 275 -249 290 -233 q 232 -265 260 -265 z "},"Ì":{"ha":461,"x_min":56,"x_max":399,"o":"m 276 113 q 285 50 276 69 q 317 24 293 31 q 394 17 342 17 q 399 8 399 17 q 394 0 399 0 q 328 1 353 0 l 229 3 l 135 1 q 65 0 110 0 q 61 8 61 0 q 65 17 61 17 q 142 24 118 17 q 176 51 167 31 q 185 113 185 71 l 185 756 q 176 817 185 797 q 142 844 167 836 q 65 851 118 851 q 61 860 61 851 q 65 868 61 868 l 135 867 q 229 864 193 864 q 329 867 271 864 l 394 868 q 399 860 399 868 q 394 851 399 851 q 318 843 343 851 q 285 815 293 835 q 276 753 276 794 l 276 113 m 368 943 q 217 1003 289 978 q 60 1050 146 1029 q 69 1064 49 1053 q 116 1084 89 1075 q 149 1089 143 1093 q 194 1061 179 1069 q 375 957 311 989 q 378 951 378 954 q 375 944 378 947 q 368 943 372 942 z "},"Ỉ":{"ha":461,"x_min":61,"x_max":399,"o":"m 276 113 q 285 50 276 69 q 317 24 293 31 q 394 17 342 17 q 399 8 399 17 q 394 0 399 0 q 328 1 353 0 l 229 3 l 135 1 q 65 0 110 0 q 61 8 61 0 q 65 17 61 17 q 142 24 118 17 q 176 51 167 31 q 185 113 185 71 l 185 756 q 176 817 185 797 q 142 844 167 836 q 65 851 118 851 q 61 860 61 851 q 65 868 61 868 l 135 867 q 229 864 193 864 q 329 867 271 864 l 394 868 q 399 860 399 868 q 394 851 399 851 q 318 843 343 851 q 285 815 293 835 q 276 753 276 794 l 276 113 m 235 904 q 228 901 236 901 q 218 904 219 901 q 214 933 214 919 q 222 973 214 954 q 244 1014 229 992 q 265 1053 258 1039 q 271 1083 271 1067 q 254 1124 271 1110 q 213 1139 238 1139 q 174 1129 193 1139 l 172 1129 q 164 1134 168 1129 q 164 1142 160 1139 q 254 1169 207 1169 q 319 1149 296 1169 q 343 1097 343 1129 q 329 1053 343 1072 q 286 1004 315 1033 q 246 957 258 974 q 233 918 233 940 q 235 904 233 908 z "},"Ī":{"ha":461,"x_min":47,"x_max":414,"o":"m 276 113 q 285 50 276 69 q 317 24 293 31 q 394 17 342 17 q 399 8 399 17 q 394 0 399 0 q 328 1 353 0 l 229 3 l 135 1 q 65 0 110 0 q 61 8 61 0 q 65 17 61 17 q 142 24 118 17 q 176 51 167 31 q 185 113 185 71 l 185 756 q 176 817 185 797 q 142 844 167 836 q 65 851 118 851 q 61 860 61 851 q 65 868 61 868 l 135 867 q 229 864 193 864 q 329 867 271 864 l 394 868 q 399 860 399 868 q 394 851 399 851 q 318 843 343 851 q 285 815 293 835 q 276 753 276 794 l 276 113 m 56 1003 q 47 1022 47 1003 q 56 1042 47 1042 l 404 1042 q 414 1022 414 1042 q 404 1003 414 1003 l 56 1003 z "},"Į":{"ha":461,"x_min":61,"x_max":399,"o":"m 394 17 q 399 8 399 17 q 394 0 399 0 q 333 1 356 0 l 243 3 q 175 -192 175 -89 q 206 -299 175 -258 q 292 -339 238 -339 q 329 -332 315 -339 q 364 -308 343 -325 l 367 -308 q 374 -312 371 -308 q 374 -319 378 -317 q 308 -367 339 -353 q 242 -382 278 -382 q 136 -346 174 -382 q 99 -246 99 -310 q 221 3 99 -124 l 132 1 q 65 0 107 0 q 61 8 61 0 q 65 17 61 17 q 142 24 118 17 q 176 51 167 31 q 185 113 185 71 l 185 756 q 176 817 185 797 q 142 844 167 836 q 65 851 118 851 q 61 860 61 851 q 65 868 61 868 l 135 867 q 229 864 193 864 q 329 867 271 864 l 394 868 q 399 860 399 868 q 394 851 399 851 q 318 843 343 851 q 285 815 293 835 q 276 753 276 794 l 276 113 q 285 50 276 69 q 317 24 293 31 q 394 17 342 17 z "},"Ĩ":{"ha":461,"x_min":46,"x_max":417,"o":"m 276 113 q 285 50 276 69 q 317 24 293 31 q 394 17 342 17 q 399 8 399 17 q 394 0 399 0 q 328 1 353 0 l 229 3 l 135 1 q 65 0 110 0 q 61 8 61 0 q 65 17 61 17 q 142 24 118 17 q 176 51 167 31 q 185 113 185 71 l 185 756 q 176 817 185 797 q 142 844 167 836 q 65 851 118 851 q 61 860 61 851 q 65 868 61 868 l 135 867 q 229 864 193 864 q 329 867 271 864 l 394 868 q 399 860 399 868 q 394 851 399 851 q 318 843 343 851 q 285 815 293 835 q 276 753 276 794 l 276 113 m 54 968 q 48 972 51 968 q 46 978 44 975 q 164 1065 111 1065 q 233 1050 188 1065 q 273 1040 240 1049 q 338 1031 306 1031 q 375 1040 361 1031 q 407 1068 389 1049 l 408 1068 q 415 1065 413 1068 q 417 1058 418 1061 q 357 990 381 1007 q 306 972 333 972 q 255 979 281 972 q 222 988 229 986 q 125 1006 165 1006 q 90 999 103 1006 q 69 982 78 992 q 56 968 60 972 l 54 968 z "},"J":{"ha":447,"x_min":-64,"x_max":392,"o":"m 389 868 q 392 860 392 868 q 389 851 392 851 q 322 843 343 851 q 294 815 301 835 q 286 753 286 794 l 286 -39 q 222 -258 286 -176 q 38 -339 158 -339 q -37 -323 -10 -339 q -64 -279 -64 -307 q -51 -245 -64 -258 q -17 -232 -39 -232 q 19 -242 7 -232 q 46 -274 32 -253 q 69 -302 58 -293 q 97 -311 79 -311 q 170 -253 146 -311 q 194 -68 194 -196 l 194 756 q 185 817 194 797 q 147 844 175 836 q 58 851 118 851 q 56 860 56 851 q 58 868 56 868 l 138 867 q 239 864 201 864 q 328 867 275 864 l 389 868 z "},"Ĵ":{"ha":447,"x_min":-64,"x_max":392,"o":"m 389 868 q 392 860 392 868 q 389 851 392 851 q 322 843 343 851 q 294 815 301 835 q 286 753 286 794 l 286 -39 q 222 -258 286 -176 q 38 -339 158 -339 q -37 -323 -10 -339 q -64 -279 -64 -307 q -51 -245 -64 -258 q -17 -232 -39 -232 q 19 -242 7 -232 q 46 -274 32 -253 q 69 -302 58 -293 q 97 -311 79 -311 q 170 -253 146 -311 q 194 -68 194 -196 l 194 756 q 185 817 194 797 q 147 844 175 836 q 58 851 118 851 q 56 860 56 851 q 58 868 56 868 l 138 867 q 239 864 201 864 q 328 867 275 864 l 389 868 m 211 1110 q 228 1117 218 1117 q 243 1110 236 1117 l 385 975 q 385 968 389 974 q 378 965 381 963 l 228 1044 l 76 965 q 69 969 74 964 q 68 975 65 974 l 211 1110 z "},"K":{"ha":903,"x_min":46,"x_max":894,"o":"m 890 17 q 894 8 894 17 q 890 0 894 0 l 735 0 q 695 -1 724 0 q 615 70 667 -1 q 517 201 564 142 l 304 469 l 258 425 l 258 113 q 267 50 258 69 q 299 24 275 31 q 376 17 324 17 q 381 8 381 17 q 376 0 381 0 q 310 1 335 0 l 213 3 l 118 1 q 49 0 93 0 q 46 8 46 0 q 49 17 46 17 q 126 24 101 17 q 160 51 151 31 q 169 113 169 71 l 169 756 q 160 817 169 797 q 127 844 151 836 q 50 851 103 851 q 47 860 47 851 q 50 868 47 868 l 119 867 q 213 864 178 864 q 311 867 253 864 l 376 868 q 381 860 381 868 q 376 851 381 851 q 301 843 325 851 q 267 815 276 835 q 258 753 258 794 l 258 458 l 556 756 q 601 824 601 801 q 519 851 601 851 q 517 860 517 851 q 519 868 517 868 l 579 867 q 681 864 635 864 q 776 867 726 864 l 829 868 q 832 860 832 868 q 829 851 832 851 q 707 826 771 851 q 588 747 643 801 l 368 532 l 568 275 q 723 90 669 144 q 806 26 776 36 q 890 17 835 17 z "},"Ḱ":{"ha":903,"x_min":46,"x_max":894,"o":"m 890 17 q 894 8 894 17 q 890 0 894 0 l 735 0 q 695 -1 724 0 q 615 70 667 -1 q 517 201 564 142 l 304 469 l 258 425 l 258 113 q 267 50 258 69 q 299 24 275 31 q 376 17 324 17 q 381 8 381 17 q 376 0 381 0 q 310 1 335 0 l 213 3 l 118 1 q 49 0 93 0 q 46 8 46 0 q 49 17 46 17 q 126 24 101 17 q 160 51 151 31 q 169 113 169 71 l 169 756 q 160 817 169 797 q 127 844 151 836 q 50 851 103 851 q 47 860 47 851 q 50 868 47 868 l 119 867 q 213 864 178 864 q 311 867 253 864 l 376 868 q 381 860 381 868 q 376 851 381 851 q 301 843 325 851 q 267 815 276 835 q 258 753 258 794 l 258 458 l 556 756 q 601 824 601 801 q 519 851 601 851 q 517 860 517 851 q 519 868 517 868 l 579 867 q 681 864 635 864 q 776 867 726 864 l 829 868 q 832 860 832 868 q 829 851 832 851 q 707 826 771 851 q 588 747 643 801 l 368 532 l 568 275 q 723 90 669 144 q 806 26 776 36 q 890 17 835 17 m 315 942 q 308 948 310 942 q 311 957 307 954 q 463 1044 363 982 q 538 1089 513 1075 q 570 1084 543 1093 q 617 1064 597 1075 q 626 1050 638 1053 q 469 1003 540 1029 q 318 943 397 978 l 315 942 z "},"Ǩ":{"ha":903,"x_min":46,"x_max":894,"o":"m 890 17 q 894 8 894 17 q 890 0 894 0 l 735 0 q 695 -1 724 0 q 615 70 667 -1 q 517 201 564 142 l 304 469 l 258 425 l 258 113 q 267 50 258 69 q 299 24 275 31 q 376 17 324 17 q 381 8 381 17 q 376 0 381 0 q 310 1 335 0 l 213 3 l 118 1 q 49 0 93 0 q 46 8 46 0 q 49 17 46 17 q 126 24 101 17 q 160 51 151 31 q 169 113 169 71 l 169 756 q 160 817 169 797 q 127 844 151 836 q 50 851 103 851 q 47 860 47 851 q 50 868 47 868 l 119 867 q 213 864 178 864 q 311 867 253 864 l 376 868 q 381 860 381 868 q 376 851 381 851 q 301 843 325 851 q 267 815 276 835 q 258 753 258 794 l 258 458 l 556 756 q 601 824 601 801 q 519 851 601 851 q 517 860 517 851 q 519 868 517 868 l 579 867 q 681 864 635 864 q 776 867 726 864 l 829 868 q 832 860 832 868 q 829 851 832 851 q 707 826 771 851 q 588 747 643 801 l 368 532 l 568 275 q 723 90 669 144 q 806 26 776 36 q 890 17 835 17 m 293 1089 q 292 1090 292 1089 q 292 1090 292 1090 q 295 1097 292 1093 q 301 1099 299 1100 l 453 1019 l 603 1099 l 604 1099 q 610 1095 608 1099 q 610 1089 613 1092 l 468 954 q 453 949 463 949 q 436 954 442 949 l 293 1089 z "},"Ķ":{"ha":903,"x_min":46,"x_max":894,"o":"m 890 17 q 894 8 894 17 q 890 0 894 0 l 735 0 q 695 -1 724 0 q 615 70 667 -1 q 517 201 564 142 l 304 469 l 258 425 l 258 113 q 267 50 258 69 q 299 24 275 31 q 376 17 324 17 q 381 8 381 17 q 376 0 381 0 q 310 1 335 0 l 213 3 l 118 1 q 49 0 93 0 q 46 8 46 0 q 49 17 46 17 q 126 24 101 17 q 160 51 151 31 q 169 113 169 71 l 169 756 q 160 817 169 797 q 127 844 151 836 q 50 851 103 851 q 47 860 47 851 q 50 868 47 868 l 119 867 q 213 864 178 864 q 311 867 253 864 l 376 868 q 381 860 381 868 q 376 851 381 851 q 301 843 325 851 q 267 815 276 835 q 258 753 258 794 l 258 458 l 556 756 q 601 824 601 801 q 519 851 601 851 q 517 860 517 851 q 519 868 517 868 l 579 867 q 681 864 635 864 q 776 867 726 864 l 829 868 q 832 860 832 868 q 829 851 832 851 q 707 826 771 851 q 588 747 643 801 l 368 532 l 568 275 q 723 90 669 144 q 806 26 776 36 q 890 17 835 17 m 469 -118 q 527 -144 507 -118 q 547 -219 547 -171 q 526 -305 547 -265 q 463 -382 504 -344 q 458 -383 461 -383 q 451 -378 454 -383 q 451 -371 449 -374 q 513 -247 513 -315 q 504 -207 513 -219 q 463 -228 493 -228 q 423 -213 438 -228 q 408 -174 408 -199 q 469 -118 408 -118 z "},"L":{"ha":740,"x_min":46,"x_max":725,"o":"m 257 118 q 265 61 257 79 q 297 36 274 43 q 369 29 319 29 l 519 29 q 647 78 599 29 q 708 214 694 128 q 714 217 708 217 q 722 215 718 217 q 725 211 725 214 q 711 21 711 108 q 707 5 711 10 q 690 0 703 0 l 49 0 q 46 8 46 0 q 49 17 46 17 q 126 24 101 17 q 158 51 150 31 q 167 113 167 71 l 167 756 q 158 817 167 797 q 126 844 150 836 q 49 851 101 851 q 46 860 46 851 q 49 868 46 868 l 117 867 q 211 864 175 864 q 310 867 251 864 l 375 868 q 379 860 379 868 q 375 851 379 851 q 299 844 324 851 q 265 816 274 836 q 257 754 257 796 l 257 118 z "},"Ĺ":{"ha":740,"x_min":46,"x_max":725,"o":"m 257 118 q 265 61 257 79 q 297 36 274 43 q 369 29 319 29 l 519 29 q 647 78 599 29 q 708 214 694 128 q 714 217 708 217 q 722 215 718 217 q 725 211 725 214 q 711 21 711 108 q 707 5 711 10 q 690 0 703 0 l 49 0 q 46 8 46 0 q 49 17 46 17 q 126 24 101 17 q 158 51 150 31 q 167 113 167 71 l 167 756 q 158 817 167 797 q 126 844 150 836 q 49 851 101 851 q 46 860 46 851 q 49 868 46 868 l 117 867 q 211 864 175 864 q 310 867 251 864 l 375 868 q 379 860 379 868 q 375 851 379 851 q 299 844 324 851 q 265 816 274 836 q 257 754 257 796 l 257 118 m 82 942 q 75 948 76 942 q 78 957 74 954 q 229 1044 129 982 q 304 1089 279 1075 q 337 1084 310 1093 q 384 1064 364 1075 q 393 1050 404 1053 q 235 1003 307 1029 q 85 943 164 978 l 82 942 z "},"Ľ":{"ha":740,"x_min":46,"x_max":725,"o":"m 257 118 q 265 61 257 79 q 297 36 274 43 q 369 29 319 29 l 519 29 q 647 78 599 29 q 708 214 694 128 q 714 217 708 217 q 722 215 718 217 q 725 211 725 214 q 711 21 711 108 q 707 5 711 10 q 690 0 703 0 l 49 0 q 46 8 46 0 q 49 17 46 17 q 126 24 101 17 q 158 51 150 31 q 167 113 167 71 l 167 756 q 158 817 167 797 q 126 844 150 836 q 49 851 101 851 q 46 860 46 851 q 49 868 46 868 l 117 867 q 211 864 175 864 q 310 867 251 864 l 375 868 q 379 860 379 868 q 375 851 379 851 q 299 844 324 851 q 265 816 274 836 q 257 754 257 796 l 257 118 m 490 868 q 509 867 490 875 q 545 846 528 858 q 561 826 563 833 l 517 489 q 508 487 515 486 q 501 490 501 488 l 490 868 z "},"Ļ":{"ha":740,"x_min":46,"x_max":725,"o":"m 257 118 q 265 61 257 79 q 297 36 274 43 q 369 29 319 29 l 519 29 q 647 78 599 29 q 708 214 694 128 q 714 217 708 217 q 722 215 718 217 q 725 211 725 214 q 711 21 711 108 q 707 5 711 10 q 690 0 703 0 l 49 0 q 46 8 46 0 q 49 17 46 17 q 126 24 101 17 q 158 51 150 31 q 167 113 167 71 l 167 756 q 158 817 167 797 q 126 844 150 836 q 49 851 101 851 q 46 860 46 851 q 49 868 46 868 l 117 867 q 211 864 175 864 q 310 867 251 864 l 375 868 q 379 860 379 868 q 375 851 379 851 q 299 844 324 851 q 265 816 274 836 q 257 754 257 796 l 257 118 m 404 -118 q 462 -144 442 -118 q 482 -219 482 -171 q 460 -305 482 -265 q 397 -382 439 -344 q 393 -383 396 -383 q 386 -378 389 -383 q 386 -371 383 -374 q 447 -247 447 -315 q 439 -207 447 -219 q 397 -228 428 -228 q 358 -213 372 -228 q 343 -174 343 -199 q 404 -118 343 -118 z "},"Ŀ":{"ha":740,"x_min":46,"x_max":725,"o":"m 257 118 q 265 61 257 79 q 297 36 274 43 q 369 29 319 29 l 519 29 q 647 78 599 29 q 708 214 694 128 q 714 217 708 217 q 722 215 718 217 q 725 211 725 214 q 711 21 711 108 q 707 5 711 10 q 690 0 703 0 l 49 0 q 46 8 46 0 q 49 17 46 17 q 126 24 101 17 q 158 51 150 31 q 167 113 167 71 l 167 756 q 158 817 167 797 q 126 844 150 836 q 49 851 101 851 q 46 860 46 851 q 49 868 46 868 l 117 867 q 211 864 175 864 q 310 867 251 864 l 375 868 q 379 860 379 868 q 375 851 379 851 q 299 844 324 851 q 265 816 274 836 q 257 754 257 796 l 257 118 m 596 386 q 551 402 567 386 q 535 447 535 418 q 551 489 535 474 q 596 504 567 504 q 639 489 624 504 q 654 447 654 474 q 639 402 654 418 q 596 386 624 386 z "},"Ḷ":{"ha":740,"x_min":46,"x_max":725,"o":"m 257 118 q 265 61 257 79 q 297 36 274 43 q 369 29 319 29 l 519 29 q 647 78 599 29 q 708 214 694 128 q 714 217 708 217 q 722 215 718 217 q 725 211 725 214 q 711 21 711 108 q 707 5 711 10 q 690 0 703 0 l 49 0 q 46 8 46 0 q 49 17 46 17 q 126 24 101 17 q 158 51 150 31 q 167 113 167 71 l 167 756 q 158 817 167 797 q 126 844 150 836 q 49 851 101 851 q 46 860 46 851 q 49 868 46 868 l 117 867 q 211 864 175 864 q 310 867 251 864 l 375 868 q 379 860 379 868 q 375 851 379 851 q 299 844 324 851 q 265 816 274 836 q 257 754 257 796 l 257 118 m 414 -265 q 369 -249 385 -265 q 353 -204 353 -233 q 369 -162 353 -178 q 414 -147 385 -147 q 457 -162 442 -147 q 472 -204 472 -178 q 457 -249 472 -233 q 414 -265 442 -265 z "},"Ḹ":{"ha":740,"x_min":36,"x_max":725,"o":"m 257 118 q 265 61 257 79 q 297 36 274 43 q 369 29 319 29 l 519 29 q 647 78 599 29 q 708 214 694 128 q 714 217 708 217 q 722 215 718 217 q 725 211 725 214 q 711 21 711 108 q 707 5 711 10 q 690 0 703 0 l 49 0 q 46 8 46 0 q 49 17 46 17 q 126 24 101 17 q 158 51 150 31 q 167 113 167 71 l 167 756 q 158 817 167 797 q 126 844 150 836 q 49 851 101 851 q 46 860 46 851 q 49 868 46 868 l 117 867 q 211 864 175 864 q 310 867 251 864 l 375 868 q 379 860 379 868 q 375 851 379 851 q 299 844 324 851 q 265 816 274 836 q 257 754 257 796 l 257 118 m 414 -265 q 369 -249 385 -265 q 353 -204 353 -233 q 369 -162 353 -178 q 414 -147 385 -147 q 457 -162 442 -147 q 472 -204 472 -178 q 457 -249 472 -233 q 414 -265 442 -265 m 44 1003 q 36 1022 36 1003 q 44 1042 36 1042 l 393 1042 q 400 1035 397 1042 q 403 1022 403 1029 q 400 1009 403 1015 q 393 1003 397 1003 l 44 1003 z "},"Ḻ":{"ha":740,"x_min":46,"x_max":725,"o":"m 257 118 q 265 61 257 79 q 297 36 274 43 q 369 29 319 29 l 519 29 q 647 78 599 29 q 708 214 694 128 q 714 217 708 217 q 722 215 718 217 q 725 211 725 214 q 711 21 711 108 q 707 5 711 10 q 690 0 703 0 l 49 0 q 46 8 46 0 q 49 17 46 17 q 126 24 101 17 q 158 51 150 31 q 167 113 167 71 l 167 756 q 158 817 167 797 q 126 844 150 836 q 49 851 101 851 q 46 860 46 851 q 49 868 46 868 l 117 867 q 211 864 175 864 q 310 867 251 864 l 375 868 q 379 860 379 868 q 375 851 379 851 q 299 844 324 851 q 265 816 274 836 q 257 754 257 796 l 257 118 m 238 -157 q 229 -137 229 -157 q 238 -118 229 -118 l 586 -118 q 593 -124 590 -118 q 596 -137 596 -131 q 593 -151 596 -144 q 586 -157 590 -157 l 238 -157 z "},"Ł":{"ha":728,"x_min":46,"x_max":725,"o":"m 708 214 q 714 217 708 217 q 722 215 718 217 q 725 211 725 214 q 711 21 711 108 q 707 5 711 10 q 690 0 703 0 l 49 0 q 46 8 46 0 q 49 17 46 17 q 126 24 101 17 q 158 51 150 31 q 167 113 167 71 l 167 367 l 96 326 l 94 326 q 83 338 89 326 q 81 351 76 349 l 167 401 l 167 756 q 158 817 167 797 q 126 844 150 836 q 49 851 101 851 q 46 860 46 851 q 49 868 46 868 l 117 867 q 211 864 175 864 q 310 867 251 864 l 375 868 q 379 860 379 868 q 375 851 379 851 q 299 844 324 851 q 265 816 274 836 q 257 754 257 796 l 257 453 l 406 538 l 407 538 q 417 526 411 538 q 419 513 424 515 l 257 419 l 257 118 q 265 61 257 79 q 297 36 274 43 q 369 29 319 29 l 519 29 q 647 78 599 29 q 708 214 694 128 z "},"M":{"ha":1161,"x_min":50,"x_max":1132,"o":"m 1128 17 q 1132 8 1132 17 q 1128 0 1132 0 q 1058 1 1083 0 l 964 3 l 875 1 q 813 0 853 0 q 810 8 810 0 q 813 17 810 17 q 883 24 860 17 q 913 51 906 32 q 918 113 921 71 l 893 743 l 576 10 q 565 4 574 4 q 553 10 558 4 l 211 739 l 199 151 q 224 47 197 78 q 317 17 250 17 q 319 8 319 17 q 317 0 319 0 q 257 1 278 0 l 182 3 l 110 1 q 54 0 90 0 q 50 8 50 0 q 54 17 50 17 q 139 48 113 17 q 167 151 165 79 l 178 796 q 64 851 136 851 q 61 860 61 851 q 64 868 61 868 l 115 867 q 153 865 129 865 q 197 867 179 865 q 224 868 215 868 q 253 855 242 868 q 288 796 265 842 l 599 143 l 900 833 q 942 868 915 868 q 962 867 949 868 q 996 865 975 865 l 1063 867 q 1108 868 1078 868 q 1113 860 1113 868 q 1108 851 1113 851 q 1009 831 1039 851 q 981 756 979 811 l 1008 113 q 1019 50 1010 69 q 1051 24 1028 31 q 1128 17 1075 17 z "},"Ṁ":{"ha":1161,"x_min":50,"x_max":1132,"o":"m 1128 17 q 1132 8 1132 17 q 1128 0 1132 0 q 1058 1 1083 0 l 964 3 l 875 1 q 813 0 853 0 q 810 8 810 0 q 813 17 810 17 q 883 24 860 17 q 913 51 906 32 q 918 113 921 71 l 893 743 l 576 10 q 565 4 574 4 q 553 10 558 4 l 211 739 l 199 151 q 224 47 197 78 q 317 17 250 17 q 319 8 319 17 q 317 0 319 0 q 257 1 278 0 l 182 3 l 110 1 q 54 0 90 0 q 50 8 50 0 q 54 17 50 17 q 139 48 113 17 q 167 151 165 79 l 178 796 q 64 851 136 851 q 61 860 61 851 q 64 868 61 868 l 115 867 q 153 865 129 865 q 197 867 179 865 q 224 868 215 868 q 253 855 242 868 q 288 796 265 842 l 599 143 l 900 833 q 942 868 915 868 q 962 867 949 868 q 996 865 975 865 l 1063 867 q 1108 868 1078 868 q 1113 860 1113 868 q 1108 851 1113 851 q 1009 831 1039 851 q 981 756 979 811 l 1008 113 q 1019 50 1010 69 q 1051 24 1028 31 q 1128 17 1075 17 m 582 990 q 537 1006 553 990 q 521 1051 521 1022 q 537 1093 521 1078 q 582 1108 553 1108 q 625 1093 610 1108 q 640 1051 640 1078 q 625 1006 640 1022 q 582 990 610 990 z "},"Ṃ":{"ha":1161,"x_min":50,"x_max":1132,"o":"m 1128 17 q 1132 8 1132 17 q 1128 0 1132 0 q 1058 1 1083 0 l 964 3 l 875 1 q 813 0 853 0 q 810 8 810 0 q 813 17 810 17 q 883 24 860 17 q 913 51 906 32 q 918 113 921 71 l 893 743 l 576 10 q 565 4 574 4 q 553 10 558 4 l 211 739 l 199 151 q 224 47 197 78 q 317 17 250 17 q 319 8 319 17 q 317 0 319 0 q 257 1 278 0 l 182 3 l 110 1 q 54 0 90 0 q 50 8 50 0 q 54 17 50 17 q 139 48 113 17 q 167 151 165 79 l 178 796 q 64 851 136 851 q 61 860 61 851 q 64 868 61 868 l 115 867 q 153 865 129 865 q 197 867 179 865 q 224 868 215 868 q 253 855 242 868 q 288 796 265 842 l 599 143 l 900 833 q 942 868 915 868 q 962 867 949 868 q 996 865 975 865 l 1063 867 q 1108 868 1078 868 q 1113 860 1113 868 q 1108 851 1113 851 q 1009 831 1039 851 q 981 756 979 811 l 1008 113 q 1019 50 1010 69 q 1051 24 1028 31 q 1128 17 1075 17 m 568 -265 q 523 -249 539 -265 q 507 -204 507 -233 q 523 -162 507 -178 q 568 -147 539 -147 q 611 -162 596 -147 q 626 -204 626 -178 q 611 -249 626 -233 q 568 -265 596 -265 z "},"N":{"ha":1010,"x_min":53,"x_max":982,"o":"m 978 868 q 982 860 982 868 q 978 851 982 851 q 893 819 919 851 q 867 717 867 788 l 867 -15 q 860 -21 867 -19 q 851 -19 854 -22 l 211 754 l 200 768 l 200 151 q 225 48 200 79 q 307 17 250 17 q 311 8 311 17 q 307 0 311 0 q 254 1 272 0 l 185 3 l 114 1 q 57 0 94 0 q 53 8 53 0 q 57 17 53 17 q 142 48 117 17 q 167 151 167 79 l 167 801 q 111 840 138 829 q 57 851 85 851 q 53 860 53 851 q 57 868 53 868 l 108 867 q 154 865 124 865 q 204 867 185 865 q 235 868 224 868 q 250 863 244 868 q 267 842 256 858 q 299 796 282 817 l 835 140 l 835 717 q 810 819 835 788 q 729 851 786 851 q 726 860 726 851 q 729 868 726 868 l 783 867 q 851 864 825 864 q 921 867 876 864 l 978 868 z "},"Ń":{"ha":1010,"x_min":53,"x_max":982,"o":"m 978 868 q 982 860 982 868 q 978 851 982 851 q 893 819 919 851 q 867 717 867 788 l 867 -15 q 860 -21 867 -19 q 851 -19 854 -22 l 211 754 l 200 768 l 200 151 q 225 48 200 79 q 307 17 250 17 q 311 8 311 17 q 307 0 311 0 q 254 1 272 0 l 185 3 l 114 1 q 57 0 94 0 q 53 8 53 0 q 57 17 53 17 q 142 48 117 17 q 167 151 167 79 l 167 801 q 111 840 138 829 q 57 851 85 851 q 53 860 53 851 q 57 868 53 868 l 108 867 q 154 865 124 865 q 204 867 185 865 q 235 868 224 868 q 250 863 244 868 q 267 842 256 858 q 299 796 282 817 l 835 140 l 835 717 q 810 819 835 788 q 729 851 786 851 q 726 860 726 851 q 729 868 726 868 l 783 867 q 851 864 825 864 q 921 867 876 864 l 978 868 m 385 942 q 378 948 379 942 q 381 957 376 954 q 532 1044 432 982 q 607 1089 582 1075 q 640 1084 613 1093 q 687 1064 667 1075 q 696 1050 707 1053 q 538 1003 610 1029 q 388 943 467 978 l 385 942 z "},"Ň":{"ha":1010,"x_min":53,"x_max":982,"o":"m 978 868 q 982 860 982 868 q 978 851 982 851 q 893 819 919 851 q 867 717 867 788 l 867 -15 q 860 -21 867 -19 q 851 -19 854 -22 l 211 754 l 200 768 l 200 151 q 225 48 200 79 q 307 17 250 17 q 311 8 311 17 q 307 0 311 0 q 254 1 272 0 l 185 3 l 114 1 q 57 0 94 0 q 53 8 53 0 q 57 17 53 17 q 142 48 117 17 q 167 151 167 79 l 167 801 q 111 840 138 829 q 57 851 85 851 q 53 860 53 851 q 57 868 53 868 l 108 867 q 154 865 124 865 q 204 867 185 865 q 235 868 224 868 q 250 863 244 868 q 267 842 256 858 q 299 796 282 817 l 835 140 l 835 717 q 810 819 835 788 q 729 851 786 851 q 726 860 726 851 q 729 868 726 868 l 783 867 q 851 864 825 864 q 921 867 876 864 l 978 868 m 363 1089 q 361 1090 361 1089 q 361 1090 361 1090 q 365 1097 361 1093 q 371 1099 368 1100 l 522 1019 l 672 1099 l 674 1099 q 680 1095 678 1099 q 679 1089 682 1092 l 538 954 q 522 949 532 949 q 506 954 511 949 l 363 1089 z "},"Ņ":{"ha":1010,"x_min":53,"x_max":982,"o":"m 978 868 q 982 860 982 868 q 978 851 982 851 q 893 819 919 851 q 867 717 867 788 l 867 -15 q 860 -21 867 -19 q 851 -19 854 -22 l 211 754 l 200 768 l 200 151 q 225 48 200 79 q 307 17 250 17 q 311 8 311 17 q 307 0 311 0 q 254 1 272 0 l 185 3 l 114 1 q 57 0 94 0 q 53 8 53 0 q 57 17 53 17 q 142 48 117 17 q 167 151 167 79 l 167 801 q 111 840 138 829 q 57 851 85 851 q 53 860 53 851 q 57 868 53 868 l 108 867 q 154 865 124 865 q 204 867 185 865 q 235 868 224 868 q 250 863 244 868 q 267 842 256 858 q 299 796 282 817 l 835 140 l 835 717 q 810 819 835 788 q 729 851 786 851 q 726 860 726 851 q 729 868 726 868 l 783 867 q 851 864 825 864 q 921 867 876 864 l 978 868 m 511 -118 q 569 -144 549 -118 q 589 -219 589 -171 q 567 -305 589 -265 q 504 -382 546 -344 q 500 -383 503 -383 q 493 -378 496 -383 q 493 -371 490 -374 q 554 -247 554 -315 q 546 -207 554 -219 q 504 -228 535 -228 q 465 -213 479 -228 q 450 -174 450 -199 q 511 -118 450 -118 z "},"Ṅ":{"ha":1010,"x_min":53,"x_max":982,"o":"m 978 868 q 982 860 982 868 q 978 851 982 851 q 893 819 919 851 q 867 717 867 788 l 867 -15 q 860 -21 867 -19 q 851 -19 854 -22 l 211 754 l 200 768 l 200 151 q 225 48 200 79 q 307 17 250 17 q 311 8 311 17 q 307 0 311 0 q 254 1 272 0 l 185 3 l 114 1 q 57 0 94 0 q 53 8 53 0 q 57 17 53 17 q 142 48 117 17 q 167 151 167 79 l 167 801 q 111 840 138 829 q 57 851 85 851 q 53 860 53 851 q 57 868 53 868 l 108 867 q 154 865 124 865 q 204 867 185 865 q 235 868 224 868 q 250 863 244 868 q 267 842 256 858 q 299 796 282 817 l 835 140 l 835 717 q 810 819 835 788 q 729 851 786 851 q 726 860 726 851 q 729 868 726 868 l 783 867 q 851 864 825 864 q 921 867 876 864 l 978 868 m 524 990 q 478 1006 494 990 q 463 1051 463 1022 q 478 1093 463 1078 q 524 1108 494 1108 q 567 1093 551 1108 q 582 1051 582 1078 q 567 1006 582 1022 q 524 990 551 990 z "},"Ṇ":{"ha":1010,"x_min":53,"x_max":982,"o":"m 978 868 q 982 860 982 868 q 978 851 982 851 q 893 819 919 851 q 867 717 867 788 l 867 -15 q 860 -21 867 -19 q 851 -19 854 -22 l 211 754 l 200 768 l 200 151 q 225 48 200 79 q 307 17 250 17 q 311 8 311 17 q 307 0 311 0 q 254 1 272 0 l 185 3 l 114 1 q 57 0 94 0 q 53 8 53 0 q 57 17 53 17 q 142 48 117 17 q 167 151 167 79 l 167 801 q 111 840 138 829 q 57 851 85 851 q 53 860 53 851 q 57 868 53 868 l 108 867 q 154 865 124 865 q 204 867 185 865 q 235 868 224 868 q 250 863 244 868 q 267 842 256 858 q 299 796 282 817 l 835 140 l 835 717 q 810 819 835 788 q 729 851 786 851 q 726 860 726 851 q 729 868 726 868 l 783 867 q 851 864 825 864 q 921 867 876 864 l 978 868 m 521 -265 q 476 -249 492 -265 q 460 -204 460 -233 q 476 -162 460 -178 q 521 -147 492 -147 q 564 -162 549 -147 q 579 -204 579 -178 q 564 -249 579 -233 q 521 -265 549 -265 z "},"Ŋ":{"ha":1010,"x_min":53,"x_max":982,"o":"m 978 868 q 982 860 982 868 q 978 851 982 851 q 893 819 919 851 q 867 717 867 788 l 867 -15 q 821 -201 867 -136 q 690 -265 775 -265 q 608 -242 639 -265 q 576 -186 576 -219 q 588 -149 576 -162 q 621 -136 600 -136 q 654 -149 644 -136 q 672 -186 664 -161 q 691 -225 681 -212 q 725 -237 701 -237 q 808 -178 778 -237 q 838 -21 838 -118 l 838 -3 l 211 754 l 200 768 l 200 151 q 225 48 200 79 q 307 17 250 17 q 311 8 311 17 q 307 0 311 0 q 254 1 272 0 l 185 3 l 114 1 q 57 0 94 0 q 53 8 53 0 q 57 17 53 17 q 143 48 117 17 q 169 151 169 79 l 169 800 q 57 851 113 851 q 53 860 53 851 q 57 868 53 868 l 108 867 q 154 865 124 865 q 204 867 185 865 q 235 868 224 868 q 250 863 244 868 q 267 842 256 858 q 299 796 282 817 l 838 138 l 838 717 q 812 819 838 788 q 729 851 786 851 q 726 860 726 851 q 729 868 726 868 l 783 867 q 851 864 825 864 q 921 867 876 864 l 978 868 z "},"Ṉ":{"ha":1010,"x_min":53,"x_max":982,"o":"m 978 868 q 982 860 982 868 q 978 851 982 851 q 893 819 919 851 q 867 717 867 788 l 867 -15 q 860 -21 867 -19 q 851 -19 854 -22 l 211 754 l 200 768 l 200 151 q 225 48 200 79 q 307 17 250 17 q 311 8 311 17 q 307 0 311 0 q 254 1 272 0 l 185 3 l 114 1 q 57 0 94 0 q 53 8 53 0 q 57 17 53 17 q 142 48 117 17 q 167 151 167 79 l 167 801 q 111 840 138 829 q 57 851 85 851 q 53 860 53 851 q 57 868 53 868 l 108 867 q 154 865 124 865 q 204 867 185 865 q 235 868 224 868 q 250 863 244 868 q 267 842 256 858 q 299 796 282 817 l 835 140 l 835 717 q 810 819 835 788 q 729 851 786 851 q 726 860 726 851 q 729 868 726 868 l 783 867 q 851 864 825 864 q 921 867 876 864 l 978 868 m 344 -157 q 336 -137 336 -157 q 344 -118 336 -118 l 693 -118 q 700 -124 697 -118 q 703 -137 703 -131 q 700 -151 703 -144 q 693 -157 697 -157 l 344 -157 z "},"Ñ":{"ha":1010,"x_min":53,"x_max":982,"o":"m 978 868 q 982 860 982 868 q 978 851 982 851 q 893 819 919 851 q 867 717 867 788 l 867 -15 q 860 -21 867 -19 q 851 -19 854 -22 l 211 754 l 200 768 l 200 151 q 225 48 200 79 q 307 17 250 17 q 311 8 311 17 q 307 0 311 0 q 254 1 272 0 l 185 3 l 114 1 q 57 0 94 0 q 53 8 53 0 q 57 17 53 17 q 142 48 117 17 q 167 151 167 79 l 167 801 q 111 840 138 829 q 57 851 85 851 q 53 860 53 851 q 57 868 53 868 l 108 867 q 154 865 124 865 q 204 867 185 865 q 235 868 224 868 q 250 863 244 868 q 267 842 256 858 q 299 796 282 817 l 835 140 l 835 717 q 810 819 835 788 q 729 851 786 851 q 726 860 726 851 q 729 868 726 868 l 783 867 q 851 864 825 864 q 921 867 876 864 l 978 868 m 631 1031 q 668 1040 654 1031 q 699 1068 682 1050 l 700 1068 q 708 1065 704 1068 q 710 1058 711 1061 q 649 990 672 1007 q 599 972 626 972 q 547 979 574 972 q 514 988 519 986 q 417 1006 457 1006 q 380 997 392 1006 q 349 968 368 989 l 347 968 q 341 972 344 968 q 339 978 338 975 q 394 1038 363 1011 q 457 1065 425 1065 q 526 1050 481 1065 q 566 1040 533 1049 q 631 1031 599 1031 z "},"O":{"ha":1064,"x_min":68,"x_max":996,"o":"m 508 -17 q 278 44 379 -17 q 123 208 178 104 q 68 433 68 311 q 140 678 68 576 q 326 832 213 781 q 557 883 439 883 q 789 822 689 883 q 942 658 889 760 q 996 443 996 557 q 929 211 996 317 q 751 44 863 106 q 508 -17 639 -17 m 558 13 q 727 58 651 13 q 847 193 803 104 q 890 404 890 282 q 842 635 890 533 q 706 794 794 738 q 500 851 617 851 q 260 753 346 851 q 174 482 174 654 q 222 244 174 351 q 358 74 271 136 q 558 13 446 13 z "},"Ó":{"ha":1064,"x_min":68,"x_max":996,"o":"m 508 -17 q 278 44 379 -17 q 123 208 178 104 q 68 433 68 311 q 140 678 68 576 q 326 832 213 781 q 557 883 439 883 q 789 822 689 883 q 942 658 889 760 q 996 443 996 557 q 929 211 996 317 q 751 44 863 106 q 508 -17 639 -17 m 558 13 q 727 58 651 13 q 847 193 803 104 q 890 404 890 282 q 842 635 890 533 q 706 794 794 738 q 500 851 617 851 q 260 753 346 851 q 174 482 174 654 q 222 244 174 351 q 358 74 271 136 q 558 13 446 13 m 397 942 q 390 948 392 942 q 393 957 389 954 q 544 1044 444 982 q 619 1089 594 1075 q 652 1084 625 1093 q 699 1064 679 1075 q 708 1050 719 1053 q 551 1003 622 1029 q 400 943 479 978 l 397 942 z "},"Ŏ":{"ha":1064,"x_min":68,"x_max":996,"o":"m 508 -17 q 278 44 379 -17 q 123 208 178 104 q 68 433 68 311 q 140 678 68 576 q 326 832 213 781 q 557 883 439 883 q 789 822 689 883 q 942 658 889 760 q 996 443 996 557 q 929 211 996 317 q 751 44 863 106 q 508 -17 639 -17 m 558 13 q 727 58 651 13 q 847 193 803 104 q 890 404 890 282 q 842 635 890 533 q 706 794 794 738 q 500 851 617 851 q 260 753 346 851 q 174 482 174 654 q 222 244 174 351 q 358 74 271 136 q 558 13 446 13 m 535 958 q 438 997 475 958 q 392 1107 401 1035 q 398 1113 390 1113 q 407 1110 406 1114 q 453 1045 417 1072 q 535 1018 490 1018 q 615 1045 578 1018 q 661 1110 651 1072 q 670 1113 663 1114 q 676 1107 678 1113 q 630 997 665 1035 q 535 958 594 958 z "},"Ǒ":{"ha":1064,"x_min":68,"x_max":996,"o":"m 508 -17 q 278 44 379 -17 q 123 208 178 104 q 68 433 68 311 q 140 678 68 576 q 326 832 213 781 q 557 883 439 883 q 789 822 689 883 q 942 658 889 760 q 996 443 996 557 q 929 211 996 317 q 751 44 863 106 q 508 -17 639 -17 m 558 13 q 727 58 651 13 q 847 193 803 104 q 890 404 890 282 q 842 635 890 533 q 706 794 794 738 q 500 851 617 851 q 260 753 346 851 q 174 482 174 654 q 222 244 174 351 q 358 74 271 136 q 558 13 446 13 m 375 1089 q 374 1090 374 1089 q 374 1090 374 1090 q 377 1097 374 1093 q 383 1099 381 1100 l 535 1019 l 685 1099 l 686 1099 q 692 1095 690 1099 q 692 1089 694 1092 l 550 954 q 535 949 544 949 q 518 954 524 949 l 375 1089 z "},"Ô":{"ha":1064,"x_min":68,"x_max":996,"o":"m 508 -17 q 278 44 379 -17 q 123 208 178 104 q 68 433 68 311 q 140 678 68 576 q 326 832 213 781 q 557 883 439 883 q 789 822 689 883 q 942 658 889 760 q 996 443 996 557 q 929 211 996 317 q 751 44 863 106 q 508 -17 639 -17 m 558 13 q 727 58 651 13 q 847 193 803 104 q 890 404 890 282 q 842 635 890 533 q 706 794 794 738 q 500 851 617 851 q 260 753 346 851 q 174 482 174 654 q 222 244 174 351 q 358 74 271 136 q 558 13 446 13 m 519 1097 q 536 1104 526 1104 q 551 1097 544 1104 l 693 963 q 693 956 697 961 q 686 953 689 950 l 536 1032 l 385 953 q 378 956 382 951 q 376 963 374 961 l 519 1097 z "},"Ố":{"ha":1064,"x_min":68,"x_max":996,"o":"m 508 -17 q 278 44 379 -17 q 123 208 178 104 q 68 433 68 311 q 140 678 68 576 q 326 832 213 781 q 557 883 439 883 q 789 822 689 883 q 942 658 889 760 q 996 443 996 557 q 929 211 996 317 q 751 44 863 106 q 508 -17 639 -17 m 558 13 q 727 58 651 13 q 847 193 803 104 q 890 404 890 282 q 842 635 890 533 q 706 794 794 738 q 500 851 617 851 q 260 753 346 851 q 174 482 174 654 q 222 244 174 351 q 358 74 271 136 q 558 13 446 13 m 518 1044 q 533 1051 525 1051 q 550 1044 543 1051 l 692 910 q 693 907 693 910 q 690 901 693 904 q 685 900 686 899 l 535 979 l 383 900 q 376 903 381 899 q 375 910 372 908 l 518 1044 m 624 1004 q 617 1009 619 1004 q 618 1017 615 1014 q 724 1151 678 1086 q 755 1148 728 1157 q 803 1127 782 1139 q 814 1113 824 1115 q 628 1006 724 1076 l 624 1004 z "},"Ộ":{"ha":1064,"x_min":68,"x_max":996,"o":"m 508 -17 q 278 44 379 -17 q 123 208 178 104 q 68 433 68 311 q 140 678 68 576 q 326 832 213 781 q 557 883 439 883 q 789 822 689 883 q 942 658 889 760 q 996 443 996 557 q 929 211 996 317 q 751 44 863 106 q 508 -17 639 -17 m 558 13 q 727 58 651 13 q 847 193 803 104 q 890 404 890 282 q 842 635 890 533 q 706 794 794 738 q 500 851 617 851 q 260 753 346 851 q 174 482 174 654 q 222 244 174 351 q 358 74 271 136 q 558 13 446 13 m 550 -265 q 505 -249 521 -265 q 489 -204 489 -233 q 505 -162 489 -178 q 550 -147 521 -147 q 593 -162 578 -147 q 608 -204 608 -178 q 593 -249 608 -233 q 550 -265 578 -265 m 518 1044 q 533 1051 525 1051 q 550 1044 543 1051 l 692 910 q 693 907 693 910 q 690 901 693 904 q 685 900 686 899 l 535 979 l 383 900 q 376 903 381 899 q 375 910 372 908 l 518 1044 z "},"Ồ":{"ha":1064,"x_min":68,"x_max":996,"o":"m 508 -17 q 278 44 379 -17 q 123 208 178 104 q 68 433 68 311 q 140 678 68 576 q 326 832 213 781 q 557 883 439 883 q 789 822 689 883 q 942 658 889 760 q 996 443 996 557 q 929 211 996 317 q 751 44 863 106 q 508 -17 639 -17 m 558 13 q 727 58 651 13 q 847 193 803 104 q 890 404 890 282 q 842 635 890 533 q 706 794 794 738 q 500 851 617 851 q 260 753 346 851 q 174 482 174 654 q 222 244 174 351 q 358 74 271 136 q 558 13 446 13 m 518 1044 q 533 1051 525 1051 q 550 1044 543 1051 l 692 910 q 693 907 693 910 q 690 901 693 904 q 685 900 686 899 l 535 979 l 383 900 q 376 903 381 899 q 375 910 372 908 l 518 1044 m 767 975 q 583 1082 675 1042 q 593 1097 572 1085 q 641 1117 614 1108 q 672 1121 668 1126 q 778 988 725 1043 q 779 983 779 986 q 776 976 779 979 q 767 975 772 974 z "},"Ổ":{"ha":1064,"x_min":68,"x_max":996,"o":"m 508 -17 q 278 44 379 -17 q 123 208 178 104 q 68 433 68 311 q 140 678 68 576 q 326 832 213 781 q 557 883 439 883 q 789 822 689 883 q 942 658 889 760 q 996 443 996 557 q 929 211 996 317 q 751 44 863 106 q 508 -17 639 -17 m 558 13 q 727 58 651 13 q 847 193 803 104 q 890 404 890 282 q 842 635 890 533 q 706 794 794 738 q 500 851 617 851 q 260 753 346 851 q 174 482 174 654 q 222 244 174 351 q 358 74 271 136 q 558 13 446 13 m 518 1044 q 533 1051 525 1051 q 550 1044 543 1051 l 692 910 q 693 907 693 910 q 690 901 693 904 q 685 900 686 899 l 535 979 l 383 900 q 376 903 381 899 q 375 910 372 908 l 518 1044 m 647 1004 q 644 1022 644 1011 q 664 1074 644 1040 q 680 1103 675 1090 q 685 1128 685 1115 q 669 1160 685 1149 q 636 1171 654 1171 q 604 1164 621 1171 l 603 1164 q 594 1169 599 1164 q 594 1175 590 1174 q 638 1194 615 1188 q 678 1201 661 1201 q 726 1183 708 1201 q 744 1142 744 1165 q 733 1107 744 1122 q 700 1069 722 1092 q 668 1035 678 1049 q 663 1004 658 1021 q 656 1001 664 1001 q 647 1004 649 1001 z "},"Ỗ":{"ha":1064,"x_min":68,"x_max":996,"o":"m 508 -17 q 278 44 379 -17 q 123 208 178 104 q 68 433 68 311 q 140 678 68 576 q 326 832 213 781 q 557 883 439 883 q 789 822 689 883 q 942 658 889 760 q 996 443 996 557 q 929 211 996 317 q 751 44 863 106 q 508 -17 639 -17 m 558 13 q 727 58 651 13 q 847 193 803 104 q 890 404 890 282 q 842 635 890 533 q 706 794 794 738 q 500 851 617 851 q 260 753 346 851 q 174 482 174 654 q 222 244 174 351 q 358 74 271 136 q 558 13 446 13 m 518 1044 q 533 1051 525 1051 q 550 1044 543 1051 l 692 910 q 693 907 693 910 q 690 901 693 904 q 685 900 686 899 l 535 979 l 383 900 q 376 903 381 899 q 375 910 372 908 l 518 1044 m 650 1126 q 687 1135 674 1126 q 718 1164 700 1144 l 719 1164 q 727 1160 724 1164 q 728 1154 731 1157 q 669 1085 692 1103 q 618 1068 646 1068 q 566 1075 593 1068 q 533 1083 539 1082 q 436 1101 476 1101 q 399 1093 411 1101 q 368 1064 388 1085 l 367 1064 q 359 1067 363 1064 q 358 1074 356 1071 q 413 1134 382 1107 q 476 1161 443 1161 q 546 1146 500 1161 q 585 1135 553 1144 q 650 1126 618 1126 z "},"Ö":{"ha":1064,"x_min":68,"x_max":996,"o":"m 508 -17 q 278 44 379 -17 q 123 208 178 104 q 68 433 68 311 q 140 678 68 576 q 326 832 213 781 q 557 883 439 883 q 789 822 689 883 q 942 658 889 760 q 996 443 996 557 q 929 211 996 317 q 751 44 863 106 q 508 -17 639 -17 m 558 13 q 727 58 651 13 q 847 193 803 104 q 890 404 890 282 q 842 635 890 533 q 706 794 794 738 q 500 851 617 851 q 260 753 346 851 q 174 482 174 654 q 222 244 174 351 q 358 74 271 136 q 558 13 446 13 m 414 994 q 370 1010 386 994 q 354 1053 354 1025 q 370 1094 354 1079 q 414 1110 386 1110 q 456 1094 440 1110 q 471 1053 471 1079 q 456 1010 471 1025 q 414 994 440 994 m 657 994 q 613 1010 629 994 q 597 1053 597 1026 q 613 1094 597 1079 q 657 1108 629 1108 q 699 1094 683 1108 q 714 1053 714 1079 q 699 1010 714 1025 q 657 994 683 994 z "},"Ọ":{"ha":1064,"x_min":68,"x_max":996,"o":"m 508 -17 q 278 44 379 -17 q 123 208 178 104 q 68 433 68 311 q 140 678 68 576 q 326 832 213 781 q 557 883 439 883 q 789 822 689 883 q 942 658 889 760 q 996 443 996 557 q 929 211 996 317 q 751 44 863 106 q 508 -17 639 -17 m 558 13 q 727 58 651 13 q 847 193 803 104 q 890 404 890 282 q 842 635 890 533 q 706 794 794 738 q 500 851 617 851 q 260 753 346 851 q 174 482 174 654 q 222 244 174 351 q 358 74 271 136 q 558 13 446 13 m 550 -265 q 505 -249 521 -265 q 489 -204 489 -233 q 505 -162 489 -178 q 550 -147 521 -147 q 593 -162 578 -147 q 608 -204 608 -178 q 593 -249 608 -233 q 550 -265 578 -265 z "},"Ò":{"ha":1064,"x_min":68,"x_max":996,"o":"m 508 -17 q 278 44 379 -17 q 123 208 178 104 q 68 433 68 311 q 140 678 68 576 q 326 832 213 781 q 557 883 439 883 q 789 822 689 883 q 942 658 889 760 q 996 443 996 557 q 929 211 996 317 q 751 44 863 106 q 508 -17 639 -17 m 558 13 q 727 58 651 13 q 847 193 803 104 q 890 404 890 282 q 842 635 890 533 q 706 794 794 738 q 500 851 617 851 q 260 753 346 851 q 174 482 174 654 q 222 244 174 351 q 358 74 271 136 q 558 13 446 13 m 672 943 q 522 1003 593 978 q 364 1050 450 1029 q 373 1064 353 1053 q 420 1084 393 1075 q 453 1089 447 1093 q 499 1061 483 1069 q 679 957 615 989 q 682 951 682 954 q 679 944 682 947 q 672 943 676 942 z "},"Ỏ":{"ha":1064,"x_min":68,"x_max":996,"o":"m 508 -17 q 278 44 379 -17 q 123 208 178 104 q 68 433 68 311 q 140 678 68 576 q 326 832 213 781 q 557 883 439 883 q 789 822 689 883 q 942 658 889 760 q 996 443 996 557 q 929 211 996 317 q 751 44 863 106 q 508 -17 639 -17 m 558 13 q 727 58 651 13 q 847 193 803 104 q 890 404 890 282 q 842 635 890 533 q 706 794 794 738 q 500 851 617 851 q 260 753 346 851 q 174 482 174 654 q 222 244 174 351 q 358 74 271 136 q 558 13 446 13 m 539 904 q 532 901 540 901 q 522 904 524 901 q 518 933 518 919 q 526 973 518 954 q 549 1014 533 992 q 569 1053 563 1039 q 575 1083 575 1067 q 558 1124 575 1110 q 517 1139 542 1139 q 478 1129 497 1139 l 476 1129 q 468 1134 472 1129 q 468 1142 464 1139 q 558 1169 511 1169 q 624 1149 600 1169 q 647 1097 647 1129 q 633 1053 647 1072 q 590 1004 619 1033 q 550 957 563 974 q 538 918 538 940 q 539 904 538 908 z "},"Ơ":{"ha":1064,"x_min":68,"x_max":1018,"o":"m 1018 914 q 874 753 1018 821 q 964 610 932 692 q 996 443 996 529 q 929 211 996 317 q 751 44 863 106 q 508 -17 639 -17 q 278 44 379 -17 q 123 208 178 104 q 68 433 68 311 q 140 678 68 576 q 326 832 213 781 q 557 883 439 883 q 724 853 647 883 q 857 769 800 824 q 935 854 935 807 q 922 883 935 868 q 911 900 915 892 q 907 924 907 908 q 924 963 907 949 q 964 976 942 976 q 1003 958 989 976 q 1018 914 1018 939 m 558 13 q 727 58 651 13 q 847 193 803 104 q 890 404 890 282 q 842 635 890 533 q 706 794 794 738 q 500 851 617 851 q 260 753 346 851 q 174 482 174 654 q 222 244 174 351 q 358 74 271 136 q 558 13 446 13 z "},"Ớ":{"ha":1064,"x_min":68,"x_max":1018,"o":"m 1018 914 q 874 753 1018 821 q 964 610 932 692 q 996 443 996 529 q 929 211 996 317 q 751 44 863 106 q 508 -17 639 -17 q 278 44 379 -17 q 123 208 178 104 q 68 433 68 311 q 140 678 68 576 q 326 832 213 781 q 557 883 439 883 q 724 853 647 883 q 857 769 800 824 q 935 854 935 807 q 922 883 935 868 q 911 900 915 892 q 907 924 907 908 q 924 963 907 949 q 964 976 942 976 q 1003 958 989 976 q 1018 914 1018 939 m 558 13 q 727 58 651 13 q 847 193 803 104 q 890 404 890 282 q 842 635 890 533 q 706 794 794 738 q 500 851 617 851 q 260 753 346 851 q 174 482 174 654 q 222 244 174 351 q 358 74 271 136 q 558 13 446 13 m 397 942 q 390 948 392 942 q 392 957 388 954 q 543 1044 443 982 q 618 1089 593 1075 q 651 1083 624 1092 q 698 1063 678 1074 q 707 1050 718 1051 q 399 942 543 1008 l 397 942 z "},"Ợ":{"ha":1064,"x_min":68,"x_max":1018,"o":"m 1018 914 q 874 753 1018 821 q 964 610 932 692 q 996 443 996 529 q 929 211 996 317 q 751 44 863 106 q 508 -17 639 -17 q 278 44 379 -17 q 123 208 178 104 q 68 433 68 311 q 140 678 68 576 q 326 832 213 781 q 557 883 439 883 q 724 853 647 883 q 857 769 800 824 q 935 854 935 807 q 922 883 935 868 q 911 900 915 892 q 907 924 907 908 q 924 963 907 949 q 964 976 942 976 q 1003 958 989 976 q 1018 914 1018 939 m 558 13 q 727 58 651 13 q 847 193 803 104 q 890 404 890 282 q 842 635 890 533 q 706 794 794 738 q 500 851 617 851 q 260 753 346 851 q 174 482 174 654 q 222 244 174 351 q 358 74 271 136 q 558 13 446 13 m 535 -265 q 490 -249 506 -265 q 474 -204 474 -233 q 490 -162 474 -178 q 535 -147 506 -147 q 578 -162 563 -147 q 593 -204 593 -178 q 578 -249 593 -233 q 535 -265 563 -265 z "},"Ờ":{"ha":1064,"x_min":68,"x_max":1018,"o":"m 1018 914 q 874 753 1018 821 q 964 610 932 692 q 996 443 996 529 q 929 211 996 317 q 751 44 863 106 q 508 -17 639 -17 q 278 44 379 -17 q 123 208 178 104 q 68 433 68 311 q 140 678 68 576 q 326 832 213 781 q 557 883 439 883 q 724 853 647 883 q 857 769 800 824 q 935 854 935 807 q 922 883 935 868 q 911 900 915 892 q 907 924 907 908 q 924 963 907 949 q 964 976 942 976 q 1003 958 989 976 q 1018 914 1018 939 m 558 13 q 727 58 651 13 q 847 193 803 104 q 890 404 890 282 q 842 635 890 533 q 706 794 794 738 q 500 851 617 851 q 260 753 346 851 q 174 482 174 654 q 222 244 174 351 q 358 74 271 136 q 558 13 446 13 m 671 943 q 520 1003 592 978 q 363 1050 449 1029 q 372 1064 351 1053 q 419 1084 392 1075 q 451 1089 446 1093 q 497 1061 482 1069 q 678 957 614 989 q 681 951 681 954 q 678 944 681 947 q 671 943 675 942 z "},"Ở":{"ha":1064,"x_min":68,"x_max":1018,"o":"m 1018 914 q 874 753 1018 821 q 964 610 932 692 q 996 443 996 529 q 929 211 996 317 q 751 44 863 106 q 508 -17 639 -17 q 278 44 379 -17 q 123 208 178 104 q 68 433 68 311 q 140 678 68 576 q 326 832 213 781 q 557 883 439 883 q 724 853 647 883 q 857 769 800 824 q 935 854 935 807 q 922 883 935 868 q 911 900 915 892 q 907 924 907 908 q 924 963 907 949 q 964 976 942 976 q 1003 958 989 976 q 1018 914 1018 939 m 558 13 q 727 58 651 13 q 847 193 803 104 q 890 404 890 282 q 842 635 890 533 q 706 794 794 738 q 500 851 617 851 q 260 753 346 851 q 174 482 174 654 q 222 244 174 351 q 358 74 271 136 q 558 13 446 13 m 526 918 q 519 915 528 915 q 510 918 511 915 q 506 947 506 933 q 513 985 506 968 q 535 1026 519 1001 q 556 1066 549 1051 q 563 1097 563 1081 q 545 1138 563 1124 q 504 1153 528 1153 q 465 1143 485 1153 l 464 1143 q 455 1148 458 1143 q 456 1154 451 1153 q 546 1183 500 1183 q 611 1163 588 1183 q 635 1111 635 1142 q 620 1065 635 1086 q 578 1017 606 1044 q 538 972 551 990 q 525 932 525 953 q 526 918 525 922 z "},"Ỡ":{"ha":1064,"x_min":68,"x_max":1018,"o":"m 1018 914 q 874 753 1018 821 q 964 610 932 692 q 996 443 996 529 q 929 211 996 317 q 751 44 863 106 q 508 -17 639 -17 q 278 44 379 -17 q 123 208 178 104 q 68 433 68 311 q 140 678 68 576 q 326 832 213 781 q 557 883 439 883 q 724 853 647 883 q 857 769 800 824 q 935 854 935 807 q 922 883 935 868 q 911 900 915 892 q 907 924 907 908 q 924 963 907 949 q 964 976 942 976 q 1003 958 989 976 q 1018 914 1018 939 m 558 13 q 727 58 651 13 q 847 193 803 104 q 890 404 890 282 q 842 635 890 533 q 706 794 794 738 q 500 851 617 851 q 260 753 346 851 q 174 482 174 654 q 222 244 174 351 q 358 74 271 136 q 558 13 446 13 m 640 1060 q 677 1069 664 1060 q 708 1097 690 1078 l 710 1097 q 717 1094 714 1097 q 718 1088 721 1090 q 659 1019 682 1036 q 608 1001 636 1001 q 556 1008 583 1001 q 524 1017 529 1015 q 426 1035 467 1035 q 390 1026 401 1035 q 358 997 378 1018 l 357 997 q 349 1001 353 997 q 349 1007 346 1004 q 403 1067 372 1040 q 467 1094 433 1094 q 536 1079 490 1094 q 576 1069 543 1078 q 640 1060 608 1060 z "},"Ő":{"ha":1064,"x_min":68,"x_max":996,"o":"m 508 -17 q 278 44 379 -17 q 123 208 178 104 q 68 433 68 311 q 140 678 68 576 q 326 832 213 781 q 557 883 439 883 q 789 822 689 883 q 942 658 889 760 q 996 443 996 557 q 929 211 996 317 q 751 44 863 106 q 508 -17 639 -17 m 558 13 q 727 58 651 13 q 847 193 803 104 q 890 404 890 282 q 842 635 890 533 q 706 794 794 738 q 500 851 617 851 q 260 753 346 851 q 174 482 174 654 q 222 244 174 351 q 358 74 271 136 q 558 13 446 13 m 386 939 q 381 945 382 939 q 382 954 379 951 q 507 1086 446 1015 q 538 1085 511 1092 q 585 1067 564 1078 q 596 1053 606 1057 q 389 940 492 1011 l 386 939 m 558 939 q 553 945 554 939 q 554 954 551 951 q 679 1086 601 997 q 709 1085 683 1092 q 755 1067 735 1078 q 765 1053 775 1057 q 561 940 664 1010 l 558 939 z "},"Ō":{"ha":1064,"x_min":68,"x_max":996,"o":"m 508 -17 q 278 44 379 -17 q 123 208 178 104 q 68 433 68 311 q 140 678 68 576 q 326 832 213 781 q 557 883 439 883 q 789 822 689 883 q 942 658 889 760 q 996 443 996 557 q 929 211 996 317 q 751 44 863 106 q 508 -17 639 -17 m 558 13 q 727 58 651 13 q 847 193 803 104 q 890 404 890 282 q 842 635 890 533 q 706 794 794 738 q 500 851 617 851 q 260 753 346 851 q 174 482 174 654 q 222 244 174 351 q 358 74 271 136 q 558 13 446 13 m 360 1003 q 351 1022 351 1003 q 360 1042 351 1042 l 708 1042 q 718 1022 718 1042 q 708 1003 718 1003 l 360 1003 z "},"Ǫ":{"ha":1064,"x_min":68,"x_max":996,"o":"m 610 -7 q 535 -100 558 -54 q 511 -199 511 -146 q 544 -302 511 -264 q 640 -340 578 -340 q 690 -332 669 -340 q 731 -308 711 -324 l 733 -308 q 741 -312 738 -308 q 740 -319 744 -317 q 590 -382 669 -382 q 474 -344 515 -382 q 433 -244 433 -307 q 576 -12 433 -131 q 508 -17 543 -17 q 278 44 379 -17 q 123 208 178 104 q 68 433 68 311 q 140 678 68 576 q 326 832 213 781 q 557 883 439 883 q 789 822 689 883 q 942 658 889 760 q 996 443 996 557 q 945 238 996 333 q 806 79 894 143 q 610 -7 718 15 m 174 482 q 222 244 174 351 q 358 74 271 136 q 558 13 446 13 q 727 58 651 13 q 847 193 803 104 q 890 404 890 282 q 842 635 890 533 q 706 794 794 738 q 500 851 617 851 q 260 753 346 851 q 174 482 174 654 z "},"Ø":{"ha":1071,"x_min":68,"x_max":996,"o":"m 868 758 q 963 614 929 697 q 996 443 996 531 q 929 211 996 317 q 751 44 863 106 q 508 -17 639 -17 q 346 12 421 -17 q 213 93 271 40 l 111 -10 l 108 -11 q 95 -2 103 -11 q 92 11 88 7 l 192 113 q 100 257 132 174 q 68 433 68 340 q 140 678 68 576 q 326 832 213 781 q 557 883 439 883 q 847 778 728 883 l 943 875 l 946 876 q 960 869 951 876 q 964 857 968 861 l 868 758 m 174 482 q 258 179 174 307 l 789 719 q 664 817 738 783 q 500 851 590 851 q 260 753 346 851 q 174 482 174 654 m 558 13 q 727 58 651 13 q 847 193 803 104 q 890 404 890 282 q 807 697 890 575 l 274 156 q 399 50 326 88 q 558 13 471 13 z "},"Ǿ":{"ha":1071,"x_min":68,"x_max":996,"o":"m 868 758 q 963 614 929 697 q 996 443 996 531 q 929 211 996 317 q 751 44 863 106 q 508 -17 639 -17 q 346 12 421 -17 q 213 93 271 40 l 111 -10 l 108 -11 q 95 -2 103 -11 q 92 11 88 7 l 192 113 q 100 257 132 174 q 68 433 68 340 q 140 678 68 576 q 326 832 213 781 q 557 883 439 883 q 847 778 728 883 l 943 875 l 946 876 q 960 869 951 876 q 964 857 968 861 l 868 758 m 174 482 q 258 179 174 307 l 789 719 q 664 817 738 783 q 500 851 590 851 q 260 753 346 851 q 174 482 174 654 m 558 13 q 727 58 651 13 q 847 193 803 104 q 890 404 890 282 q 807 697 890 575 l 274 156 q 399 50 326 88 q 558 13 471 13 m 401 942 q 394 948 396 942 q 397 957 393 954 q 549 1044 449 982 q 624 1089 599 1075 q 656 1084 629 1093 q 703 1064 683 1075 q 713 1050 724 1053 q 555 1003 626 1029 q 404 943 483 978 l 401 942 z "},"Õ":{"ha":1064,"x_min":68,"x_max":996,"o":"m 508 -17 q 278 44 379 -17 q 123 208 178 104 q 68 433 68 311 q 140 678 68 576 q 326 832 213 781 q 557 883 439 883 q 789 822 689 883 q 942 658 889 760 q 996 443 996 557 q 929 211 996 317 q 751 44 863 106 q 508 -17 639 -17 m 558 13 q 727 58 651 13 q 847 193 803 104 q 890 404 890 282 q 842 635 890 533 q 706 794 794 738 q 500 851 617 851 q 260 753 346 851 q 174 482 174 654 q 222 244 174 351 q 358 74 271 136 q 558 13 446 13 m 643 1031 q 681 1040 667 1031 q 711 1068 694 1050 l 713 1068 q 720 1065 717 1068 q 722 1058 724 1061 q 662 990 685 1007 q 611 972 639 972 q 559 979 586 972 q 526 988 532 986 q 429 1006 469 1006 q 392 997 404 1006 q 361 968 381 989 l 360 968 q 353 972 357 968 q 351 978 350 975 q 406 1038 375 1011 q 469 1065 438 1065 q 539 1050 493 1065 q 578 1040 546 1049 q 643 1031 611 1031 z "},"Œ":{"ha":1269,"x_min":68,"x_max":1200,"o":"m 1185 206 q 1192 208 1185 208 q 1200 204 1200 208 q 1188 21 1188 94 q 1183 5 1188 10 q 1167 0 1179 0 l 753 0 q 656 -3 725 0 q 553 -6 586 -6 q 302 50 413 -6 q 130 203 192 106 q 68 418 68 300 q 133 656 68 553 q 306 815 197 758 q 546 871 415 871 q 640 869 606 871 l 749 868 l 1142 868 q 1156 856 1156 868 l 1158 683 q 1151 681 1158 681 q 1142 683 1143 681 q 1097 794 1139 749 q 993 839 1056 839 l 906 839 q 834 832 857 839 q 802 808 811 825 q 793 754 793 790 l 793 465 l 963 465 q 1058 488 1029 465 q 1088 564 1088 511 q 1095 567 1088 567 q 1103 564 1103 567 l 1101 451 q 1103 389 1101 410 l 1104 324 q 1097 319 1104 319 q 1089 324 1089 319 q 1058 411 1089 385 q 958 438 1028 438 l 793 438 l 793 118 q 801 63 793 81 q 833 37 810 44 q 901 29 856 29 l 1017 29 q 1124 79 1076 29 q 1185 206 1171 129 m 703 742 q 691 806 703 783 q 649 840 679 829 q 561 850 619 850 q 360 803 447 850 q 223 666 272 757 q 174 449 174 575 q 220 228 174 326 q 353 72 267 129 q 553 15 439 15 q 644 22 613 15 q 689 51 675 29 q 703 114 703 72 l 703 742 z "},"P":{"ha":754,"x_min":56,"x_max":696,"o":"m 267 118 q 278 53 267 74 q 324 25 290 33 q 432 17 358 17 q 436 8 436 17 q 432 0 436 0 q 343 1 375 0 l 222 3 l 129 1 q 58 0 103 0 q 56 8 56 0 q 58 17 56 17 q 135 24 111 17 q 169 51 160 31 q 178 113 178 71 l 178 756 q 169 817 178 797 q 135 844 160 836 q 58 851 111 851 q 56 860 56 851 q 58 868 56 868 l 128 867 q 221 864 186 864 q 299 868 253 864 q 415 872 407 872 q 619 815 542 872 q 696 642 696 758 q 651 488 696 550 q 535 394 606 425 q 390 364 465 364 q 322 371 349 364 q 318 378 318 371 q 320 386 318 382 q 325 389 322 390 q 375 383 347 383 q 530 443 467 383 q 593 617 593 503 q 533 789 593 726 q 381 851 474 851 q 307 846 329 851 q 276 820 285 840 q 267 753 267 800 l 267 118 z "},"Þ":{"ha":746,"x_min":57,"x_max":696,"o":"m 378 204 q 531 265 468 204 q 593 439 593 325 q 530 612 593 550 q 361 674 467 674 q 265 663 314 674 l 265 118 q 277 53 265 74 q 323 25 289 33 q 431 17 357 17 q 435 8 435 17 q 431 0 435 0 q 342 1 374 0 l 222 3 l 128 1 q 61 0 103 0 q 57 8 57 0 q 61 17 57 17 q 136 24 113 17 q 168 51 160 31 q 176 113 176 71 l 176 756 q 168 817 176 797 q 136 844 160 836 q 61 851 113 851 q 57 860 57 851 q 61 868 57 868 l 128 867 q 222 864 186 864 q 342 867 269 864 l 431 868 q 435 860 435 868 q 431 851 435 851 q 323 843 357 851 q 277 814 289 835 q 265 749 265 793 l 265 683 q 396 693 328 693 q 614 638 532 693 q 696 457 696 582 q 650 306 696 367 q 534 215 604 244 q 392 185 464 185 q 324 192 361 185 q 321 199 321 192 q 323 207 321 203 q 328 210 325 211 q 378 204 358 204 z "},"Q":{"ha":1064,"x_min":68,"x_max":1043,"o":"m 1035 -222 q 1041 -228 1039 -221 q 1040 -237 1043 -236 q 922 -254 971 -254 q 719 -191 825 -254 q 538 -15 614 -128 q 508 -17 528 -17 q 278 44 379 -17 q 123 208 178 104 q 68 433 68 311 q 140 678 68 576 q 326 832 213 781 q 557 883 439 883 q 789 822 689 883 q 942 658 889 760 q 996 443 996 557 q 951 249 996 340 q 826 94 906 158 q 647 3 747 31 q 802 -162 706 -97 q 985 -228 899 -228 q 1035 -222 1010 -228 m 174 482 q 222 244 174 351 q 358 74 271 136 q 558 13 446 13 q 727 58 651 13 q 847 193 803 104 q 890 404 890 282 q 842 635 890 533 q 706 794 794 738 q 500 851 617 851 q 260 753 346 851 q 174 482 174 654 z "},"R":{"ha":935,"x_min":57,"x_max":951,"o":"m 947 17 q 951 8 951 17 q 947 0 951 0 l 769 0 q 640 119 735 0 q 408 449 544 238 q 333 440 371 440 q 271 443 307 440 l 271 113 q 279 50 271 69 q 312 24 288 31 q 389 17 336 17 q 393 8 393 17 q 389 0 393 0 q 322 1 346 0 l 225 3 l 131 1 q 61 0 106 0 q 57 8 57 0 q 61 17 57 17 q 138 24 114 17 q 172 51 163 31 q 181 113 181 71 l 181 756 q 172 817 181 797 q 140 844 164 836 q 63 851 115 851 q 58 860 58 851 q 63 868 58 868 l 131 867 q 225 864 189 864 q 272 865 250 864 q 311 868 294 867 q 392 872 356 872 q 566 826 506 872 q 626 697 626 779 q 588 572 626 631 q 485 479 549 514 q 684 203 604 303 q 826 60 764 104 q 947 17 889 17 m 271 476 q 353 472 308 472 q 490 513 449 472 q 532 650 532 554 q 361 853 532 853 q 306 847 324 853 q 279 819 288 840 q 271 753 271 799 l 271 476 z "},"Ŕ":{"ha":935,"x_min":57,"x_max":951,"o":"m 947 17 q 951 8 951 17 q 947 0 951 0 l 769 0 q 640 119 735 0 q 408 449 544 238 q 333 440 371 440 q 271 443 307 440 l 271 113 q 279 50 271 69 q 312 24 288 31 q 389 17 336 17 q 393 8 393 17 q 389 0 393 0 q 322 1 346 0 l 225 3 l 131 1 q 61 0 106 0 q 57 8 57 0 q 61 17 57 17 q 138 24 114 17 q 172 51 163 31 q 181 113 181 71 l 181 756 q 172 817 181 797 q 140 844 164 836 q 63 851 115 851 q 58 860 58 851 q 63 868 58 868 l 131 867 q 225 864 189 864 q 272 865 250 864 q 311 868 294 867 q 392 872 356 872 q 566 826 506 872 q 626 697 626 779 q 588 572 626 631 q 485 479 549 514 q 684 203 604 303 q 826 60 764 104 q 947 17 889 17 m 271 476 q 353 472 308 472 q 490 513 449 472 q 532 650 532 554 q 361 853 532 853 q 306 847 324 853 q 279 819 288 840 q 271 753 271 799 l 271 476 m 219 942 q 213 948 214 942 q 215 957 211 954 q 367 1044 267 982 q 442 1089 417 1075 q 474 1084 447 1093 q 522 1064 501 1075 q 531 1050 542 1053 q 373 1003 444 1029 q 222 943 301 978 l 219 942 z "},"Ř":{"ha":935,"x_min":57,"x_max":951,"o":"m 947 17 q 951 8 951 17 q 947 0 951 0 l 769 0 q 640 119 735 0 q 408 449 544 238 q 333 440 371 440 q 271 443 307 440 l 271 113 q 279 50 271 69 q 312 24 288 31 q 389 17 336 17 q 393 8 393 17 q 389 0 393 0 q 322 1 346 0 l 225 3 l 131 1 q 61 0 106 0 q 57 8 57 0 q 61 17 57 17 q 138 24 114 17 q 172 51 163 31 q 181 113 181 71 l 181 756 q 172 817 181 797 q 140 844 164 836 q 63 851 115 851 q 58 860 58 851 q 63 868 58 868 l 131 867 q 225 864 189 864 q 272 865 250 864 q 311 868 294 867 q 392 872 356 872 q 566 826 506 872 q 626 697 626 779 q 588 572 626 631 q 485 479 549 514 q 684 203 604 303 q 826 60 764 104 q 947 17 889 17 m 271 476 q 353 472 308 472 q 490 513 449 472 q 532 650 532 554 q 361 853 532 853 q 306 847 324 853 q 279 819 288 840 q 271 753 271 799 l 271 476 m 197 1089 q 196 1090 196 1089 q 196 1090 196 1090 q 199 1097 196 1093 q 206 1099 203 1100 l 357 1019 l 507 1099 l 508 1099 q 515 1095 513 1099 q 514 1089 517 1092 l 372 954 q 357 949 367 949 q 340 954 346 949 l 197 1089 z "},"Ŗ":{"ha":935,"x_min":57,"x_max":951,"o":"m 947 17 q 951 8 951 17 q 947 0 951 0 l 769 0 q 640 119 735 0 q 408 449 544 238 q 333 440 371 440 q 271 443 307 440 l 271 113 q 279 50 271 69 q 312 24 288 31 q 389 17 336 17 q 393 8 393 17 q 389 0 393 0 q 322 1 346 0 l 225 3 l 131 1 q 61 0 106 0 q 57 8 57 0 q 61 17 57 17 q 138 24 114 17 q 172 51 163 31 q 181 113 181 71 l 181 756 q 172 817 181 797 q 140 844 164 836 q 63 851 115 851 q 58 860 58 851 q 63 868 58 868 l 131 867 q 225 864 189 864 q 272 865 250 864 q 311 868 294 867 q 392 872 356 872 q 566 826 506 872 q 626 697 626 779 q 588 572 626 631 q 485 479 549 514 q 684 203 604 303 q 826 60 764 104 q 947 17 889 17 m 271 476 q 353 472 308 472 q 490 513 449 472 q 532 650 532 554 q 361 853 532 853 q 306 847 324 853 q 279 819 288 840 q 271 753 271 799 l 271 476 m 465 -118 q 523 -144 503 -118 q 543 -219 543 -171 q 522 -305 543 -265 q 458 -382 500 -344 q 454 -383 457 -383 q 447 -378 450 -383 q 447 -371 444 -374 q 508 -247 508 -315 q 500 -207 508 -219 q 458 -228 489 -228 q 419 -213 433 -228 q 404 -174 404 -199 q 465 -118 404 -118 z "},"Ṛ":{"ha":935,"x_min":57,"x_max":951,"o":"m 947 17 q 951 8 951 17 q 947 0 951 0 l 769 0 q 640 119 735 0 q 408 449 544 238 q 333 440 371 440 q 271 443 307 440 l 271 113 q 279 50 271 69 q 312 24 288 31 q 389 17 336 17 q 393 8 393 17 q 389 0 393 0 q 322 1 346 0 l 225 3 l 131 1 q 61 0 106 0 q 57 8 57 0 q 61 17 57 17 q 138 24 114 17 q 172 51 163 31 q 181 113 181 71 l 181 756 q 172 817 181 797 q 140 844 164 836 q 63 851 115 851 q 58 860 58 851 q 63 868 58 868 l 131 867 q 225 864 189 864 q 272 865 250 864 q 311 868 294 867 q 392 872 356 872 q 566 826 506 872 q 626 697 626 779 q 588 572 626 631 q 485 479 549 514 q 684 203 604 303 q 826 60 764 104 q 947 17 889 17 m 271 476 q 353 472 308 472 q 490 513 449 472 q 532 650 532 554 q 361 853 532 853 q 306 847 324 853 q 279 819 288 840 q 271 753 271 799 l 271 476 m 475 -265 q 430 -249 446 -265 q 414 -204 414 -233 q 430 -162 414 -178 q 475 -147 446 -147 q 518 -162 503 -147 q 533 -204 533 -178 q 518 -249 533 -233 q 475 -265 503 -265 z "},"Ṝ":{"ha":935,"x_min":57,"x_max":951,"o":"m 947 17 q 951 8 951 17 q 947 0 951 0 l 769 0 q 640 119 735 0 q 408 449 544 238 q 333 440 371 440 q 271 443 307 440 l 271 113 q 279 50 271 69 q 312 24 288 31 q 389 17 336 17 q 393 8 393 17 q 389 0 393 0 q 322 1 346 0 l 225 3 l 131 1 q 61 0 106 0 q 57 8 57 0 q 61 17 57 17 q 138 24 114 17 q 172 51 163 31 q 181 113 181 71 l 181 756 q 172 817 181 797 q 140 844 164 836 q 63 851 115 851 q 58 860 58 851 q 63 868 58 868 l 131 867 q 225 864 189 864 q 272 865 250 864 q 311 868 294 867 q 392 872 356 872 q 566 826 506 872 q 626 697 626 779 q 588 572 626 631 q 485 479 549 514 q 684 203 604 303 q 826 60 764 104 q 947 17 889 17 m 271 476 q 353 472 308 472 q 490 513 449 472 q 532 650 532 554 q 361 853 532 853 q 306 847 324 853 q 279 819 288 840 q 271 753 271 799 l 271 476 m 475 -265 q 430 -249 446 -265 q 414 -204 414 -233 q 430 -162 414 -178 q 475 -147 446 -147 q 518 -162 503 -147 q 533 -204 533 -178 q 518 -249 533 -233 q 475 -265 503 -265 m 182 1003 q 174 1022 174 1003 q 182 1042 174 1042 l 531 1042 q 538 1035 535 1042 q 540 1022 540 1029 q 538 1009 540 1015 q 531 1003 535 1003 l 182 1003 z "},"Ṟ":{"ha":935,"x_min":57,"x_max":951,"o":"m 947 17 q 951 8 951 17 q 947 0 951 0 l 769 0 q 640 119 735 0 q 408 449 544 238 q 333 440 371 440 q 271 443 307 440 l 271 113 q 279 50 271 69 q 312 24 288 31 q 389 17 336 17 q 393 8 393 17 q 389 0 393 0 q 322 1 346 0 l 225 3 l 131 1 q 61 0 106 0 q 57 8 57 0 q 61 17 57 17 q 138 24 114 17 q 172 51 163 31 q 181 113 181 71 l 181 756 q 172 817 181 797 q 140 844 164 836 q 63 851 115 851 q 58 860 58 851 q 63 868 58 868 l 131 867 q 225 864 189 864 q 272 865 250 864 q 311 868 294 867 q 392 872 356 872 q 566 826 506 872 q 626 697 626 779 q 588 572 626 631 q 485 479 549 514 q 684 203 604 303 q 826 60 764 104 q 947 17 889 17 m 271 476 q 353 472 308 472 q 490 513 449 472 q 532 650 532 554 q 361 853 532 853 q 306 847 324 853 q 279 819 288 840 q 271 753 271 799 l 271 476 m 299 -157 q 290 -137 290 -157 q 299 -118 290 -118 l 647 -118 q 654 -124 651 -118 q 657 -137 657 -131 q 654 -151 657 -144 q 647 -157 651 -157 l 299 -157 z "},"S":{"ha":682,"x_min":93,"x_max":607,"o":"m 201 706 q 228 611 201 651 q 292 544 254 571 q 397 476 331 517 q 510 403 471 432 q 578 328 550 374 q 607 221 607 283 q 574 100 607 154 q 476 15 540 46 q 321 -17 411 -17 q 125 32 218 -17 q 116 42 118 36 q 113 58 114 47 l 94 247 q 101 254 93 253 q 111 250 108 256 q 192 78 132 150 q 353 6 253 6 q 470 44 422 6 q 518 165 518 82 q 491 273 518 228 q 424 348 464 318 q 317 419 385 378 q 211 488 250 458 q 146 563 172 518 q 119 667 119 607 q 156 785 119 736 q 252 859 193 835 q 378 883 311 883 q 540 850 464 883 q 563 826 563 842 l 571 667 q 563 661 571 661 q 554 667 556 661 q 528 755 550 710 q 462 831 506 800 q 356 863 418 863 q 240 817 278 863 q 201 706 201 772 z "},"Ś":{"ha":682,"x_min":94,"x_max":607,"o":"m 201 706 q 228 611 201 651 q 292 544 254 571 q 397 476 331 517 q 510 403 471 432 q 578 328 550 374 q 607 221 607 283 q 574 100 607 154 q 476 15 540 46 q 321 -17 411 -17 q 125 32 218 -17 q 116 42 118 36 q 113 58 114 47 l 94 247 q 101 254 93 253 q 111 250 108 256 q 192 78 132 150 q 353 6 253 6 q 470 44 422 6 q 518 165 518 82 q 491 273 518 228 q 424 348 464 318 q 317 419 385 378 q 211 488 250 458 q 146 563 172 518 q 119 667 119 607 q 156 785 119 736 q 252 859 193 835 q 378 883 311 883 q 540 850 464 883 q 563 826 563 842 l 571 667 q 563 661 571 661 q 554 667 556 661 q 528 755 550 710 q 462 831 506 800 q 356 863 418 863 q 240 817 278 863 q 201 706 201 772 m 218 942 q 211 948 213 942 q 214 957 210 954 q 365 1044 265 982 q 440 1089 415 1075 q 473 1084 446 1093 q 520 1064 500 1075 q 529 1050 540 1053 q 372 1003 443 1029 q 221 943 300 978 l 218 942 z "},"Š":{"ha":682,"x_min":94,"x_max":607,"o":"m 201 706 q 228 611 201 651 q 292 544 254 571 q 397 476 331 517 q 510 403 471 432 q 578 328 550 374 q 607 221 607 283 q 574 100 607 154 q 476 15 540 46 q 321 -17 411 -17 q 125 32 218 -17 q 116 42 118 36 q 113 58 114 47 l 94 247 q 101 254 93 253 q 111 250 108 256 q 192 78 132 150 q 353 6 253 6 q 470 44 422 6 q 518 165 518 82 q 491 273 518 228 q 424 348 464 318 q 317 419 385 378 q 211 488 250 458 q 146 563 172 518 q 119 667 119 607 q 156 785 119 736 q 252 859 193 835 q 378 883 311 883 q 540 850 464 883 q 563 826 563 842 l 571 667 q 563 661 571 661 q 554 667 556 661 q 528 755 550 710 q 462 831 506 800 q 356 863 418 863 q 240 817 278 863 q 201 706 201 772 m 196 1089 q 194 1090 194 1089 q 194 1090 194 1090 q 198 1097 194 1093 q 204 1099 201 1100 l 356 1019 l 506 1099 l 507 1099 q 513 1095 511 1099 q 513 1089 515 1092 l 371 954 q 356 949 365 949 q 339 954 344 949 l 196 1089 z "},"Ş":{"ha":682,"x_min":93,"x_max":607,"o":"m 607 221 q 542 62 607 128 q 364 -15 478 -4 q 349 -81 349 -64 q 360 -109 349 -99 q 408 -142 372 -119 q 465 -187 444 -162 q 485 -249 485 -211 q 448 -341 485 -300 q 340 -382 411 -382 q 276 -368 301 -382 q 251 -328 251 -354 q 264 -299 251 -311 q 293 -287 276 -287 q 317 -295 308 -287 q 333 -318 325 -303 q 353 -345 343 -336 q 385 -354 364 -354 q 418 -341 406 -354 q 431 -303 431 -328 q 405 -237 431 -267 q 313 -172 379 -208 q 293 -154 293 -162 q 300 -131 293 -149 q 343 -17 318 -87 l 321 -17 q 125 32 218 -17 q 116 42 118 36 q 113 58 114 47 l 94 247 q 101 254 93 253 q 111 250 108 256 q 192 78 132 150 q 353 6 253 6 q 470 44 422 6 q 518 165 518 82 q 491 273 518 228 q 424 348 464 318 q 317 419 385 378 q 211 488 250 458 q 146 563 172 518 q 119 667 119 607 q 156 785 119 736 q 252 859 193 835 q 378 883 311 883 q 540 850 464 883 q 563 826 563 842 l 571 667 q 563 661 571 661 q 554 667 556 661 q 528 755 550 710 q 462 831 506 800 q 356 863 418 863 q 240 817 278 863 q 201 706 201 772 q 228 611 201 651 q 292 544 254 571 q 397 476 331 517 q 510 403 471 432 q 578 328 550 374 q 607 221 607 283 z "},"Ŝ":{"ha":682,"x_min":94,"x_max":607,"o":"m 201 706 q 228 611 201 651 q 292 544 254 571 q 397 476 331 517 q 510 403 471 432 q 578 328 550 374 q 607 221 607 283 q 574 100 607 154 q 476 15 540 46 q 321 -17 411 -17 q 125 32 218 -17 q 116 42 118 36 q 113 58 114 47 l 94 247 q 101 254 93 253 q 111 250 108 256 q 192 78 132 150 q 353 6 253 6 q 470 44 422 6 q 518 165 518 82 q 491 273 518 228 q 424 348 464 318 q 317 419 385 378 q 211 488 250 458 q 146 563 172 518 q 119 667 119 607 q 156 785 119 736 q 252 859 193 835 q 378 883 311 883 q 540 850 464 883 q 563 826 563 842 l 571 667 q 563 661 571 661 q 554 667 556 661 q 528 755 550 710 q 462 831 506 800 q 356 863 418 863 q 240 817 278 863 q 201 706 201 772 m 340 1097 q 357 1104 347 1104 q 372 1097 365 1104 l 514 963 q 514 956 518 961 q 507 953 510 950 l 357 1032 l 206 953 q 199 956 203 951 q 197 963 194 961 l 340 1097 z "},"Ș":{"ha":682,"x_min":94,"x_max":607,"o":"m 201 706 q 228 611 201 651 q 292 544 254 571 q 397 476 331 517 q 510 403 471 432 q 578 328 550 374 q 607 221 607 283 q 574 100 607 154 q 476 15 540 46 q 321 -17 411 -17 q 125 32 218 -17 q 116 42 118 36 q 113 58 114 47 l 94 247 q 101 254 93 253 q 111 250 108 256 q 192 78 132 150 q 353 6 253 6 q 470 44 422 6 q 518 165 518 82 q 491 273 518 228 q 424 348 464 318 q 317 419 385 378 q 211 488 250 458 q 146 563 172 518 q 119 667 119 607 q 156 785 119 736 q 252 859 193 835 q 378 883 311 883 q 540 850 464 883 q 563 826 563 842 l 571 667 q 563 661 571 661 q 554 667 556 661 q 528 755 550 710 q 462 831 506 800 q 356 863 418 863 q 240 817 278 863 q 201 706 201 772 m 361 -118 q 419 -144 399 -118 q 439 -219 439 -171 q 417 -305 439 -265 q 354 -382 396 -344 q 350 -383 353 -383 q 343 -378 346 -383 q 343 -371 340 -374 q 404 -247 404 -315 q 396 -207 404 -219 q 354 -228 385 -228 q 315 -213 329 -228 q 300 -174 300 -199 q 361 -118 300 -118 z "},"Ṡ":{"ha":682,"x_min":94,"x_max":607,"o":"m 201 706 q 228 611 201 651 q 292 544 254 571 q 397 476 331 517 q 510 403 471 432 q 578 328 550 374 q 607 221 607 283 q 574 100 607 154 q 476 15 540 46 q 321 -17 411 -17 q 125 32 218 -17 q 116 42 118 36 q 113 58 114 47 l 94 247 q 101 254 93 253 q 111 250 108 256 q 192 78 132 150 q 353 6 253 6 q 470 44 422 6 q 518 165 518 82 q 491 273 518 228 q 424 348 464 318 q 317 419 385 378 q 211 488 250 458 q 146 563 172 518 q 119 667 119 607 q 156 785 119 736 q 252 859 193 835 q 378 883 311 883 q 540 850 464 883 q 563 826 563 842 l 571 667 q 563 661 571 661 q 554 667 556 661 q 528 755 550 710 q 462 831 506 800 q 356 863 418 863 q 240 817 278 863 q 201 706 201 772 m 357 990 q 312 1006 328 990 q 296 1051 296 1022 q 312 1093 296 1078 q 357 1108 328 1108 q 400 1093 385 1108 q 415 1051 415 1078 q 400 1006 415 1022 q 357 990 385 990 z "},"Ṣ":{"ha":682,"x_min":94,"x_max":607,"o":"m 201 706 q 228 611 201 651 q 292 544 254 571 q 397 476 331 517 q 510 403 471 432 q 578 328 550 374 q 607 221 607 283 q 574 100 607 154 q 476 15 540 46 q 321 -17 411 -17 q 125 32 218 -17 q 116 42 118 36 q 113 58 114 47 l 94 247 q 101 254 93 253 q 111 250 108 256 q 192 78 132 150 q 353 6 253 6 q 470 44 422 6 q 518 165 518 82 q 491 273 518 228 q 424 348 464 318 q 317 419 385 378 q 211 488 250 458 q 146 563 172 518 q 119 667 119 607 q 156 785 119 736 q 252 859 193 835 q 378 883 311 883 q 540 850 464 883 q 563 826 563 842 l 571 667 q 563 661 571 661 q 554 667 556 661 q 528 755 550 710 q 462 831 506 800 q 356 863 418 863 q 240 817 278 863 q 201 706 201 772 m 371 -265 q 326 -249 342 -265 q 310 -204 310 -233 q 326 -162 310 -178 q 371 -147 342 -147 q 414 -162 399 -147 q 429 -204 429 -178 q 414 -249 429 -233 q 371 -265 399 -265 z "},"ẞ":{"ha":961,"x_min":32,"x_max":888,"o":"m 667 13 q 772 52 728 13 q 817 163 817 92 q 759 311 817 240 q 567 476 701 382 q 563 497 554 483 l 717 742 q 553 811 633 788 q 408 835 472 835 q 313 811 349 835 q 261 727 278 788 q 244 557 244 667 l 244 113 q 252 50 244 69 q 283 24 260 31 q 361 17 307 17 q 364 8 364 17 q 361 0 364 0 l 197 1 l 36 0 q 32 8 32 0 q 36 17 32 17 q 110 24 86 17 q 144 51 135 32 q 154 113 154 71 l 154 525 q 192 697 154 614 q 306 831 231 779 q 486 883 382 883 q 721 836 576 883 q 760 826 753 826 q 783 835 774 826 q 813 874 792 844 q 821 878 817 878 q 828 875 825 878 q 828 868 831 872 l 621 543 q 826 376 764 449 q 888 229 888 304 q 855 114 888 171 q 761 20 822 57 q 618 -17 700 -17 q 537 -7 574 -17 q 458 28 500 3 q 449 36 451 31 q 446 54 447 42 l 428 199 q 434 206 426 204 q 443 201 442 207 q 488 113 453 157 q 572 40 524 68 q 667 13 621 13 z "},"Ə":{"ha":889,"x_min":67,"x_max":814,"o":"m 393 883 q 642 821 549 883 q 775 660 736 758 q 814 450 814 563 q 756 200 814 306 q 597 39 697 94 q 375 -17 497 -17 q 201 22 271 -17 q 99 117 132 61 q 67 226 67 174 q 70 240 67 236 q 82 243 74 243 l 694 246 q 711 400 711 315 q 674 638 711 532 q 564 803 636 743 q 393 864 492 864 q 216 813 300 864 q 99 667 132 763 q 92 664 99 664 q 84 666 88 664 q 82 669 81 668 l 140 888 q 147 892 140 892 q 153 890 150 892 q 156 885 157 888 q 154 871 154 879 q 160 850 154 857 q 178 843 167 843 q 193 846 182 843 q 297 875 253 867 q 393 883 340 883 m 424 10 q 591 64 524 10 q 688 219 658 118 l 168 213 q 250 65 179 121 q 424 10 321 10 z "},"T":{"ha":881,"x_min":53,"x_max":831,"o":"m 263 843 q 131 799 175 843 q 69 647 88 754 q 60 644 68 644 q 53 649 53 644 q 65 770 58 686 q 72 899 72 854 q 81 906 72 906 q 89 899 89 906 q 163 868 89 868 q 442 864 281 864 q 617 867 525 864 l 710 868 q 784 875 760 868 q 815 903 808 882 q 824 908 817 908 q 831 903 831 908 q 822 781 826 864 q 818 649 818 699 q 810 644 818 644 q 801 649 803 644 q 757 799 797 756 q 624 843 717 843 q 535 838 561 843 q 499 814 508 832 q 489 753 489 796 l 489 113 q 499 50 489 69 q 536 24 508 31 q 624 17 564 17 q 628 8 628 17 q 624 0 628 0 q 550 1 576 0 l 442 3 l 338 1 q 261 0 310 0 q 258 8 258 0 q 261 17 258 17 q 349 24 321 17 q 387 51 376 31 q 397 113 397 71 l 397 756 q 388 816 397 799 q 351 838 378 833 q 263 843 325 843 z "},"Ŧ":{"ha":878,"x_min":53,"x_max":831,"o":"m 815 903 q 824 908 817 908 q 831 903 831 908 q 822 781 826 864 q 818 649 818 699 q 810 644 818 644 q 801 649 803 644 q 757 799 797 756 q 624 843 717 843 q 535 838 561 843 q 499 814 508 832 q 489 753 489 796 l 489 463 l 628 463 q 633 449 633 463 q 628 433 633 433 l 489 433 l 489 113 q 499 50 489 69 q 536 24 508 31 q 624 17 564 17 q 628 8 628 17 q 624 0 628 0 q 550 1 576 0 l 442 3 l 338 1 q 261 0 310 0 q 258 8 258 0 q 261 17 258 17 q 349 24 321 17 q 387 51 376 31 q 397 113 397 71 l 397 433 l 260 433 q 254 449 254 433 q 260 463 254 463 l 397 463 l 397 756 q 388 816 397 799 q 351 838 378 833 q 263 843 325 843 q 131 799 175 843 q 69 647 88 754 q 60 644 68 644 q 53 649 53 644 q 65 770 58 686 q 72 899 72 854 q 81 906 72 906 q 89 899 89 906 q 163 868 89 868 q 442 864 281 864 q 617 867 525 864 l 710 868 q 784 875 760 868 q 815 903 808 882 z "},"Ť":{"ha":881,"x_min":53,"x_max":831,"o":"m 263 843 q 131 799 175 843 q 69 647 88 754 q 60 644 68 644 q 53 649 53 644 q 65 770 58 686 q 72 899 72 854 q 81 906 72 906 q 89 899 89 906 q 163 868 89 868 q 442 864 281 864 q 617 867 525 864 l 710 868 q 784 875 760 868 q 815 903 808 882 q 824 908 817 908 q 831 903 831 908 q 822 781 826 864 q 818 649 818 699 q 810 644 818 644 q 801 649 803 644 q 757 799 797 756 q 624 843 717 843 q 535 838 561 843 q 499 814 508 832 q 489 753 489 796 l 489 113 q 499 50 489 69 q 536 24 508 31 q 624 17 564 17 q 628 8 628 17 q 624 0 628 0 q 550 1 576 0 l 442 3 l 338 1 q 261 0 310 0 q 258 8 258 0 q 261 17 258 17 q 349 24 321 17 q 387 51 376 31 q 397 113 397 71 l 397 756 q 388 816 397 799 q 351 838 378 833 q 263 843 325 843 m 281 1089 q 279 1090 279 1089 q 279 1090 279 1090 q 283 1097 279 1093 q 289 1099 286 1100 l 440 1019 l 590 1099 l 592 1099 q 598 1095 596 1099 q 597 1089 600 1092 l 456 954 q 440 949 450 949 q 424 954 429 949 l 281 1089 z "},"Ţ":{"ha":881,"x_min":53,"x_max":831,"o":"m 815 903 q 824 908 817 908 q 831 903 831 908 q 822 781 826 864 q 818 649 818 699 q 810 644 818 644 q 801 649 803 644 q 757 799 797 756 q 624 843 717 843 q 535 838 561 843 q 499 814 508 832 q 489 753 489 796 l 489 113 q 499 50 489 69 q 536 24 508 31 q 624 17 564 17 q 628 8 628 17 q 624 0 628 0 q 553 1 578 0 l 449 3 q 431 -76 431 -56 q 442 -110 431 -97 q 486 -142 454 -124 q 542 -187 522 -162 q 563 -249 563 -211 q 526 -341 563 -300 q 418 -382 489 -382 q 354 -368 379 -382 q 329 -328 329 -354 q 342 -299 329 -311 q 371 -287 354 -287 q 394 -295 386 -287 q 411 -318 403 -303 q 431 -345 421 -336 q 463 -354 442 -354 q 496 -341 483 -354 q 508 -303 508 -328 q 483 -237 508 -267 q 390 -172 457 -208 q 371 -154 371 -162 q 378 -131 371 -149 q 428 3 400 -75 l 333 1 q 261 0 307 0 q 258 8 258 0 q 261 17 258 17 q 349 24 321 17 q 387 51 376 31 q 397 113 397 71 l 397 756 q 388 816 397 799 q 351 838 378 833 q 263 843 325 843 q 131 799 175 843 q 69 647 88 754 q 60 644 68 644 q 53 649 53 644 q 65 770 58 686 q 72 899 72 854 q 81 906 72 906 q 89 899 89 906 q 163 868 89 868 q 442 864 281 864 q 617 867 525 864 l 710 868 q 784 875 760 868 q 815 903 808 882 z "},"Ț":{"ha":881,"x_min":53,"x_max":831,"o":"m 263 843 q 131 799 175 843 q 69 647 88 754 q 60 644 68 644 q 53 649 53 644 q 65 770 58 686 q 72 899 72 854 q 81 906 72 906 q 89 899 89 906 q 163 868 89 868 q 442 864 281 864 q 617 867 525 864 l 710 868 q 784 875 760 868 q 815 903 808 882 q 824 908 817 908 q 831 903 831 908 q 822 781 826 864 q 818 649 818 699 q 810 644 818 644 q 801 649 803 644 q 757 799 797 756 q 624 843 717 843 q 535 838 561 843 q 499 814 508 832 q 489 753 489 796 l 489 113 q 499 50 489 69 q 536 24 508 31 q 624 17 564 17 q 628 8 628 17 q 624 0 628 0 q 550 1 576 0 l 442 3 l 338 1 q 261 0 310 0 q 258 8 258 0 q 261 17 258 17 q 349 24 321 17 q 387 51 376 31 q 397 113 397 71 l 397 756 q 388 816 397 799 q 351 838 378 833 q 263 843 325 843 m 440 -118 q 498 -144 478 -118 q 518 -219 518 -171 q 497 -305 518 -265 q 433 -382 475 -344 q 429 -383 432 -383 q 422 -378 425 -383 q 422 -371 419 -374 q 483 -247 483 -315 q 475 -207 483 -219 q 433 -228 464 -228 q 394 -213 408 -228 q 379 -174 379 -199 q 440 -118 379 -118 z "},"Ṭ":{"ha":881,"x_min":53,"x_max":831,"o":"m 263 843 q 131 799 175 843 q 69 647 88 754 q 60 644 68 644 q 53 649 53 644 q 65 770 58 686 q 72 899 72 854 q 81 906 72 906 q 89 899 89 906 q 163 868 89 868 q 442 864 281 864 q 617 867 525 864 l 710 868 q 784 875 760 868 q 815 903 808 882 q 824 908 817 908 q 831 903 831 908 q 822 781 826 864 q 818 649 818 699 q 810 644 818 644 q 801 649 803 644 q 757 799 797 756 q 624 843 717 843 q 535 838 561 843 q 499 814 508 832 q 489 753 489 796 l 489 113 q 499 50 489 69 q 536 24 508 31 q 624 17 564 17 q 628 8 628 17 q 624 0 628 0 q 550 1 576 0 l 442 3 l 338 1 q 261 0 310 0 q 258 8 258 0 q 261 17 258 17 q 349 24 321 17 q 387 51 376 31 q 397 113 397 71 l 397 756 q 388 816 397 799 q 351 838 378 833 q 263 843 325 843 m 450 -265 q 405 -249 421 -265 q 389 -204 389 -233 q 405 -162 389 -178 q 450 -147 421 -147 q 493 -162 478 -147 q 508 -204 508 -178 q 493 -249 508 -233 q 450 -265 478 -265 z "},"Ṯ":{"ha":881,"x_min":53,"x_max":831,"o":"m 263 843 q 131 799 175 843 q 69 647 88 754 q 60 644 68 644 q 53 649 53 644 q 65 770 58 686 q 72 899 72 854 q 81 906 72 906 q 89 899 89 906 q 163 868 89 868 q 442 864 281 864 q 617 867 525 864 l 710 868 q 784 875 760 868 q 815 903 808 882 q 824 908 817 908 q 831 903 831 908 q 822 781 826 864 q 818 649 818 699 q 810 644 818 644 q 801 649 803 644 q 757 799 797 756 q 624 843 717 843 q 535 838 561 843 q 499 814 508 832 q 489 753 489 796 l 489 113 q 499 50 489 69 q 536 24 508 31 q 624 17 564 17 q 628 8 628 17 q 624 0 628 0 q 550 1 576 0 l 442 3 l 338 1 q 261 0 310 0 q 258 8 258 0 q 261 17 258 17 q 349 24 321 17 q 387 51 376 31 q 397 113 397 71 l 397 756 q 388 816 397 799 q 351 838 378 833 q 263 843 325 843 m 274 -157 q 265 -137 265 -157 q 274 -118 265 -118 l 622 -118 q 629 -124 626 -118 q 632 -137 632 -131 q 629 -151 632 -144 q 622 -157 626 -157 l 274 -157 z "},"U":{"ha":969,"x_min":36,"x_max":942,"o":"m 794 717 q 674 851 794 851 q 669 860 669 851 q 674 868 669 868 l 735 867 q 811 864 782 864 q 882 867 835 864 l 939 868 q 942 860 942 868 q 939 851 942 851 q 828 717 828 851 l 828 321 q 739 72 828 161 q 500 -18 650 -18 q 320 22 397 -18 q 201 137 243 63 q 158 311 158 211 l 158 756 q 150 817 158 797 q 117 844 142 836 q 40 851 93 851 q 36 860 36 851 q 40 868 36 868 l 108 867 q 203 864 167 864 q 300 867 242 864 l 367 868 q 369 860 369 868 q 367 851 369 851 q 290 843 315 851 q 257 815 265 835 q 249 753 249 794 l 249 360 q 322 111 249 197 q 531 25 396 25 q 724 103 654 25 q 794 319 794 181 l 794 717 z "},"Ú":{"ha":969,"x_min":36,"x_max":942,"o":"m 794 717 q 674 851 794 851 q 669 860 669 851 q 674 868 669 868 l 735 867 q 811 864 782 864 q 882 867 835 864 l 939 868 q 942 860 942 868 q 939 851 942 851 q 828 717 828 851 l 828 321 q 739 72 828 161 q 500 -18 650 -18 q 320 22 397 -18 q 201 137 243 63 q 158 311 158 211 l 158 756 q 150 817 158 797 q 117 844 142 836 q 40 851 93 851 q 36 860 36 851 q 40 868 36 868 l 108 867 q 203 864 167 864 q 300 867 242 864 l 367 868 q 369 860 369 868 q 367 851 369 851 q 290 843 315 851 q 257 815 265 835 q 249 753 249 794 l 249 360 q 322 111 249 197 q 531 25 396 25 q 724 103 654 25 q 794 319 794 181 l 794 717 m 382 942 q 375 948 376 942 q 378 957 374 954 q 529 1044 429 982 q 604 1089 579 1075 q 637 1084 610 1093 q 684 1064 664 1075 q 693 1050 704 1053 q 535 1003 607 1029 q 385 943 464 978 l 382 942 z "},"Ŭ":{"ha":969,"x_min":36,"x_max":942,"o":"m 794 717 q 674 851 794 851 q 669 860 669 851 q 674 868 669 868 l 735 867 q 811 864 782 864 q 882 867 835 864 l 939 868 q 942 860 942 868 q 939 851 942 851 q 828 717 828 851 l 828 321 q 739 72 828 161 q 500 -18 650 -18 q 320 22 397 -18 q 201 137 243 63 q 158 311 158 211 l 158 756 q 150 817 158 797 q 117 844 142 836 q 40 851 93 851 q 36 860 36 851 q 40 868 36 868 l 108 867 q 203 864 167 864 q 300 867 242 864 l 367 868 q 369 860 369 868 q 367 851 369 851 q 290 843 315 851 q 257 815 265 835 q 249 753 249 794 l 249 360 q 322 111 249 197 q 531 25 396 25 q 724 103 654 25 q 794 319 794 181 l 794 717 m 519 958 q 423 997 460 958 q 376 1107 386 1035 q 383 1113 375 1113 q 392 1110 390 1114 q 438 1045 401 1072 q 519 1018 475 1018 q 599 1045 563 1018 q 646 1110 636 1072 q 655 1113 647 1114 q 661 1107 663 1113 q 615 997 650 1035 q 519 958 579 958 z "},"Ǔ":{"ha":969,"x_min":36,"x_max":942,"o":"m 794 717 q 674 851 794 851 q 669 860 669 851 q 674 868 669 868 l 735 867 q 811 864 782 864 q 882 867 835 864 l 939 868 q 942 860 942 868 q 939 851 942 851 q 828 717 828 851 l 828 321 q 739 72 828 161 q 500 -18 650 -18 q 320 22 397 -18 q 201 137 243 63 q 158 311 158 211 l 158 756 q 150 817 158 797 q 117 844 142 836 q 40 851 93 851 q 36 860 36 851 q 40 868 36 868 l 108 867 q 203 864 167 864 q 300 867 242 864 l 367 868 q 369 860 369 868 q 367 851 369 851 q 290 843 315 851 q 257 815 265 835 q 249 753 249 794 l 249 360 q 322 111 249 197 q 531 25 396 25 q 724 103 654 25 q 794 319 794 181 l 794 717 m 360 1089 q 358 1090 358 1089 q 358 1090 358 1090 q 362 1097 358 1093 q 368 1099 365 1100 l 519 1019 l 669 1099 l 671 1099 q 677 1095 675 1099 q 676 1089 679 1092 l 535 954 q 519 949 529 949 q 503 954 508 949 l 360 1089 z "},"Û":{"ha":969,"x_min":36,"x_max":942,"o":"m 794 717 q 674 851 794 851 q 669 860 669 851 q 674 868 669 868 l 735 867 q 811 864 782 864 q 882 867 835 864 l 939 868 q 942 860 942 868 q 939 851 942 851 q 828 717 828 851 l 828 321 q 739 72 828 161 q 500 -18 650 -18 q 320 22 397 -18 q 201 137 243 63 q 158 311 158 211 l 158 756 q 150 817 158 797 q 117 844 142 836 q 40 851 93 851 q 36 860 36 851 q 40 868 36 868 l 108 867 q 203 864 167 864 q 300 867 242 864 l 367 868 q 369 860 369 868 q 367 851 369 851 q 290 843 315 851 q 257 815 265 835 q 249 753 249 794 l 249 360 q 322 111 249 197 q 531 25 396 25 q 724 103 654 25 q 794 319 794 181 l 794 717 m 504 1097 q 521 1104 511 1104 q 536 1097 529 1104 l 678 963 q 678 956 682 961 q 671 953 674 950 l 521 1032 l 369 953 q 363 956 367 951 q 361 963 358 961 l 504 1097 z "},"Ü":{"ha":969,"x_min":36,"x_max":942,"o":"m 794 717 q 674 851 794 851 q 669 860 669 851 q 674 868 669 868 l 735 867 q 811 864 782 864 q 882 867 835 864 l 939 868 q 942 860 942 868 q 939 851 942 851 q 828 717 828 851 l 828 321 q 739 72 828 161 q 500 -18 650 -18 q 320 22 397 -18 q 201 137 243 63 q 158 311 158 211 l 158 756 q 150 817 158 797 q 117 844 142 836 q 40 851 93 851 q 36 860 36 851 q 40 868 36 868 l 108 867 q 203 864 167 864 q 300 867 242 864 l 367 868 q 369 860 369 868 q 367 851 369 851 q 290 843 315 851 q 257 815 265 835 q 249 753 249 794 l 249 360 q 322 111 249 197 q 531 25 396 25 q 724 103 654 25 q 794 319 794 181 l 794 717 m 399 994 q 355 1010 371 994 q 339 1053 339 1025 q 355 1094 339 1079 q 399 1110 371 1110 q 440 1094 425 1110 q 456 1053 456 1079 q 440 1010 456 1025 q 399 994 425 994 m 642 994 q 598 1010 614 994 q 582 1053 582 1026 q 598 1094 582 1079 q 642 1108 614 1108 q 683 1094 668 1108 q 699 1053 699 1079 q 683 1010 699 1025 q 642 994 668 994 z "},"Ǘ":{"ha":969,"x_min":36,"x_max":942,"o":"m 794 717 q 674 851 794 851 q 669 860 669 851 q 674 868 669 868 l 735 867 q 811 864 782 864 q 882 867 835 864 l 939 868 q 942 860 942 868 q 939 851 942 851 q 828 717 828 851 l 828 321 q 739 72 828 161 q 500 -18 650 -18 q 320 22 397 -18 q 201 137 243 63 q 158 311 158 211 l 158 756 q 150 817 158 797 q 117 844 142 836 q 40 851 93 851 q 36 860 36 851 q 40 868 36 868 l 108 867 q 203 864 167 864 q 300 867 242 864 l 367 868 q 369 860 369 868 q 367 851 369 851 q 290 843 315 851 q 257 815 265 835 q 249 753 249 794 l 249 360 q 322 111 249 197 q 531 25 396 25 q 724 103 654 25 q 794 319 794 181 l 794 717 m 358 1138 q 351 1144 353 1138 q 354 1153 350 1150 q 457 1206 406 1176 q 522 1242 508 1235 l 594 1283 q 627 1278 600 1288 q 674 1258 654 1269 q 685 1244 694 1247 q 361 1139 519 1206 l 358 1138 m 399 979 q 355 994 371 979 q 339 1038 339 1010 q 355 1078 339 1064 q 399 1093 371 1093 q 440 1078 425 1093 q 456 1038 456 1064 q 441 994 456 1010 q 399 979 426 979 m 642 979 q 598 994 614 979 q 582 1038 582 1010 q 598 1078 582 1064 q 642 1093 614 1093 q 683 1078 668 1093 q 699 1038 699 1064 q 684 994 699 1010 q 642 979 669 979 z "},"Ǚ":{"ha":969,"x_min":36,"x_max":942,"o":"m 794 717 q 674 851 794 851 q 669 860 669 851 q 674 868 669 868 l 735 867 q 811 864 782 864 q 882 867 835 864 l 939 868 q 942 860 942 868 q 939 851 942 851 q 828 717 828 851 l 828 321 q 739 72 828 161 q 500 -18 650 -18 q 320 22 397 -18 q 201 137 243 63 q 158 311 158 211 l 158 756 q 150 817 158 797 q 117 844 142 836 q 40 851 93 851 q 36 860 36 851 q 40 868 36 868 l 108 867 q 203 864 167 864 q 300 867 242 864 l 367 868 q 369 860 369 868 q 367 851 369 851 q 290 843 315 851 q 257 815 265 835 q 249 753 249 794 l 249 360 q 322 111 249 197 q 531 25 396 25 q 724 103 654 25 q 794 319 794 181 l 794 717 m 360 1267 l 358 1269 q 362 1275 358 1272 q 368 1276 365 1278 l 524 1194 l 676 1278 l 679 1278 q 686 1274 683 1278 q 685 1268 689 1269 l 539 1132 q 524 1126 533 1126 q 507 1132 513 1126 l 360 1267 m 399 979 q 355 994 371 979 q 339 1038 339 1010 q 355 1078 339 1064 q 399 1093 371 1093 q 440 1078 425 1093 q 456 1038 456 1064 q 441 994 456 1010 q 399 979 426 979 m 642 979 q 598 994 614 979 q 582 1038 582 1010 q 598 1078 582 1064 q 642 1093 614 1093 q 683 1078 668 1093 q 699 1038 699 1064 q 684 994 699 1010 q 642 979 669 979 z "},"Ǜ":{"ha":969,"x_min":36,"x_max":942,"o":"m 794 717 q 674 851 794 851 q 669 860 669 851 q 674 868 669 868 l 735 867 q 811 864 782 864 q 882 867 835 864 l 939 868 q 942 860 942 868 q 939 851 942 851 q 828 717 828 851 l 828 321 q 739 72 828 161 q 500 -18 650 -18 q 320 22 397 -18 q 201 137 243 63 q 158 311 158 211 l 158 756 q 150 817 158 797 q 117 844 142 836 q 40 851 93 851 q 36 860 36 851 q 40 868 36 868 l 108 867 q 203 864 167 864 q 300 867 242 864 l 367 868 q 369 860 369 868 q 367 851 369 851 q 290 843 315 851 q 257 815 265 835 q 249 753 249 794 l 249 360 q 322 111 249 197 q 531 25 396 25 q 724 103 654 25 q 794 319 794 181 l 794 717 m 697 1139 q 374 1244 542 1204 q 384 1258 364 1247 q 431 1278 404 1269 q 464 1283 458 1288 l 536 1242 q 601 1206 550 1235 q 704 1153 653 1176 q 707 1147 707 1151 q 704 1140 707 1143 q 697 1139 701 1138 m 417 979 q 374 994 389 979 q 360 1038 360 1010 q 375 1078 360 1064 q 417 1093 390 1093 q 460 1078 444 1093 q 475 1038 475 1064 q 460 994 475 1010 q 417 979 444 979 m 660 979 q 617 994 632 979 q 601 1038 601 1010 q 617 1078 601 1064 q 660 1093 632 1093 q 703 1078 688 1093 q 719 1038 719 1064 q 703 994 719 1010 q 660 979 688 979 z "},"Ǖ":{"ha":969,"x_min":36,"x_max":942,"o":"m 794 717 q 674 851 794 851 q 669 860 669 851 q 674 868 669 868 l 735 867 q 811 864 782 864 q 882 867 835 864 l 939 868 q 942 860 942 868 q 939 851 942 851 q 828 717 828 851 l 828 321 q 739 72 828 161 q 500 -18 650 -18 q 320 22 397 -18 q 201 137 243 63 q 158 311 158 211 l 158 756 q 150 817 158 797 q 117 844 142 836 q 40 851 93 851 q 36 860 36 851 q 40 868 36 868 l 108 867 q 203 864 167 864 q 300 867 242 864 l 367 868 q 369 860 369 868 q 367 851 369 851 q 290 843 315 851 q 257 815 265 835 q 249 753 249 794 l 249 360 q 322 111 249 197 q 531 25 396 25 q 724 103 654 25 q 794 319 794 181 l 794 717 m 357 1168 q 349 1188 349 1168 q 357 1207 349 1207 l 681 1207 q 689 1188 689 1207 q 681 1168 689 1168 l 357 1168 m 399 979 q 355 994 371 979 q 339 1038 339 1010 q 355 1078 339 1064 q 399 1093 371 1093 q 440 1078 425 1093 q 456 1038 456 1064 q 441 994 456 1010 q 399 979 426 979 m 642 979 q 598 994 614 979 q 582 1038 582 1010 q 598 1078 582 1064 q 642 1093 614 1093 q 683 1078 668 1093 q 699 1038 699 1064 q 684 994 699 1010 q 642 979 669 979 z "},"Ụ":{"ha":969,"x_min":36,"x_max":942,"o":"m 794 717 q 674 851 794 851 q 669 860 669 851 q 674 868 669 868 l 735 867 q 811 864 782 864 q 882 867 835 864 l 939 868 q 942 860 942 868 q 939 851 942 851 q 828 717 828 851 l 828 321 q 739 72 828 161 q 500 -18 650 -18 q 320 22 397 -18 q 201 137 243 63 q 158 311 158 211 l 158 756 q 150 817 158 797 q 117 844 142 836 q 40 851 93 851 q 36 860 36 851 q 40 868 36 868 l 108 867 q 203 864 167 864 q 300 867 242 864 l 367 868 q 369 860 369 868 q 367 851 369 851 q 290 843 315 851 q 257 815 265 835 q 249 753 249 794 l 249 360 q 322 111 249 197 q 531 25 396 25 q 724 103 654 25 q 794 319 794 181 l 794 717 m 486 -265 q 441 -249 457 -265 q 425 -204 425 -233 q 441 -162 425 -178 q 486 -147 457 -147 q 529 -162 514 -147 q 544 -204 544 -178 q 529 -249 544 -233 q 486 -265 514 -265 z "},"Ù":{"ha":969,"x_min":36,"x_max":942,"o":"m 794 717 q 674 851 794 851 q 669 860 669 851 q 674 868 669 868 l 735 867 q 811 864 782 864 q 882 867 835 864 l 939 868 q 942 860 942 868 q 939 851 942 851 q 828 717 828 851 l 828 321 q 739 72 828 161 q 500 -18 650 -18 q 320 22 397 -18 q 201 137 243 63 q 158 311 158 211 l 158 756 q 150 817 158 797 q 117 844 142 836 q 40 851 93 851 q 36 860 36 851 q 40 868 36 868 l 108 867 q 203 864 167 864 q 300 867 242 864 l 367 868 q 369 860 369 868 q 367 851 369 851 q 290 843 315 851 q 257 815 265 835 q 249 753 249 794 l 249 360 q 322 111 249 197 q 531 25 396 25 q 724 103 654 25 q 794 319 794 181 l 794 717 m 657 943 q 506 1003 578 978 q 349 1050 435 1029 q 358 1064 338 1053 q 405 1084 378 1075 q 438 1089 432 1093 q 483 1061 468 1069 q 664 957 600 989 q 667 951 667 954 q 664 944 667 947 q 657 943 661 942 z "},"Ủ":{"ha":969,"x_min":36,"x_max":942,"o":"m 794 717 q 674 851 794 851 q 669 860 669 851 q 674 868 669 868 l 735 867 q 811 864 782 864 q 882 867 835 864 l 939 868 q 942 860 942 868 q 939 851 942 851 q 828 717 828 851 l 828 321 q 739 72 828 161 q 500 -18 650 -18 q 320 22 397 -18 q 201 137 243 63 q 158 311 158 211 l 158 756 q 150 817 158 797 q 117 844 142 836 q 40 851 93 851 q 36 860 36 851 q 40 868 36 868 l 108 867 q 203 864 167 864 q 300 867 242 864 l 367 868 q 369 860 369 868 q 367 851 369 851 q 290 843 315 851 q 257 815 265 835 q 249 753 249 794 l 249 360 q 322 111 249 197 q 531 25 396 25 q 724 103 654 25 q 794 319 794 181 l 794 717 m 524 904 q 517 901 525 901 q 507 904 508 901 q 503 933 503 919 q 510 973 503 954 q 533 1014 518 992 q 553 1053 547 1039 q 560 1083 560 1067 q 543 1124 560 1110 q 501 1139 526 1139 q 463 1129 482 1139 l 461 1129 q 453 1134 457 1129 q 453 1142 449 1139 q 543 1169 496 1169 q 608 1149 585 1169 q 632 1097 632 1129 q 618 1053 632 1072 q 575 1004 604 1033 q 535 957 547 974 q 522 918 522 940 q 524 904 522 908 z "},"Ư":{"ha":969,"x_min":36,"x_max":1022,"o":"m 828 314 q 737 69 828 157 q 493 -18 646 -18 q 249 68 339 -18 q 158 304 158 154 l 158 756 q 150 817 158 797 q 117 844 142 836 q 40 851 93 851 q 36 860 36 851 q 40 868 36 868 l 108 867 q 203 864 167 864 q 300 867 242 864 l 367 868 q 369 860 369 868 q 367 851 369 851 q 290 843 315 851 q 257 815 265 835 q 249 753 249 794 l 249 353 q 323 108 249 192 q 525 25 397 25 q 723 101 651 25 q 794 313 794 178 l 794 717 q 674 851 794 851 q 669 860 669 851 q 674 868 669 868 l 735 867 q 811 864 782 864 q 907 878 878 864 q 936 926 936 892 q 931 953 936 943 q 924 964 925 963 q 911 996 911 979 q 928 1035 911 1021 q 968 1050 946 1050 q 1008 1031 994 1050 q 1022 983 1022 1011 q 900 853 1022 904 q 849 815 869 843 q 828 717 828 786 l 828 314 z "},"Ứ":{"ha":969,"x_min":36,"x_max":1022,"o":"m 828 314 q 737 69 828 157 q 493 -18 646 -18 q 249 68 339 -18 q 158 304 158 154 l 158 756 q 150 817 158 797 q 117 844 142 836 q 40 851 93 851 q 36 860 36 851 q 40 868 36 868 l 108 867 q 203 864 167 864 q 300 867 242 864 l 367 868 q 369 860 369 868 q 367 851 369 851 q 290 843 315 851 q 257 815 265 835 q 249 753 249 794 l 249 353 q 323 108 249 192 q 525 25 397 25 q 723 101 651 25 q 794 313 794 178 l 794 717 q 674 851 794 851 q 669 860 669 851 q 674 868 669 868 l 735 867 q 811 864 782 864 q 907 878 878 864 q 936 926 936 892 q 931 953 936 943 q 924 964 925 963 q 911 996 911 979 q 928 1035 911 1021 q 968 1050 946 1050 q 1008 1031 994 1050 q 1022 983 1022 1011 q 900 853 1022 904 q 849 815 869 843 q 828 717 828 786 l 828 314 m 382 942 q 374 948 376 942 q 376 957 372 954 q 528 1044 428 982 q 603 1089 578 1075 q 635 1083 608 1092 q 683 1063 663 1074 q 692 1050 703 1051 q 383 942 528 1008 l 382 942 z "},"Ự":{"ha":969,"x_min":36,"x_max":1022,"o":"m 828 314 q 737 69 828 157 q 493 -18 646 -18 q 249 68 339 -18 q 158 304 158 154 l 158 756 q 150 817 158 797 q 117 844 142 836 q 40 851 93 851 q 36 860 36 851 q 40 868 36 868 l 108 867 q 203 864 167 864 q 300 867 242 864 l 367 868 q 369 860 369 868 q 367 851 369 851 q 290 843 315 851 q 257 815 265 835 q 249 753 249 794 l 249 353 q 323 108 249 192 q 525 25 397 25 q 723 101 651 25 q 794 313 794 178 l 794 717 q 674 851 794 851 q 669 860 669 851 q 674 868 669 868 l 735 867 q 811 864 782 864 q 907 878 878 864 q 936 926 936 892 q 931 953 936 943 q 924 964 925 963 q 911 996 911 979 q 928 1035 911 1021 q 968 1050 946 1050 q 1008 1031 994 1050 q 1022 983 1022 1011 q 900 853 1022 904 q 849 815 869 843 q 828 717 828 786 l 828 314 m 514 -265 q 469 -249 485 -265 q 453 -204 453 -233 q 469 -162 453 -178 q 514 -147 485 -147 q 557 -162 542 -147 q 572 -204 572 -178 q 557 -249 572 -233 q 514 -265 542 -265 z "},"Ừ":{"ha":969,"x_min":36,"x_max":1022,"o":"m 828 314 q 737 69 828 157 q 493 -18 646 -18 q 249 68 339 -18 q 158 304 158 154 l 158 756 q 150 817 158 797 q 117 844 142 836 q 40 851 93 851 q 36 860 36 851 q 40 868 36 868 l 108 867 q 203 864 167 864 q 300 867 242 864 l 367 868 q 369 860 369 868 q 367 851 369 851 q 290 843 315 851 q 257 815 265 835 q 249 753 249 794 l 249 353 q 323 108 249 192 q 525 25 397 25 q 723 101 651 25 q 794 313 794 178 l 794 717 q 674 851 794 851 q 669 860 669 851 q 674 868 669 868 l 735 867 q 811 864 782 864 q 907 878 878 864 q 936 926 936 892 q 931 953 936 943 q 924 964 925 963 q 911 996 911 979 q 928 1035 911 1021 q 968 1050 946 1050 q 1008 1031 994 1050 q 1022 983 1022 1011 q 900 853 1022 904 q 849 815 869 843 q 828 717 828 786 l 828 314 m 656 943 q 505 1003 576 978 q 347 1050 433 1029 q 356 1064 336 1053 q 403 1084 376 1075 q 436 1089 431 1093 q 482 1061 467 1069 q 663 957 599 989 q 665 951 665 954 q 663 944 665 947 q 656 943 660 942 z "},"Ử":{"ha":969,"x_min":36,"x_max":1022,"o":"m 828 314 q 737 69 828 157 q 493 -18 646 -18 q 249 68 339 -18 q 158 304 158 154 l 158 756 q 150 817 158 797 q 117 844 142 836 q 40 851 93 851 q 36 860 36 851 q 40 868 36 868 l 108 867 q 203 864 167 864 q 300 867 242 864 l 367 868 q 369 860 369 868 q 367 851 369 851 q 290 843 315 851 q 257 815 265 835 q 249 753 249 794 l 249 353 q 323 108 249 192 q 525 25 397 25 q 723 101 651 25 q 794 313 794 178 l 794 717 q 674 851 794 851 q 669 860 669 851 q 674 868 669 868 l 735 867 q 811 864 782 864 q 907 878 878 864 q 936 926 936 892 q 931 953 936 943 q 924 964 925 963 q 911 996 911 979 q 928 1035 911 1021 q 968 1050 946 1050 q 1008 1031 994 1050 q 1022 983 1022 1011 q 900 853 1022 904 q 849 815 869 843 q 828 717 828 786 l 828 314 m 522 904 q 515 901 524 901 q 506 904 507 901 q 501 933 501 919 q 509 973 501 954 q 532 1014 517 992 q 552 1053 546 1039 q 558 1083 558 1067 q 542 1124 558 1110 q 500 1139 525 1139 q 461 1129 481 1139 l 460 1129 q 451 1134 456 1129 q 451 1142 447 1139 q 542 1169 494 1169 q 607 1149 583 1169 q 631 1097 631 1129 q 617 1053 631 1072 q 574 1004 603 1033 q 533 957 546 974 q 521 918 521 940 q 522 904 521 908 z "},"Ữ":{"ha":969,"x_min":36,"x_max":1022,"o":"m 828 314 q 737 69 828 157 q 493 -18 646 -18 q 249 68 339 -18 q 158 304 158 154 l 158 756 q 150 817 158 797 q 117 844 142 836 q 40 851 93 851 q 36 860 36 851 q 40 868 36 868 l 108 867 q 203 864 167 864 q 300 867 242 864 l 367 868 q 369 860 369 868 q 367 851 369 851 q 290 843 315 851 q 257 815 265 835 q 249 753 249 794 l 249 353 q 323 108 249 192 q 525 25 397 25 q 723 101 651 25 q 794 313 794 178 l 794 717 q 674 851 794 851 q 669 860 669 851 q 674 868 669 868 l 735 867 q 811 864 782 864 q 907 878 878 864 q 936 926 936 892 q 931 953 936 943 q 924 964 925 963 q 911 996 911 979 q 928 1035 911 1021 q 968 1050 946 1050 q 1008 1031 994 1050 q 1022 983 1022 1011 q 900 853 1022 904 q 849 815 869 843 q 828 717 828 786 l 828 314 m 625 1060 q 662 1069 649 1060 q 693 1097 675 1078 l 694 1097 q 702 1094 699 1097 q 703 1088 706 1090 q 644 1019 667 1036 q 593 1001 621 1001 q 541 1008 568 1001 q 508 1017 514 1015 q 411 1035 451 1035 q 374 1026 386 1035 q 343 997 363 1018 l 342 997 q 334 1001 338 997 q 333 1007 331 1004 q 388 1067 357 1040 q 451 1094 418 1094 q 521 1079 475 1094 q 560 1069 528 1078 q 625 1060 593 1060 z "},"Ű":{"ha":969,"x_min":36,"x_max":942,"o":"m 794 717 q 674 851 794 851 q 669 860 669 851 q 674 868 669 868 l 735 867 q 811 864 782 864 q 882 867 835 864 l 939 868 q 942 860 942 868 q 939 851 942 851 q 828 717 828 851 l 828 321 q 739 72 828 161 q 500 -18 650 -18 q 320 22 397 -18 q 201 137 243 63 q 158 311 158 211 l 158 756 q 150 817 158 797 q 117 844 142 836 q 40 851 93 851 q 36 860 36 851 q 40 868 36 868 l 108 867 q 203 864 167 864 q 300 867 242 864 l 367 868 q 369 860 369 868 q 367 851 369 851 q 290 843 315 851 q 257 815 265 835 q 249 753 249 794 l 249 360 q 322 111 249 197 q 531 25 396 25 q 724 103 654 25 q 794 319 794 181 l 794 717 m 371 939 q 365 945 367 939 q 367 954 364 951 q 492 1086 431 1015 q 522 1085 496 1092 q 569 1067 549 1078 q 581 1053 590 1057 q 374 940 476 1011 l 371 939 m 543 939 q 538 945 539 939 q 539 954 536 951 q 664 1086 586 997 q 694 1085 668 1092 q 740 1067 719 1078 q 750 1053 760 1057 q 546 940 649 1010 l 543 939 z "},"Ū":{"ha":969,"x_min":36,"x_max":942,"o":"m 794 717 q 674 851 794 851 q 669 860 669 851 q 674 868 669 868 l 735 867 q 811 864 782 864 q 882 867 835 864 l 939 868 q 942 860 942 868 q 939 851 942 851 q 828 717 828 851 l 828 321 q 739 72 828 161 q 500 -18 650 -18 q 320 22 397 -18 q 201 137 243 63 q 158 311 158 211 l 158 756 q 150 817 158 797 q 117 844 142 836 q 40 851 93 851 q 36 860 36 851 q 40 868 36 868 l 108 867 q 203 864 167 864 q 300 867 242 864 l 367 868 q 369 860 369 868 q 367 851 369 851 q 290 843 315 851 q 257 815 265 835 q 249 753 249 794 l 249 360 q 322 111 249 197 q 531 25 396 25 q 724 103 654 25 q 794 319 794 181 l 794 717 m 344 1003 q 336 1022 336 1003 q 344 1042 336 1042 l 693 1042 q 703 1022 703 1042 q 693 1003 703 1003 l 344 1003 z "},"Ų":{"ha":969,"x_min":36,"x_max":942,"o":"m 939 868 q 942 860 942 868 q 939 851 942 851 q 828 717 828 851 l 828 321 q 766 104 828 189 q 596 -7 704 19 q 522 -101 544 -56 q 499 -199 499 -147 q 532 -302 499 -264 q 628 -340 565 -340 q 678 -332 657 -340 q 718 -308 699 -324 l 721 -308 q 728 -312 725 -308 q 728 -319 732 -317 q 578 -382 657 -382 q 462 -344 503 -382 q 421 -244 421 -307 q 561 -14 421 -133 q 500 -18 532 -18 q 320 22 397 -18 q 201 137 243 63 q 158 311 158 211 l 158 756 q 150 817 158 797 q 117 844 142 836 q 40 851 93 851 q 36 860 36 851 q 40 868 36 868 l 108 867 q 203 864 167 864 q 300 867 242 864 l 367 868 q 369 860 369 868 q 367 851 369 851 q 290 843 315 851 q 257 815 265 835 q 249 753 249 794 l 249 360 q 322 111 249 197 q 531 25 396 25 q 724 103 654 25 q 794 319 794 181 l 794 717 q 674 851 794 851 q 669 860 669 851 q 674 868 669 868 l 735 867 q 811 864 782 864 q 882 867 835 864 l 939 868 z "},"Ů":{"ha":969,"x_min":36,"x_max":942,"o":"m 794 717 q 674 851 794 851 q 669 860 669 851 q 674 868 669 868 l 735 867 q 811 864 782 864 q 882 867 835 864 l 939 868 q 942 860 942 868 q 939 851 942 851 q 828 717 828 851 l 828 321 q 739 72 828 161 q 500 -18 650 -18 q 320 22 397 -18 q 201 137 243 63 q 158 311 158 211 l 158 756 q 150 817 158 797 q 117 844 142 836 q 40 851 93 851 q 36 860 36 851 q 40 868 36 868 l 108 867 q 203 864 167 864 q 300 867 242 864 l 367 868 q 369 860 369 868 q 367 851 369 851 q 290 843 315 851 q 257 815 265 835 q 249 753 249 794 l 249 360 q 322 111 249 197 q 531 25 396 25 q 724 103 654 25 q 794 319 794 181 l 794 717 m 507 982 q 419 1015 451 982 q 386 1092 386 1047 q 428 1171 386 1142 q 521 1200 469 1200 q 607 1167 571 1200 q 643 1089 643 1135 q 601 1011 643 1040 q 507 982 560 982 m 529 996 q 567 1012 556 996 q 579 1064 579 1028 q 554 1149 579 1114 q 493 1185 529 1185 q 458 1169 469 1185 q 447 1119 447 1153 q 469 1034 447 1072 q 529 996 492 996 z "},"Ũ":{"ha":969,"x_min":36,"x_max":942,"o":"m 794 717 q 674 851 794 851 q 669 860 669 851 q 674 868 669 868 l 735 867 q 811 864 782 864 q 882 867 835 864 l 939 868 q 942 860 942 868 q 939 851 942 851 q 828 717 828 851 l 828 321 q 739 72 828 161 q 500 -18 650 -18 q 320 22 397 -18 q 201 137 243 63 q 158 311 158 211 l 158 756 q 150 817 158 797 q 117 844 142 836 q 40 851 93 851 q 36 860 36 851 q 40 868 36 868 l 108 867 q 203 864 167 864 q 300 867 242 864 l 367 868 q 369 860 369 868 q 367 851 369 851 q 290 843 315 851 q 257 815 265 835 q 249 753 249 794 l 249 360 q 322 111 249 197 q 531 25 396 25 q 724 103 654 25 q 794 319 794 181 l 794 717 m 626 1060 q 663 1069 650 1060 q 694 1097 676 1078 l 696 1097 q 703 1094 700 1097 q 704 1088 707 1090 q 645 1019 668 1036 q 594 1001 622 1001 q 542 1008 569 1001 q 510 1017 515 1015 q 413 1035 453 1035 q 376 1026 388 1035 q 344 997 364 1018 l 343 997 q 335 1001 339 997 q 335 1007 332 1004 q 389 1067 358 1040 q 453 1094 419 1094 q 522 1079 476 1094 q 562 1069 529 1078 q 626 1060 594 1060 z "},"V":{"ha":924,"x_min":-4,"x_max":933,"o":"m 929 868 q 933 860 933 868 q 929 851 933 851 q 847 826 882 851 q 789 742 813 801 l 493 1 q 478 -4 492 -4 q 463 1 464 -4 l 117 753 q 67 829 93 807 q -1 851 40 851 q -4 860 -4 851 q -1 868 -4 868 l 50 867 q 114 864 89 864 q 233 867 169 864 l 290 868 q 294 860 294 868 q 290 851 294 851 q 204 803 204 851 q 217 758 204 786 l 507 122 l 757 749 q 768 794 768 778 q 742 838 768 824 q 660 851 715 851 q 656 860 656 851 q 660 868 656 868 l 719 867 q 806 864 767 864 q 871 867 835 864 l 929 868 z "},"W":{"ha":1293,"x_min":-4,"x_max":1301,"o":"m 1299 868 q 1301 860 1301 868 q 1299 851 1301 851 q 1217 826 1251 851 q 1157 742 1182 801 l 863 1 q 847 -4 861 -4 q 831 1 835 -4 l 650 396 l 493 1 q 478 -4 492 -4 q 463 1 464 -4 l 117 753 q 67 831 92 810 q -1 851 42 851 q -4 860 -4 851 q -1 868 -4 868 l 50 867 q 114 864 89 864 q 222 867 164 864 l 279 868 q 283 860 283 868 q 279 851 283 851 q 218 842 239 851 q 197 810 197 832 q 213 758 197 792 l 507 124 l 632 435 l 486 753 q 435 828 461 806 q 371 851 410 851 q 367 860 367 851 q 371 868 367 868 l 421 867 q 483 864 460 864 q 564 867 522 864 l 603 868 q 606 860 606 868 q 603 851 606 851 q 565 847 576 851 q 554 831 554 843 q 581 758 554 815 l 681 543 l 764 749 q 779 811 779 790 q 765 842 779 832 q 721 851 751 851 q 717 860 717 851 q 721 868 717 868 l 754 867 q 811 864 782 864 q 875 867 839 864 l 932 868 q 935 860 935 868 q 932 851 935 851 q 852 827 885 851 q 794 742 819 803 l 699 504 l 875 124 l 1126 746 q 1138 793 1138 775 q 1112 838 1138 824 q 1032 851 1086 851 q 1028 860 1028 851 q 1032 868 1028 868 l 1089 867 q 1175 864 1136 864 q 1239 867 1203 864 l 1299 868 z "},"Ẃ":{"ha":1293,"x_min":-4,"x_max":1301,"o":"m 1299 868 q 1301 860 1301 868 q 1299 851 1301 851 q 1217 826 1251 851 q 1157 742 1182 801 l 863 1 q 847 -4 861 -4 q 831 1 835 -4 l 650 396 l 493 1 q 478 -4 492 -4 q 463 1 464 -4 l 117 753 q 67 831 92 810 q -1 851 42 851 q -4 860 -4 851 q -1 868 -4 868 l 50 867 q 114 864 89 864 q 222 867 164 864 l 279 868 q 283 860 283 868 q 279 851 283 851 q 218 842 239 851 q 197 810 197 832 q 213 758 197 792 l 507 124 l 632 435 l 486 753 q 435 828 461 806 q 371 851 410 851 q 367 860 367 851 q 371 868 367 868 l 421 867 q 483 864 460 864 q 564 867 522 864 l 603 868 q 606 860 606 868 q 603 851 606 851 q 565 847 576 851 q 554 831 554 843 q 581 758 554 815 l 681 543 l 764 749 q 779 811 779 790 q 765 842 779 832 q 721 851 751 851 q 717 860 717 851 q 721 868 717 868 l 754 867 q 811 864 782 864 q 875 867 839 864 l 932 868 q 935 860 935 868 q 932 851 935 851 q 852 827 885 851 q 794 742 819 803 l 699 504 l 875 124 l 1126 746 q 1138 793 1138 775 q 1112 838 1138 824 q 1032 851 1086 851 q 1028 860 1028 851 q 1032 868 1028 868 l 1089 867 q 1175 864 1136 864 q 1239 867 1203 864 l 1299 868 m 514 942 q 507 948 508 942 q 510 957 506 954 q 661 1044 561 982 q 736 1089 711 1075 q 769 1084 742 1093 q 816 1064 796 1075 q 825 1050 836 1053 q 667 1003 739 1029 q 517 943 596 978 l 514 942 z "},"Ŵ":{"ha":1293,"x_min":-4,"x_max":1301,"o":"m 1299 868 q 1301 860 1301 868 q 1299 851 1301 851 q 1217 826 1251 851 q 1157 742 1182 801 l 863 1 q 847 -4 861 -4 q 831 1 835 -4 l 650 396 l 493 1 q 478 -4 492 -4 q 463 1 464 -4 l 117 753 q 67 831 92 810 q -1 851 42 851 q -4 860 -4 851 q -1 868 -4 868 l 50 867 q 114 864 89 864 q 222 867 164 864 l 279 868 q 283 860 283 868 q 279 851 283 851 q 218 842 239 851 q 197 810 197 832 q 213 758 197 792 l 507 124 l 632 435 l 486 753 q 435 828 461 806 q 371 851 410 851 q 367 860 367 851 q 371 868 367 868 l 421 867 q 483 864 460 864 q 564 867 522 864 l 603 868 q 606 860 606 868 q 603 851 606 851 q 565 847 576 851 q 554 831 554 843 q 581 758 554 815 l 681 543 l 764 749 q 779 811 779 790 q 765 842 779 832 q 721 851 751 851 q 717 860 717 851 q 721 868 717 868 l 754 867 q 811 864 782 864 q 875 867 839 864 l 932 868 q 935 860 935 868 q 932 851 935 851 q 852 827 885 851 q 794 742 819 803 l 699 504 l 875 124 l 1126 746 q 1138 793 1138 775 q 1112 838 1138 824 q 1032 851 1086 851 q 1028 860 1028 851 q 1032 868 1028 868 l 1089 867 q 1175 864 1136 864 q 1239 867 1203 864 l 1299 868 m 636 1097 q 653 1104 643 1104 q 668 1097 661 1104 l 810 963 q 810 956 814 961 q 803 953 806 950 l 653 1032 l 501 953 q 494 956 499 951 q 493 963 490 961 l 636 1097 z "},"Ẅ":{"ha":1293,"x_min":-4,"x_max":1301,"o":"m 1299 868 q 1301 860 1301 868 q 1299 851 1301 851 q 1217 826 1251 851 q 1157 742 1182 801 l 863 1 q 847 -4 861 -4 q 831 1 835 -4 l 650 396 l 493 1 q 478 -4 492 -4 q 463 1 464 -4 l 117 753 q 67 831 92 810 q -1 851 42 851 q -4 860 -4 851 q -1 868 -4 868 l 50 867 q 114 864 89 864 q 222 867 164 864 l 279 868 q 283 860 283 868 q 279 851 283 851 q 218 842 239 851 q 197 810 197 832 q 213 758 197 792 l 507 124 l 632 435 l 486 753 q 435 828 461 806 q 371 851 410 851 q 367 860 367 851 q 371 868 367 868 l 421 867 q 483 864 460 864 q 564 867 522 864 l 603 868 q 606 860 606 868 q 603 851 606 851 q 565 847 576 851 q 554 831 554 843 q 581 758 554 815 l 681 543 l 764 749 q 779 811 779 790 q 765 842 779 832 q 721 851 751 851 q 717 860 717 851 q 721 868 717 868 l 754 867 q 811 864 782 864 q 875 867 839 864 l 932 868 q 935 860 935 868 q 932 851 935 851 q 852 827 885 851 q 794 742 819 803 l 699 504 l 875 124 l 1126 746 q 1138 793 1138 775 q 1112 838 1138 824 q 1032 851 1086 851 q 1028 860 1028 851 q 1032 868 1028 868 l 1089 867 q 1175 864 1136 864 q 1239 867 1203 864 l 1299 868 m 531 994 q 487 1010 503 994 q 471 1053 471 1025 q 487 1094 471 1079 q 531 1110 503 1110 q 572 1094 557 1110 q 588 1053 588 1079 q 572 1010 588 1025 q 531 994 557 994 m 774 994 q 730 1010 746 994 q 714 1053 714 1026 q 730 1094 714 1079 q 774 1108 746 1108 q 815 1094 800 1108 q 831 1053 831 1079 q 815 1010 831 1025 q 774 994 800 994 z "},"Ẁ":{"ha":1293,"x_min":-4,"x_max":1301,"o":"m 1299 868 q 1301 860 1301 868 q 1299 851 1301 851 q 1217 826 1251 851 q 1157 742 1182 801 l 863 1 q 847 -4 861 -4 q 831 1 835 -4 l 650 396 l 493 1 q 478 -4 492 -4 q 463 1 464 -4 l 117 753 q 67 831 92 810 q -1 851 42 851 q -4 860 -4 851 q -1 868 -4 868 l 50 867 q 114 864 89 864 q 222 867 164 864 l 279 868 q 283 860 283 868 q 279 851 283 851 q 218 842 239 851 q 197 810 197 832 q 213 758 197 792 l 507 124 l 632 435 l 486 753 q 435 828 461 806 q 371 851 410 851 q 367 860 367 851 q 371 868 367 868 l 421 867 q 483 864 460 864 q 564 867 522 864 l 603 868 q 606 860 606 868 q 603 851 606 851 q 565 847 576 851 q 554 831 554 843 q 581 758 554 815 l 681 543 l 764 749 q 779 811 779 790 q 765 842 779 832 q 721 851 751 851 q 717 860 717 851 q 721 868 717 868 l 754 867 q 811 864 782 864 q 875 867 839 864 l 932 868 q 935 860 935 868 q 932 851 935 851 q 852 827 885 851 q 794 742 819 803 l 699 504 l 875 124 l 1126 746 q 1138 793 1138 775 q 1112 838 1138 824 q 1032 851 1086 851 q 1028 860 1028 851 q 1032 868 1028 868 l 1089 867 q 1175 864 1136 864 q 1239 867 1203 864 l 1299 868 m 789 943 q 638 1003 710 978 q 481 1050 567 1029 q 490 1064 469 1053 q 537 1084 510 1075 q 569 1089 564 1093 q 615 1061 600 1069 q 796 957 732 989 q 799 951 799 954 q 796 944 799 947 q 789 943 793 942 z "},"X":{"ha":904,"x_min":19,"x_max":886,"o":"m 882 17 q 886 8 886 17 q 882 0 886 0 q 825 1 846 0 l 749 3 l 642 1 q 574 0 617 0 q 569 8 569 0 q 574 17 569 17 q 627 22 610 17 q 644 42 644 28 q 632 71 644 53 l 421 390 l 244 142 q 211 65 211 96 q 293 17 211 17 q 297 8 297 17 q 293 0 297 0 q 229 1 251 0 l 133 3 l 76 1 q 24 0 60 0 q 19 8 19 0 q 24 17 19 17 q 213 143 119 17 l 408 410 l 185 750 q 112 828 147 806 q 29 851 76 851 q 25 860 25 851 q 29 868 25 868 l 82 867 q 135 864 118 864 q 249 867 179 864 l 322 868 q 325 860 325 868 q 322 851 325 851 q 267 845 285 851 q 250 825 250 839 q 263 796 250 815 l 468 485 l 631 717 q 668 803 668 771 q 590 851 668 851 q 586 860 586 851 q 590 868 586 868 l 653 867 q 749 864 706 864 q 808 867 772 864 l 860 868 q 863 860 863 868 q 860 851 863 851 q 663 714 764 851 l 481 465 l 713 115 q 786 39 747 61 q 882 17 825 17 z "},"Y":{"ha":846,"x_min":-4,"x_max":856,"o":"m 851 868 q 856 860 856 868 q 851 851 856 851 q 751 815 803 851 q 660 714 700 778 l 474 426 l 474 113 q 482 50 474 69 q 515 24 490 31 q 592 17 539 17 q 596 8 596 17 q 592 0 596 0 q 525 1 549 0 l 428 3 l 333 1 q 264 0 308 0 q 260 8 260 0 q 264 17 260 17 q 341 24 317 17 q 374 51 365 31 q 383 113 383 71 l 383 406 l 153 743 q 79 828 114 804 q -1 851 44 851 q -4 860 -4 851 q -1 868 -4 868 q 49 865 15 868 l 97 864 q 215 867 143 864 l 292 868 q 294 860 294 868 q 292 851 294 851 q 219 822 219 851 q 233 789 219 807 l 457 460 l 625 719 q 657 801 657 771 q 582 851 657 851 q 579 860 579 851 q 582 868 579 868 l 647 867 q 744 864 700 864 q 801 867 768 864 l 851 868 z "},"Ý":{"ha":846,"x_min":-4,"x_max":856,"o":"m 851 868 q 856 860 856 868 q 851 851 856 851 q 751 815 803 851 q 660 714 700 778 l 474 426 l 474 113 q 482 50 474 69 q 515 24 490 31 q 592 17 539 17 q 596 8 596 17 q 592 0 596 0 q 525 1 549 0 l 428 3 l 333 1 q 264 0 308 0 q 260 8 260 0 q 264 17 260 17 q 341 24 317 17 q 374 51 365 31 q 383 113 383 71 l 383 406 l 153 743 q 79 828 114 804 q -1 851 44 851 q -4 860 -4 851 q -1 868 -4 868 q 49 865 15 868 l 97 864 q 215 867 143 864 l 292 868 q 294 860 294 868 q 292 851 294 851 q 219 822 219 851 q 233 789 219 807 l 457 460 l 625 719 q 657 801 657 771 q 582 851 657 851 q 579 860 579 851 q 582 868 579 868 l 647 867 q 744 864 700 864 q 801 867 768 864 l 851 868 m 303 942 q 296 948 297 942 q 299 957 294 954 q 450 1044 350 982 q 525 1089 500 1075 q 558 1084 531 1093 q 605 1064 585 1075 q 614 1050 625 1053 q 456 1003 528 1029 q 306 943 385 978 l 303 942 z "},"Ŷ":{"ha":846,"x_min":-4,"x_max":856,"o":"m 851 868 q 856 860 856 868 q 851 851 856 851 q 751 815 803 851 q 660 714 700 778 l 474 426 l 474 113 q 482 50 474 69 q 515 24 490 31 q 592 17 539 17 q 596 8 596 17 q 592 0 596 0 q 525 1 549 0 l 428 3 l 333 1 q 264 0 308 0 q 260 8 260 0 q 264 17 260 17 q 341 24 317 17 q 374 51 365 31 q 383 113 383 71 l 383 406 l 153 743 q 79 828 114 804 q -1 851 44 851 q -4 860 -4 851 q -1 868 -4 868 q 49 865 15 868 l 97 864 q 215 867 143 864 l 292 868 q 294 860 294 868 q 292 851 294 851 q 219 822 219 851 q 233 789 219 807 l 457 460 l 625 719 q 657 801 657 771 q 582 851 657 851 q 579 860 579 851 q 582 868 579 868 l 647 867 q 744 864 700 864 q 801 867 768 864 l 851 868 m 425 1097 q 442 1104 432 1104 q 457 1097 450 1104 l 599 963 q 599 956 603 961 q 592 953 594 950 l 442 1032 l 290 953 q 283 956 288 951 q 282 963 279 961 l 425 1097 z "},"Ÿ":{"ha":846,"x_min":-4,"x_max":856,"o":"m 851 868 q 856 860 856 868 q 851 851 856 851 q 751 815 803 851 q 660 714 700 778 l 474 426 l 474 113 q 482 50 474 69 q 515 24 490 31 q 592 17 539 17 q 596 8 596 17 q 592 0 596 0 q 525 1 549 0 l 428 3 l 333 1 q 264 0 308 0 q 260 8 260 0 q 264 17 260 17 q 341 24 317 17 q 374 51 365 31 q 383 113 383 71 l 383 406 l 153 743 q 79 828 114 804 q -1 851 44 851 q -4 860 -4 851 q -1 868 -4 868 q 49 865 15 868 l 97 864 q 215 867 143 864 l 292 868 q 294 860 294 868 q 292 851 294 851 q 219 822 219 851 q 233 789 219 807 l 457 460 l 625 719 q 657 801 657 771 q 582 851 657 851 q 579 860 579 851 q 582 868 579 868 l 647 867 q 744 864 700 864 q 801 867 768 864 l 851 868 m 319 994 q 276 1010 292 994 q 260 1053 260 1025 q 276 1094 260 1079 q 319 1110 292 1110 q 361 1094 346 1110 q 376 1053 376 1079 q 361 1010 376 1025 q 319 994 346 994 m 563 994 q 519 1010 535 994 q 503 1053 503 1026 q 519 1094 503 1079 q 563 1108 535 1108 q 604 1094 589 1108 q 619 1053 619 1079 q 604 1010 619 1025 q 563 994 589 994 z "},"Ẏ":{"ha":846,"x_min":-4,"x_max":856,"o":"m 851 868 q 856 860 856 868 q 851 851 856 851 q 751 815 803 851 q 660 714 700 778 l 474 426 l 474 113 q 482 50 474 69 q 515 24 490 31 q 592 17 539 17 q 596 8 596 17 q 592 0 596 0 q 525 1 549 0 l 428 3 l 333 1 q 264 0 308 0 q 260 8 260 0 q 264 17 260 17 q 341 24 317 17 q 374 51 365 31 q 383 113 383 71 l 383 406 l 153 743 q 79 828 114 804 q -1 851 44 851 q -4 860 -4 851 q -1 868 -4 868 q 49 865 15 868 l 97 864 q 215 867 143 864 l 292 868 q 294 860 294 868 q 292 851 294 851 q 219 822 219 851 q 233 789 219 807 l 457 460 l 625 719 q 657 801 657 771 q 582 851 657 851 q 579 860 579 851 q 582 868 579 868 l 647 867 q 744 864 700 864 q 801 867 768 864 l 851 868 m 442 990 q 397 1006 413 990 q 381 1051 381 1022 q 397 1093 381 1078 q 442 1108 413 1108 q 485 1093 469 1108 q 500 1051 500 1078 q 485 1006 500 1022 q 442 990 469 990 z "},"Ỵ":{"ha":846,"x_min":-4,"x_max":856,"o":"m 851 868 q 856 860 856 868 q 851 851 856 851 q 751 815 803 851 q 660 714 700 778 l 474 426 l 474 113 q 482 50 474 69 q 515 24 490 31 q 592 17 539 17 q 596 8 596 17 q 592 0 596 0 q 525 1 549 0 l 428 3 l 333 1 q 264 0 308 0 q 260 8 260 0 q 264 17 260 17 q 341 24 317 17 q 374 51 365 31 q 383 113 383 71 l 383 406 l 153 743 q 79 828 114 804 q -1 851 44 851 q -4 860 -4 851 q -1 868 -4 868 q 49 865 15 868 l 97 864 q 215 867 143 864 l 292 868 q 294 860 294 868 q 292 851 294 851 q 219 822 219 851 q 233 789 219 807 l 457 460 l 625 719 q 657 801 657 771 q 582 851 657 851 q 579 860 579 851 q 582 868 579 868 l 647 867 q 744 864 700 864 q 801 867 768 864 l 851 868 m 425 -265 q 380 -249 396 -265 q 364 -204 364 -233 q 380 -162 364 -178 q 425 -147 396 -147 q 468 -162 453 -147 q 483 -204 483 -178 q 468 -249 483 -233 q 425 -265 453 -265 z "},"Ỳ":{"ha":846,"x_min":-4,"x_max":856,"o":"m 851 868 q 856 860 856 868 q 851 851 856 851 q 751 815 803 851 q 660 714 700 778 l 474 426 l 474 113 q 482 50 474 69 q 515 24 490 31 q 592 17 539 17 q 596 8 596 17 q 592 0 596 0 q 525 1 549 0 l 428 3 l 333 1 q 264 0 308 0 q 260 8 260 0 q 264 17 260 17 q 341 24 317 17 q 374 51 365 31 q 383 113 383 71 l 383 406 l 153 743 q 79 828 114 804 q -1 851 44 851 q -4 860 -4 851 q -1 868 -4 868 q 49 865 15 868 l 97 864 q 215 867 143 864 l 292 868 q 294 860 294 868 q 292 851 294 851 q 219 822 219 851 q 233 789 219 807 l 457 460 l 625 719 q 657 801 657 771 q 582 851 657 851 q 579 860 579 851 q 582 868 579 868 l 647 867 q 744 864 700 864 q 801 867 768 864 l 851 868 m 578 943 q 427 1003 499 978 q 269 1050 356 1029 q 278 1064 258 1053 q 326 1084 299 1075 q 358 1089 353 1093 q 404 1061 389 1069 q 585 957 521 989 q 588 951 588 954 q 585 944 588 947 q 578 943 582 942 z "},"Ỷ":{"ha":846,"x_min":-4,"x_max":856,"o":"m 851 868 q 856 860 856 868 q 851 851 856 851 q 751 815 803 851 q 660 714 700 778 l 474 426 l 474 113 q 482 50 474 69 q 515 24 490 31 q 592 17 539 17 q 596 8 596 17 q 592 0 596 0 q 525 1 549 0 l 428 3 l 333 1 q 264 0 308 0 q 260 8 260 0 q 264 17 260 17 q 341 24 317 17 q 374 51 365 31 q 383 113 383 71 l 383 406 l 153 743 q 79 828 114 804 q -1 851 44 851 q -4 860 -4 851 q -1 868 -4 868 q 49 865 15 868 l 97 864 q 215 867 143 864 l 292 868 q 294 860 294 868 q 292 851 294 851 q 219 822 219 851 q 233 789 219 807 l 457 460 l 625 719 q 657 801 657 771 q 582 851 657 851 q 579 860 579 851 q 582 868 579 868 l 647 867 q 744 864 700 864 q 801 867 768 864 l 851 868 m 444 904 q 438 901 446 901 q 428 904 429 901 q 424 933 424 919 q 431 973 424 954 q 454 1014 439 992 q 474 1053 468 1039 q 481 1083 481 1067 q 464 1124 481 1110 q 422 1139 447 1139 q 383 1129 403 1139 l 382 1129 q 374 1134 378 1129 q 374 1142 369 1139 q 464 1169 417 1169 q 529 1149 506 1169 q 553 1097 553 1129 q 539 1053 553 1072 q 496 1004 525 1033 q 456 957 468 974 q 443 918 443 940 q 444 904 443 908 z "},"Ȳ":{"ha":846,"x_min":-4,"x_max":856,"o":"m 851 868 q 856 860 856 868 q 851 851 856 851 q 751 815 803 851 q 660 714 700 778 l 474 426 l 474 113 q 482 50 474 69 q 515 24 490 31 q 592 17 539 17 q 596 8 596 17 q 592 0 596 0 q 525 1 549 0 l 428 3 l 333 1 q 264 0 308 0 q 260 8 260 0 q 264 17 260 17 q 341 24 317 17 q 374 51 365 31 q 383 113 383 71 l 383 406 l 153 743 q 79 828 114 804 q -1 851 44 851 q -4 860 -4 851 q -1 868 -4 868 q 49 865 15 868 l 97 864 q 215 867 143 864 l 292 868 q 294 860 294 868 q 292 851 294 851 q 219 822 219 851 q 233 789 219 807 l 457 460 l 625 719 q 657 801 657 771 q 582 851 657 851 q 579 860 579 851 q 582 868 579 868 l 647 867 q 744 864 700 864 q 801 867 768 864 l 851 868 m 265 1003 q 257 1022 257 1003 q 265 1042 257 1042 l 614 1042 q 624 1022 624 1042 q 614 1003 624 1003 l 265 1003 z "},"Ỹ":{"ha":846,"x_min":-4,"x_max":856,"o":"m 851 868 q 856 860 856 868 q 851 851 856 851 q 751 815 803 851 q 660 714 700 778 l 474 426 l 474 113 q 482 50 474 69 q 515 24 490 31 q 592 17 539 17 q 596 8 596 17 q 592 0 596 0 q 525 1 549 0 l 428 3 l 333 1 q 264 0 308 0 q 260 8 260 0 q 264 17 260 17 q 341 24 317 17 q 374 51 365 31 q 383 113 383 71 l 383 406 l 153 743 q 79 828 114 804 q -1 851 44 851 q -4 860 -4 851 q -1 868 -4 868 q 49 865 15 868 l 97 864 q 215 867 143 864 l 292 868 q 294 860 294 868 q 292 851 294 851 q 219 822 219 851 q 233 789 219 807 l 457 460 l 625 719 q 657 801 657 771 q 582 851 657 851 q 579 860 579 851 q 582 868 579 868 l 647 867 q 744 864 700 864 q 801 867 768 864 l 851 868 m 549 1031 q 586 1040 572 1031 q 617 1068 600 1050 l 618 1068 q 626 1065 622 1068 q 628 1058 629 1061 q 567 990 590 1007 q 517 972 544 972 q 465 979 492 972 q 432 988 438 986 q 335 1006 375 1006 q 298 997 310 1006 q 267 968 286 989 l 265 968 q 259 972 263 968 q 257 978 256 975 q 312 1038 281 1011 q 375 1065 343 1065 q 444 1050 399 1065 q 484 1040 451 1049 q 549 1031 517 1031 z "},"Z":{"ha":826,"x_min":72,"x_max":782,"o":"m 625 833 q 628 842 629 840 q 618 844 628 844 q 279 837 369 844 q 153 800 189 829 q 89 690 118 771 q 83 688 89 688 q 76 690 79 688 q 74 693 72 692 l 128 910 q 133 911 129 911 q 144 907 147 911 q 147 882 142 890 q 169 871 153 874 q 224 868 186 868 l 731 868 q 741 861 738 868 q 740 850 744 854 l 199 38 q 196 28 194 31 q 206 26 197 26 l 558 26 q 701 65 651 26 q 765 188 750 104 q 774 190 767 190 q 782 188 782 190 l 763 11 q 758 2 763 7 q 749 -3 754 -3 q 85 0 543 0 q 75 6 78 0 q 76 18 72 13 l 625 833 z "},"Ź":{"ha":826,"x_min":74,"x_max":782,"o":"m 625 833 q 628 842 629 840 q 618 844 628 844 q 279 837 369 844 q 153 800 189 829 q 89 690 118 771 q 83 688 89 688 q 76 690 79 688 q 74 693 72 692 l 128 910 q 133 911 129 911 q 144 907 147 911 q 147 882 142 890 q 169 871 153 874 q 224 868 186 868 l 731 868 q 741 861 738 868 q 740 850 744 854 l 199 38 q 196 28 194 31 q 206 26 197 26 l 558 26 q 701 65 651 26 q 765 188 750 104 q 774 190 767 190 q 782 188 782 190 l 763 11 q 758 2 763 7 q 749 -3 754 -3 q 85 0 543 0 q 75 6 78 0 q 76 18 72 13 l 625 833 m 297 942 q 290 948 292 942 q 293 957 289 954 q 444 1044 344 982 q 519 1089 494 1075 q 552 1084 525 1093 q 599 1064 579 1075 q 608 1050 619 1053 q 451 1003 522 1029 q 300 943 379 978 l 297 942 z "},"Ž":{"ha":826,"x_min":74,"x_max":782,"o":"m 625 833 q 628 842 629 840 q 618 844 628 844 q 279 837 369 844 q 153 800 189 829 q 89 690 118 771 q 83 688 89 688 q 76 690 79 688 q 74 693 72 692 l 128 910 q 133 911 129 911 q 144 907 147 911 q 147 882 142 890 q 169 871 153 874 q 224 868 186 868 l 731 868 q 741 861 738 868 q 740 850 744 854 l 199 38 q 196 28 194 31 q 206 26 197 26 l 558 26 q 701 65 651 26 q 765 188 750 104 q 774 190 767 190 q 782 188 782 190 l 763 11 q 758 2 763 7 q 749 -3 754 -3 q 85 0 543 0 q 75 6 78 0 q 76 18 72 13 l 625 833 m 275 1089 q 274 1090 274 1089 q 274 1090 274 1090 q 277 1097 274 1093 q 283 1099 281 1100 l 435 1019 l 585 1099 l 586 1099 q 592 1095 590 1099 q 592 1089 594 1092 l 450 954 q 435 949 444 949 q 418 954 424 949 l 275 1089 z "},"Ż":{"ha":826,"x_min":74,"x_max":782,"o":"m 625 833 q 628 842 629 840 q 618 844 628 844 q 279 837 369 844 q 153 800 189 829 q 89 690 118 771 q 83 688 89 688 q 76 690 79 688 q 74 693 72 692 l 128 910 q 133 911 129 911 q 144 907 147 911 q 147 882 142 890 q 169 871 153 874 q 224 868 186 868 l 731 868 q 741 861 738 868 q 740 850 744 854 l 199 38 q 196 28 194 31 q 206 26 197 26 l 558 26 q 701 65 651 26 q 765 188 750 104 q 774 190 767 190 q 782 188 782 190 l 763 11 q 758 2 763 7 q 749 -3 754 -3 q 85 0 543 0 q 75 6 78 0 q 76 18 72 13 l 625 833 m 436 990 q 391 1006 407 990 q 375 1051 375 1022 q 391 1093 375 1078 q 436 1108 407 1108 q 479 1093 464 1108 q 494 1051 494 1078 q 479 1006 494 1022 q 436 990 464 990 z "},"Ẓ":{"ha":826,"x_min":74,"x_max":782,"o":"m 625 833 q 628 842 629 840 q 618 844 628 844 q 279 837 369 844 q 153 800 189 829 q 89 690 118 771 q 83 688 89 688 q 76 690 79 688 q 74 693 72 692 l 128 910 q 133 911 129 911 q 144 907 147 911 q 147 882 142 890 q 169 871 153 874 q 224 868 186 868 l 731 868 q 741 861 738 868 q 740 850 744 854 l 199 38 q 196 28 194 31 q 206 26 197 26 l 558 26 q 701 65 651 26 q 765 188 750 104 q 774 190 767 190 q 782 188 782 190 l 763 11 q 758 2 763 7 q 749 -3 754 -3 q 85 0 543 0 q 75 6 78 0 q 76 18 72 13 l 625 833 m 415 -265 q 370 -249 386 -265 q 354 -204 354 -233 q 370 -162 354 -178 q 415 -147 386 -147 q 458 -162 443 -147 q 474 -204 474 -178 q 458 -249 474 -233 q 415 -265 443 -265 z "},"a":{"ha":582,"x_min":75,"x_max":586,"o":"m 576 75 q 584 69 582 75 q 581 60 586 63 l 438 -8 q 425 -11 429 -11 q 393 13 407 -11 q 375 78 379 36 l 289 32 q 218 0 246 10 q 164 -10 190 -10 q 98 13 121 -10 q 75 72 75 36 q 104 132 75 110 q 207 181 133 154 l 374 239 l 374 354 q 350 483 374 446 q 283 521 326 521 q 210 487 236 521 q 179 406 185 453 q 165 367 175 382 q 128 353 154 353 q 93 364 106 353 q 81 394 81 375 q 122 463 81 426 q 223 524 164 499 q 329 549 282 549 q 418 510 385 549 q 451 396 451 472 l 451 150 q 464 78 451 101 q 504 56 476 56 q 574 75 528 56 l 576 75 m 374 97 l 374 106 l 374 222 l 231 168 q 185 141 199 157 q 172 101 172 125 q 189 56 172 72 q 233 39 206 39 q 289 54 256 39 l 374 97 z "},"á":{"ha":582,"x_min":75,"x_max":585,"o":"m 576 75 q 584 69 582 75 q 581 60 586 63 l 438 -8 q 425 -11 429 -11 q 393 13 407 -11 q 375 78 379 36 l 289 32 q 218 0 246 10 q 164 -10 190 -10 q 98 13 121 -10 q 75 72 75 36 q 104 132 75 110 q 207 181 133 154 l 374 239 l 374 354 q 350 483 374 446 q 283 521 326 521 q 210 487 236 521 q 179 406 185 453 q 165 367 175 382 q 128 353 154 353 q 93 364 106 353 q 81 394 81 375 q 122 463 81 426 q 223 524 164 499 q 329 549 282 549 q 418 510 385 549 q 451 396 451 472 l 451 150 q 464 78 451 101 q 504 56 476 56 q 574 75 528 56 l 576 75 m 374 97 l 374 106 l 374 222 l 231 168 q 185 141 199 157 q 172 101 172 125 q 189 56 172 72 q 233 39 206 39 q 289 54 256 39 l 374 97 m 288 658 q 282 656 288 656 q 274 658 278 656 q 272 661 271 660 l 344 994 q 373 1008 346 1000 q 418 1015 400 1015 q 429 1010 431 1015 l 288 658 z "}}}
